<?xml version="1.0" encoding="utf-8"?>
<!-- Generator: Adobe Illustrator 24.0.1, SVG Export Plug-In . SVG Version: 6.00 Build 0)  -->
<svg version="1.1" id="Capa_1" xmlns="http://www.w3.org/2000/svg" xmlns:xlink="http://www.w3.org/1999/xlink" x="0px" y="0px"
	 viewBox="0 0 702.5 709.6" style="enable-background:new 0 0 702.5 709.6;" xml:space="preserve">
<style type="text/css">
	.st0{fill:none;stroke:#EFEEEE;stroke-dasharray:0;}
	.st1{fill:#1C3761;}
	.st2{font-family:'SourceSansPro-Regular';}
	.st3{font-size:9.62px;}
	.st4{fill:none;stroke:#1C3761;stroke-dasharray:0;}
	.st5{fill:none;stroke:#1C3761;stroke-dasharray:1,1;}
	.st6{font-family:'ArialMT';}
	.st7{font-size:8.24px;}
	.st8{fill:none;stroke:#79C8D1;stroke-width:3.8655;}
	.st9{font-family:'OpenSans-Bold';}
	.st10{font-size:19.23px;}
	.st11{fill:#79C8D1;}
	.st12{font-size:11.68px;}
	.st13{fill:#003366;}
	.st14{fill:none;stroke:#79C8D1;stroke-width:4.56;}
	.st15{font-family:'OpenSans-SemiBold';}
	.st16{font-size:13.74px;}
	.st17{fill:#878787;}
	.st18{font-size:10.3px;}
	.st19{fill:#1D1D1B;}
</style>
<g id="facets">
	<line class="st0" x1="83" y1="595.3" x2="647" y2="595.3"/>
	<text transform="matrix(1 0 0 1 60.7435 598.4439)" class="st1 st2 st3">0%</text>
	<line class="st0" x1="83" y1="502.2" x2="647" y2="502.2"/>
	<text transform="matrix(1 0 0 1 55.9735 505.3939)" class="st1 st2 st3">20%</text>
	<line class="st0" x1="83" y1="409.1" x2="647" y2="409.1"/>
	<text transform="matrix(1 0 0 1 55.9735 412.3439)" class="st1 st2 st3">40%</text>
	<line class="st0" x1="83" y1="316.1" x2="647" y2="316.1"/>
	<text transform="matrix(1 0 0 1 55.9735 319.2839)" class="st1 st2 st3">60%</text>
	<line class="st0" x1="83" y1="223" x2="647" y2="223"/>
	<text transform="matrix(1 0 0 1 55.9735 226.2339)" class="st1 st2 st3">80%</text>
	<path class="st4" d="M83.4,595.3h563.9"/>
	<line class="st4" x1="83.4" y1="594.9" x2="83.4" y2="599"/>
	<line class="st4" x1="134.6" y1="594.9" x2="134.6" y2="599"/>
	<line class="st4" x1="185.9" y1="594.9" x2="185.9" y2="599"/>
	<line class="st4" x1="237.2" y1="594.9" x2="237.2" y2="599"/>
	<line class="st4" x1="288.4" y1="594.9" x2="288.4" y2="599"/>
	<line class="st4" x1="339.7" y1="594.9" x2="339.7" y2="599"/>
	<line class="st4" x1="391" y1="594.9" x2="391" y2="599"/>
	<line class="st4" x1="442.3" y1="594.9" x2="442.3" y2="599"/>
	<line class="st4" x1="493.5" y1="594.9" x2="493.5" y2="599"/>
	<line class="st4" x1="544.8" y1="594.9" x2="544.8" y2="599"/>
	<line class="st4" x1="596.1" y1="594.9" x2="596.1" y2="599"/>
	<line class="st4" x1="647.3" y1="594.9" x2="647.3" y2="599"/>
	<line class="st0" x1="83.9" y1="132.6" x2="647.9" y2="132.6"/>
	<text transform="matrix(1 0 0 1 52.5522 135.7874)" class="st1 st2 st3">100%</text>
</g>
<line class="st5" x1="83" y1="413.8" x2="647" y2="413.8"/>
<text transform="matrix(1 0 0 1 84.7665 407.6388)" class="st1 st6 st7">Mitjana 2020: 39,7%</text>
<g id="lines">
	<path class="st8" d="M81.6,466.3c17.6-22,35.1-44,52.7-44"/>
</g>
<g>
	<text transform="matrix(1 0 0 1 302.6516 38.485)" class="st1 st9 st10">Càmpings</text>
</g>
<g>
	<path class="st1" d="M304.7,80.7h11.2c1.1,0,2,0.9,2,2v4c0,1.1-0.9,2-2,2h-11.2c-1.1,0-2-0.9-2-2v-4
		C302.7,81.6,303.6,80.7,304.7,80.7z"/>
	<path class="st11" d="M360.4,80.7h11.2c1.1,0,2,0.9,2,2v4c0,1.1-0.9,2-2,2h-11.2c-1.1,0-2-0.9-2-2v-4
		C358.4,81.6,359.3,80.7,360.4,80.7z"/>
</g>
<text transform="matrix(1 0 0 1 74.4135 613.6639)" class="st1 st2 st3">Gen.</text>
<text transform="matrix(1 0 0 1 126.3535 613.6639)" class="st1 st2 st3">F</text>
<text transform="matrix(1 0 0 1 130.9735 613.6639)" class="st1 st2 st3">e</text>
<text transform="matrix(1 0 0 1 135.7435 613.6639)" class="st1 st2 st3">b</text>
<text transform="matrix(1 0 0 1 140.9635 613.6639)" class="st1 st2 st3">.</text>
<text transform="matrix(1 0 0 1 176.2735 613.6639)" class="st1 st2 st3">Ma</text>
<text transform="matrix(1 0 0 1 188.1135 613.6639)" class="st1 st2 st3">r</text>
<text transform="matrix(1 0 0 1 190.9035 613.6639)" class="st1 st2 st3">.</text>
<text transform="matrix(1 0 0 1 191.9635 613.6639)" class="st1 st2 st3">*</text>
<text transform="matrix(1 0 0 1 229.5335 613.6639)" class="st1 st2 st3">Ab</text>
<text transform="matrix(1 0 0 1 240.0835 613.6639)" class="st1 st2 st3">r</text>
<text transform="matrix(1 0 0 1 242.8735 613.6639)" class="st1 st2 st3">.</text>
<text transform="matrix(1 0 0 1 279.0235 613.6639)" class="st1 st2 st3">Mai</text>
<text transform="matrix(1 0 0 1 293.2235 613.6639)" class="st1 st2 st3">.</text>
<text transform="matrix(1 0 0 1 294.2935 613.6639)" class="st1 st2 st3">*</text>
<text transform="matrix(1 0 0 1 331.1835 613.6639)" class="st1 st2 st3">Jun.</text>
<text transform="matrix(1 0 0 1 383.8535 613.6639)" class="st1 st2 st3">Jul.</text>
<text transform="matrix(1 0 0 1 433.7435 613.6639)" class="st1 st2 st3">A</text>
<text transform="matrix(1 0 0 1 438.9735 613.6639)" class="st1 st2 st3">g</text>
<text transform="matrix(1 0 0 1 443.6835 613.6639)" class="st1 st2 st3">o</text>
<text transform="matrix(1 0 0 1 448.8035 613.6639)" class="st1 st2 st3">.</text>
<text transform="matrix(1 0 0 1 485.9835 613.6639)" class="st1 st2 st3">S</text>
<text transform="matrix(1 0 0 1 491.1235 613.6639)" class="st1 st2 st3">e</text>
<text transform="matrix(1 0 0 1 495.7935 613.6639)" class="st1 st2 st3">t</text>
<text transform="matrix(1 0 0 1 499.1135 613.6639)" class="st1 st2 st3">.</text>
<text transform="matrix(1 0 0 1 536.8135 613.6639)" class="st1 st2 st3">O</text>
<text transform="matrix(1 0 0 1 543.2035 613.6639)" class="st1 st2 st3">c</text>
<text transform="matrix(1 0 0 1 547.4835 613.6639)" class="st1 st2 st3">t</text>
<text transform="matrix(1 0 0 1 550.8035 613.6639)" class="st1 st2 st3">.</text>
<text transform="matrix(1 0 0 1 587.3035 613.6639)" class="st1 st2 st3">N</text>
<text transform="matrix(1 0 0 1 593.5236 613.6639)" class="st1 st2 st3">o</text>
<text transform="matrix(1 0 0 1 598.7035 613.6639)" class="st1 st2 st3">v</text>
<text transform="matrix(1 0 0 1 602.8535 613.6639)" class="st1 st2 st3">.</text>
<text transform="matrix(1 0 0 1 638.9937 613.6639)" class="st1 st2 st3">Des.</text>
<path id="point-0-5-2" class="st1" d="M82.5,610.5c0-0.4,0.3-0.7,0.7-0.7c0.4,0,0.7,0.3,0.7,0.7s-0.3,0.7-0.7,0.7
	C82.8,611.2,82.5,610.9,82.5,610.5C82.5,610.6,82.5,610.6,82.5,610.5L82.5,610.5z"/>
<path id="point-0-6-2" class="st11" d="M77.5,465.6c0-2.3,1.8-4.1,4.1-4.1c2.3,0,4.1,1.8,4.1,4.1c0,2.3-1.8,4.1-4.1,4.1
	S77.5,467.9,77.5,465.6z"/>
<path id="point-0-6-5" class="st11" d="M131.9,422.3c0-1.7,1.4-3.1,3.1-3.1c1.7,0,3.1,1.4,3.1,3.1s-1.4,3.1-3.1,3.1l0,0
	C133.3,425.4,131.9,424,131.9,422.3z"/>
<path id="point-0-6-6" class="st11" d="M336.1,398.6c0-1.7,1.4-3.1,3.1-3.1s3.1,1.4,3.1,3.1s-1.4,3.1-3.1,3.1l0,0
	C337.5,401.7,336.1,400.3,336.1,398.6z"/>
<path id="point-0-6-6-2" class="st11" d="M386.8,382.8c0-1.7,1.4-3.1,3.1-3.1s3.1,1.4,3.1,3.1s-1.4,3.1-3.1,3.1l0,0
	C388.2,385.9,386.8,384.5,386.8,382.8z"/>
<path id="point-0-6-6-3" class="st11" d="M434,379.5c0-1.7,1.4-3.1,3.1-3.1s3.1,1.4,3.1,3.1s-1.4,3.1-3.1,3.1l0,0
	C435.4,382.6,434,381.2,434,379.5z"/>
<path id="point-0-6-6-4" class="st11" d="M486.1,418.5c0-1.7,1.4-3.1,3.1-3.1s3.1,1.4,3.1,3.1s-1.4,3.1-3.1,3.1l0,0
	C487.5,421.5,486.1,420.2,486.1,418.5z"/>
<text transform="matrix(1 0 0 1 60.3935 480.6499)" class="st1 st2 st12">27,0</text>
<text transform="matrix(1 0 0 1 127.7035 438.7539)" class="st1 st2 st12">37,1</text>
<text transform="matrix(1 0 0 1 321.0645 411.1512)" class="st1 st2 st12">42,2</text>
<text transform="matrix(1 0 0 1 386.4535 396.4738)" class="st1 st2 st12">45,5</text>
<text transform="matrix(1 0 0 1 484.3235 435.8639)" class="st1 st2 st12">37,9</text>
<text transform="matrix(1 0 0 1 534.5435 425.3939)" class="st1 st2 st12">40,3</text>
<text transform="matrix(1 0 0 1 602.8538 439.3941)" class="st1 st2 st12">  </text>
<text transform="matrix(1 0 0 1 638.9933 493.3298)" class="st1 st2 st12">26,3</text>
<path id="point-0-6-15" class="st11" d="M233.7,594.8c0-2.3,1.8-4.1,4.1-4.1s4.1,1.8,4.1,4.1s-1.8,4.1-4.1,4.1l0,0l0,0
	C235.5,598.9,233.7,597.1,233.7,594.8z"/>
<text transform="matrix(1 0 0 1 230.3835 583.9939)" class="st1 st2 st12">0,0</text>
<path id="point-0-6" class="st13" d="M385.1,382.3c0-0.4,0.3-0.7,0.7-0.7l0,0l0,0c0.4,0,0.7,0.3,0.7,0.7s-0.3,0.7-0.7,0.7
	S385.1,382.6,385.1,382.3z"/>
<path id="point-0-7-2" class="st11" d="M637.8,473.6c0-2.3,1.8-4.2,4.2-4.2c2.3,0,4.2,1.8,4.2,4.1c0,2.3-1.8,4.2-4.1,4.2l0,0
	C639.7,477.8,637.9,475.9,637.8,473.6L637.8,473.6L637.8,473.6L637.8,473.6z"/>
<path class="st14" d="M643.1,473c-23.7-3-38-11.5-46.5-18.5c-21.2-17.5-31.7-46.1-50.1-45.4c-0.2,0-1.9,0.3-5.3,0.7
	c-6.8,0.9-17,2.4-29.4,4.6c-21.2,3.7-20.1,4.3-23.3,4.1c-5.2-0.3-35.4-31-51.2-39c-8.9-4.5-23.2-6.7-46.6,3.1v0.6
	c-17.1,2.6-34.2,5.2-51.3,15.4"/>
<path id="point-0-6-6-4_1_" class="st11" d="M540.1,409.1c0-1.7,1.4-3.1,3.1-3.1s3.1,1.4,3.1,3.1s-1.4,3.1-3.1,3.1l0,0
	C541.5,412.2,540.1,410.8,540.1,409.1z"/>
<text transform="matrix(1 0 0 1 567.7539 466.3139)" class="st1 st2 st12">30,0</text>
<text transform="matrix(1 0 0 1 229.1105 62.3535)" class="st1 st15 st16">Ocupació en percentatge per parcel·les.</text>
<g>
	<text transform="matrix(1 0 0 1 55.1666 689.5124)" class="st17 st15 st18">Font: Elaboració pròpia del LABturisme en base a dades de l&apos;Enquesta d&apos;ocupació en allotjaments de l&apos;INE.        </text>
</g>
<text transform="matrix(1 0 0 1 55.4066 655.3624)" class="st17 st15 st18">* Les dades dels mesos de març i maig de 2020 no estan disponibles, degut al tancament d’establiments per la gestió de la crisi</text>
<text transform="matrix(1 0 0 1 55.4066 667.7224)" class="st17 st15 st18">sanitària ocasionada per la Covid-19.</text>
<path id="point-0-6-6-4_2_" class="st11" d="M590.4,451.4c0-1.7,1.4-3.1,3.1-3.1c1.7,0,3.1,1.4,3.1,3.1s-1.4,3.1-3.1,3.1l0,0
	C591.8,454.5,590.4,453.1,590.4,451.4z"/>
<path id="point-0-6-2_1_" class="st1" d="M79,507c0-2.3,1.8-4.1,4.1-4.1c2.3,0,4.1,1.8,4.1,4.1c0,2.3-1.8,4.1-4.1,4.1
	S79,509.3,79,507z"/>
<text transform="matrix(1 0 0 1 74.4134 523.8782)" class="st1 st2 st12">19,1</text>
<text transform="matrix(1 0 0 1 443.6836 375.6956)" class="st1 st2 st12">46,3</text>
<text transform="matrix(1 0 0 1 380.0896 88.6649)" class="st19 st15 st18">2020</text>
<text transform="matrix(1 0 0 1 324.8195 88.6649)" class="st19 st15 st18">2021</text>
</svg>
