<?xml version="1.0" encoding="utf-8"?>
<!-- Generator: Adobe Illustrator 24.0.1, SVG Export Plug-In . SVG Version: 6.00 Build 0)  -->
<svg version="1.1" id="Capa_1" xmlns="http://www.w3.org/2000/svg" xmlns:xlink="http://www.w3.org/1999/xlink" x="0px" y="0px"
	 viewBox="0 0 1301.9 967.8" style="enable-background:new 0 0 1301.9 967.8;" xml:space="preserve">
<style type="text/css">
	.st0{fill:none;}
	.st1{clip-path:url(#SVGID_2_);}
	.st2{fill:#003366;}
	.st3{font-family:'Arial-BoldMT';}
	.st4{font-size:24.5186px;}
	.st5{clip-path:url(#SVGID_4_);}
	.st6{fill:#EEEEEE;}
	.st7{clip-path:url(#SVGID_6_);}
	.st8{font-size:23.8px;}
	.st9{fill:#8D8D8D;}
	.st10{fill:#012E68;}
	.st11{font-family:'OpenSans-Regular';}
	.st12{font-size:22px;}
	.st13{fill:#00CCCC;}
	.st14{fill:#FFFFFF;}
	.st15{font-family:'OpenSans-SemiBold';}
	.st16{font-size:35px;}
	.st17{font-size:25px;}
	.st18{font-size:83px;}
	.st19{font-family:'ArialMT';}
	.st20{font-size:28.8943px;}
</style>
<title>LABTurisme-Sintesi-Viatgers-Pernoctacions-desembre-2020</title>
<rect x="37.8" y="358.8" class="st0" width="1220" height="426.6"/>
<image style="overflow:visible;enable-background:new    ;" width="264" height="86" xlink:href="CBC1D0D5.png"  transform="matrix(0.7065 0 0 0.7065 389.4941 315.8191)">
</image>
<image style="overflow:visible;enable-background:new    ;" width="946" height="294" xlink:href="CBC1D0DB.png"  transform="matrix(1.2834 0 0 1.2834 34.6818 110.8191)">
</image>
<g>
	<defs>
		<rect id="SVGID_1_" x="100.6" y="479.7" width="460.6" height="303.9"/>
	</defs>
	<clipPath id="SVGID_2_">
		<use xlink:href="#SVGID_1_"  style="overflow:visible;"/>
	</clipPath>
	<g class="st1">
		<text transform="matrix(1 0 0 1 286.3466 553.5259)" class="st2 st3 st4">V</text>
		<text transform="matrix(1 0 0 1 302.2572 553.5259)" class="st2 st3 st4">iatgers</text>
	</g>
</g>
<g>
	<defs>
		<rect id="SVGID_3_" x="764.5" y="483.7" width="447.1" height="294.9"/>
	</defs>
	<clipPath id="SVGID_4_">
		<use xlink:href="#SVGID_3_"  style="overflow:visible;"/>
	</clipPath>
	<g class="st5">
		<rect x="907.2" y="529" class="st6" width="0" height="35.7"/>
	</g>
</g>
<g>
	<defs>
		<rect id="SVGID_5_" x="764.5" y="483.7" width="447.1" height="294.9"/>
	</defs>
	<clipPath id="SVGID_6_">
		<use xlink:href="#SVGID_5_"  style="overflow:visible;"/>
	</clipPath>
	<g class="st7">
		<text transform="matrix(1 0 0 1 913.1737 555.3903)" class="st2 st3 st8">Pernoctacions</text>
	</g>
</g>
<g>
	<path class="st9" d="M6.8,957.6H1.7v4.7h5.7v1.4H0v-13.1h7.1v1.4H1.7v4.1h5.1V957.6z"/>
	<path class="st9" d="M9.5,949.9h1.7v13.8H9.5V949.9z"/>
	<path class="st9" d="M19.3,963.7l-0.1-1.2h-0.1c-0.7,0.9-1.7,1.4-2.9,1.4c-1.5,0.1-2.8-1-2.9-2.5c0-0.1,0-0.1,0-0.2
		c0-2.3,2-3.5,5.6-3.5v-0.2c0.1-1.1-0.6-2-1.7-2.2c-0.2,0-0.3,0-0.5,0c-0.9,0-1.7,0.2-2.4,0.7l-0.4-1.1c0.9-0.6,2-0.8,3.1-0.8
		c2.9,0,3.6,2,3.6,3.8v3.5c0,0.8,0,1.5,0.2,2.3L19.3,963.7z M19,958.9c-1.9,0-4,0.3-4,2.1c-0.1,0.8,0.6,1.6,1.4,1.6
		c0.1,0,0.2,0,0.2,0c1,0,1.9-0.6,2.3-1.6c0.1-0.2,0.1-0.4,0.1-0.5V958.9z"/>
	<path class="st9" d="M23.3,963.7c0-0.6,0.1-1.6,0.1-2.4v-11.4h1.7v5.9h0c0.7-1.1,1.9-1.8,3.2-1.7c2.3,0,4,1.9,4,4.8
		c0,3.4-2.1,5-4.2,5c-1.3,0.1-2.5-0.6-3.1-1.8h-0.1l-0.1,1.6L23.3,963.7z M25.1,959.9c0,0.2,0,0.4,0.1,0.6c0.3,1.2,1.3,2,2.6,2
		c1.8,0,2.9-1.5,2.9-3.6c0-1.9-1-3.5-2.8-3.5c-1.2,0-2.3,0.9-2.6,2.1c-0.1,0.2-0.1,0.5-0.1,0.7V959.9z"/>
	<path class="st9" d="M43,958.9c0.2,2.5-1.7,4.8-4.2,5c-0.2,0-0.3,0-0.5,0c-2.5,0-4.5-1.9-4.5-4.8c0-3.1,2.1-5,4.7-5
		C41.1,954.1,43,956.1,43,958.9z M35.5,959c0,2.1,1.2,3.6,2.9,3.6c1.6,0,2.9-1.5,2.9-3.6c0-1.6-0.8-3.6-2.8-3.6S35.5,957.2,35.5,959
		L35.5,959z"/>
	<path class="st9" d="M45.1,957.2c0-1.1,0-2.1-0.1-2.9h1.5l0.1,1.8h0.1c0.3-1.2,1.4-2,2.6-2.1c0.2,0,0.3,0,0.5,0.1v1.6
		c-0.2,0-0.4-0.1-0.6-0.1c-1.2,0-2.2,1-2.3,2.2c0,0.3-0.1,0.5-0.1,0.8v5h-1.7V957.2z"/>
	<path class="st9" d="M56.6,963.7l-0.1-1.2h-0.1c-0.7,0.9-1.7,1.4-2.9,1.4c-1.5,0.1-2.8-1-2.9-2.5c0-0.1,0-0.1,0-0.2
		c0-2.3,2-3.5,5.6-3.5v-0.2c0.1-1.1-0.6-2-1.7-2.2c-0.2,0-0.3,0-0.5,0c-0.9,0-1.7,0.2-2.4,0.7l-0.4-1.1c0.9-0.6,2-0.8,3.1-0.8
		c2.9,0,3.6,2,3.6,3.8v3.5c0,0.8,0,1.5,0.2,2.3L56.6,963.7z M56.3,958.9c-1.9,0-4,0.3-4,2.1c-0.1,0.8,0.6,1.6,1.4,1.6
		c0.1,0,0.2,0,0.2,0c1,0,1.9-0.6,2.3-1.6c0.1-0.2,0.1-0.4,0.1-0.5L56.3,958.9z"/>
	<path class="st9" d="M67.4,963.3c-0.8,0.4-1.8,0.6-2.7,0.5c-2.5,0.1-4.6-1.8-4.7-4.2c0-0.2,0-0.4,0-0.6c-0.1-2.6,1.9-4.9,4.5-5
		c0.2,0,0.3,0,0.5,0c0.8,0,1.6,0.2,2.4,0.5l-0.4,1.3c-0.6-0.3-1.3-0.5-2-0.4c-2,0.1-3.4,1.8-3.3,3.8c0.1,1.8,1.5,3.2,3.3,3.3
		c0.7,0,1.4-0.2,2.1-0.5L67.4,963.3z"/>
	<path class="st9" d="M71.3,951.7c0,0.6-0.5,1.1-1.1,1.1c-0.6,0-1.1-0.5-1.1-1.1c0-0.6,0.4-1.1,1-1.1c0,0,0,0,0.1,0
		C70.8,950.6,71.3,951,71.3,951.7C71.3,951.6,71.3,951.6,71.3,951.7z M69.4,963.7v-9.4h1.7v9.4H69.4z"/>
	<path class="st9" d="M82.5,958.9c0.2,2.5-1.7,4.8-4.2,5c-0.2,0-0.3,0-0.5,0c-2.5,0-4.5-1.9-4.5-4.8c0-3.1,2.1-5,4.7-5
		C80.6,954.1,82.5,956.1,82.5,958.9z M75,959c0,2.1,1.2,3.6,2.9,3.6c1.6,0,2.9-1.5,2.9-3.6c0-1.6-0.8-3.6-2.8-3.6
		C75.9,955.4,75,957.2,75,959L75,959z M80.4,950.2L78,953h-1.2l1.7-2.8H80.4z"/>
	<path class="st9" d="M94.3,957.4c0-1.2,0-2.2-0.1-3.1h1.5l0.1,1.6h0c0.7-1.2,2-1.9,3.3-1.8c2.3,0,4,1.9,4,4.8c0,3.4-2.1,5-4.3,5
		c-1.2,0.1-2.3-0.5-2.9-1.5h0v5.1h-1.7L94.3,957.4z M96,959.9c0,0.2,0,0.5,0.1,0.7c0.3,1.2,1.3,2,2.6,2c1.8,0,2.9-1.5,2.9-3.6
		c0-1.9-1-3.5-2.8-3.5c-1.2,0-2.3,0.9-2.6,2.1c-0.1,0.2-0.1,0.5-0.1,0.7L96,959.9z"/>
	<path class="st9" d="M105.4,957.2c0-1.1,0-2.1-0.1-2.9h1.5l0.1,1.8h0.1c0.3-1.2,1.4-2,2.6-2.1c0.2,0,0.3,0,0.5,0.1v1.6
		c-0.2,0-0.4-0.1-0.6-0.1c-1.2,0-2.2,1-2.3,2.2c0,0.3-0.1,0.5-0.1,0.8v5h-1.7V957.2z"/>
	<path class="st9" d="M120,958.9c0.2,2.5-1.7,4.8-4.2,5c-0.2,0-0.3,0-0.5,0c-2.5,0-4.5-1.9-4.5-4.8c0-3.1,2.1-5,4.7-5
		C118.2,954.1,120,956.1,120,958.9z M112.6,959c0,2.1,1.2,3.6,2.9,3.6c1.6,0,2.9-1.5,2.9-3.6c0-1.6-0.8-3.6-2.8-3.6
		S112.6,957.2,112.6,959L112.6,959z M114.8,950.2l1.7,2.8h-1.2l-2.4-2.8L114.8,950.2z"/>
	<path class="st9" d="M122.2,957.4c0-1.2,0-2.2-0.1-3.1h1.5l0.1,1.6h0c0.7-1.2,2-1.9,3.3-1.8c2.3,0,4,1.9,4,4.8c0,3.4-2.1,5-4.3,5
		c-1.2,0.1-2.3-0.5-2.9-1.5h0v5.1h-1.7L122.2,957.4z M123.8,959.9c0,0.2,0,0.5,0.1,0.7c0.3,1.2,1.3,2,2.6,2c1.8,0,2.9-1.5,2.9-3.6
		c0-1.9-1-3.5-2.8-3.5c-1.2,0-2.3,0.9-2.6,2.1c-0.1,0.2-0.1,0.5-0.1,0.7L123.8,959.9z"/>
	<path class="st9" d="M135.1,951.7c0,0.6-0.5,1.1-1.1,1c-0.6,0-1-0.5-1-1c0-0.6,0.4-1.1,1-1.1c0,0,0,0,0.1,0
		C134.6,950.6,135.1,951,135.1,951.7C135.1,951.6,135.1,951.6,135.1,951.7z M133.2,963.7v-9.4h1.7v9.4H133.2z"/>
	<path class="st9" d="M142.9,963.7l-0.1-1.2h-0.1c-0.7,0.9-1.7,1.4-2.9,1.4c-1.5,0.1-2.8-1-2.9-2.5c0-0.1,0-0.1,0-0.2
		c0-2.3,2-3.5,5.6-3.5v-0.2c0.1-1.1-0.6-2-1.7-2.2c-0.2,0-0.3,0-0.5,0c-0.9,0-1.7,0.2-2.4,0.7l-0.4-1.1c0.9-0.6,2-0.8,3.1-0.8
		c2.9,0,3.6,2,3.6,3.8v3.5c0,0.8,0,1.5,0.2,2.3L142.9,963.7z M142.7,958.9c-1.9,0-4,0.3-4,2.1c-0.1,0.8,0.6,1.6,1.4,1.6
		c0.1,0,0.2,0,0.2,0c1,0,1.9-0.6,2.3-1.6c0.1-0.2,0.1-0.4,0.1-0.5L142.7,958.9z"/>
	<path class="st9" d="M164.9,949.9v11.4c0,0.8,0,1.8,0.1,2.4h-1.5l-0.1-1.6h0c-0.6,1.2-1.9,1.9-3.2,1.8c-2.3,0-4-1.9-4-4.8
		c0-3.1,1.9-5,4.2-5c1.1-0.1,2.2,0.5,2.8,1.4h0v-5.6H164.9z M163.2,958.1c0-0.2,0-0.5-0.1-0.7c-0.3-1.2-1.3-2-2.5-2
		c-1.8,0-2.8,1.6-2.8,3.6c0,1.9,0.9,3.5,2.8,3.5c1.2,0,2.3-0.9,2.5-2c0.1-0.2,0.1-0.5,0.1-0.7L163.2,958.1z"/>
	<path class="st9" d="M168.7,959.3c-0.1,1.7,1.1,3.1,2.7,3.3c0.2,0,0.3,0,0.5,0c0.9,0,1.8-0.1,2.6-0.5l0.3,1.2
		c-1,0.4-2.1,0.6-3.1,0.6c-2.4,0.2-4.5-1.7-4.6-4.1c0-0.2,0-0.4,0-0.7c0-2.8,1.7-5.1,4.4-5.1c3.1,0,3.9,2.7,3.9,4.4
		c0,0.3,0,0.5-0.1,0.8L168.7,959.3z M173.7,958.1c0-1.1-0.4-2.8-2.4-2.8c-1.5,0.1-2.6,1.3-2.6,2.8H173.7z"/>
	<path class="st9" d="M177.5,949.9h1.7v13.8h-1.7V949.9z"/>
	<path class="st9" d="M191.8,950.6h1.7v11.7h5.6v1.4h-7.3L191.8,950.6z"/>
	<path class="st9" d="M203.1,959.6l-1.4,4.1H200l4.4-13.1h2l4.5,13.1h-1.8l-1.4-4.1H203.1z M207.4,958.3l-1.3-3.8
		c-0.3-0.9-0.5-1.6-0.7-2.4h0c-0.2,0.8-0.4,1.6-0.7,2.4l-1.3,3.8L207.4,958.3z"/>
	<path class="st9" d="M212.8,950.8c1-0.2,2.1-0.3,3.1-0.3c1.3-0.1,2.5,0.2,3.6,1c0.7,0.5,1.1,1.4,1.1,2.3c0,1.3-0.9,2.5-2.2,2.9v0
		c1.6,0.3,2.7,1.7,2.7,3.3c0,1-0.4,1.9-1.1,2.6c-0.9,0.8-2.4,1.2-4.5,1.2c-0.9,0-1.8,0-2.6-0.2L212.8,950.8z M214.5,956.1h1.5
		c1.8,0,2.8-0.9,2.8-2.2c0-1.5-1.2-2.1-2.9-2.1c-0.5,0-1,0-1.5,0.1V956.1z M214.5,962.4c0.5,0.1,0.9,0.1,1.4,0.1
		c1.7,0,3.4-0.6,3.4-2.5c0-1.8-1.5-2.5-3.4-2.5h-1.4L214.5,962.4z"/>
	<path class="st9" d="M225.4,951.6v2.7h2.4v1.3h-2.4v5.1c0,1.2,0.3,1.8,1.3,1.8c0.3,0,0.7,0,1-0.1l0.1,1.3c-0.5,0.2-1,0.2-1.5,0.2
		c-0.7,0-1.4-0.2-1.8-0.7c-0.5-0.7-0.8-1.6-0.7-2.4v-5.1h-1.5v-1.3h1.5v-2.3L225.4,951.6z"/>
	<path class="st9" d="M237.6,961.1c0,1,0,1.8,0.1,2.6h-1.5l-0.1-1.5h0c-0.6,1.1-1.8,1.8-3.1,1.7c-1.5,0-3.2-0.8-3.2-4.1v-5.5h1.7
		v5.2c0,1.8,0.5,3,2.1,3c1,0,1.9-0.6,2.3-1.6c0.1-0.3,0.2-0.6,0.2-0.9v-5.8h1.7L237.6,961.1z"/>
	<path class="st9" d="M240.4,957.2c0-1.1,0-2.1-0.1-2.9h1.5l0.1,1.8h0.1c0.3-1.2,1.4-2,2.6-2.1c0.2,0,0.3,0,0.5,0.1v1.6
		c-0.2,0-0.4-0.1-0.6-0.1c-1.2,0-2.2,1-2.3,2.2c0,0.3-0.1,0.5-0.1,0.8v5h-1.7L240.4,957.2z"/>
	<path class="st9" d="M248.7,951.7c0,0.6-0.5,1.1-1.1,1.1c-0.6,0-1.1-0.5-1.1-1.1c0-0.6,0.4-1.1,1-1.1c0,0,0,0,0.1,0
		C248.2,950.6,248.7,951,248.7,951.7C248.7,951.6,248.7,951.6,248.7,951.7z M246.8,963.7v-9.4h1.7v9.4H246.8z"/>
	<path class="st9" d="M251.1,962c0.7,0.4,1.5,0.7,2.3,0.7c1.2,0,1.8-0.6,1.8-1.4c0-0.8-0.5-1.3-1.7-1.7c-1.7-0.6-2.5-1.5-2.5-2.7
		c0-1.5,1.2-2.8,3.2-2.8c0.8,0,1.6,0.2,2.3,0.6l-0.4,1.2c-0.6-0.4-1.2-0.5-1.9-0.5c-1,0-1.6,0.6-1.6,1.3c0,0.8,0.6,1.1,1.8,1.6
		c1.6,0.6,2.5,1.4,2.5,2.8c0,1.6-1.3,2.8-3.5,2.8c-0.9,0-1.8-0.2-2.6-0.6L251.1,962z"/>
	<path class="st9" d="M259.1,956.8c0-1,0-1.8-0.1-2.5h1.5l0.1,1.5h0.1c0.6-1.1,1.7-1.8,3-1.7c1.2,0,2.3,0.7,2.7,1.9h0
		c0.3-0.5,0.6-0.9,1-1.2c0.6-0.5,1.3-0.7,2.1-0.7c1.2,0,3.1,0.8,3.1,4.1v5.5h-1.7v-5.3c0-1.8-0.7-2.9-2-2.9c-0.9,0-1.7,0.7-2,1.6
		c-0.1,0.3-0.1,0.6-0.1,0.9v5.8h-1.7v-5.6c0-1.5-0.7-2.6-2-2.6c-1.3,0.2-2.3,1.2-2.3,2.5v5.7h-1.7L259.1,956.8z"/>
	<path class="st9" d="M276.2,959.3c-0.1,1.7,1.1,3.1,2.7,3.3c0.2,0,0.3,0,0.5,0c0.9,0,1.8-0.1,2.6-0.5l0.3,1.2
		c-1,0.4-2.1,0.6-3.1,0.6c-2.4,0.2-4.5-1.7-4.6-4.1c0-0.2,0-0.4,0-0.7c0-2.8,1.7-5.1,4.4-5.1c3.1,0,3.9,2.7,3.9,4.4
		c0,0.3,0,0.5-0.1,0.8L276.2,959.3z M281.2,958.1c0-1.1-0.4-2.8-2.4-2.8c-1.5,0.1-2.6,1.3-2.6,2.8H281.2z"/>
	<path class="st9" d="M284.6,966.9v-0.4c0.5-0.2,1-0.5,1.4-0.9c0.4-0.4,0.6-1,0.6-1.5l-0.1-0.3l-0.1-0.1l-0.8,0.3
		c-0.7,0-1-0.4-1-1.1c0-0.3,0.1-0.6,0.4-0.8c0.2-0.2,0.5-0.3,0.9-0.3c0.5,0,0.9,0.3,1.2,0.7c0.3,0.4,0.4,0.9,0.4,1.3
		C287.4,965.3,286.5,966.3,284.6,966.9z"/>
	<path class="st9" d="M300.5,959.3c-0.1,1.7,1.1,3.1,2.7,3.3c0.2,0,0.3,0,0.5,0c0.9,0,1.8-0.1,2.6-0.5l0.3,1.2
		c-1,0.4-2.1,0.6-3.1,0.6c-2.4,0.2-4.5-1.7-4.6-4.1c0-0.2,0-0.4,0-0.7c0-2.8,1.7-5.1,4.4-5.1c3.1,0,3.9,2.7,3.9,4.4
		c0,0.3,0,0.5-0.1,0.8L300.5,959.3z M305.5,958.1c0-1.1-0.4-2.8-2.4-2.8c-1.5,0.1-2.6,1.3-2.6,2.8H305.5z"/>
	<path class="st9" d="M309.2,956.8c0-1,0-1.8-0.1-2.5h1.5l0.1,1.6h0c0.6-1.1,1.8-1.8,3.1-1.8c1.3,0,3.3,0.8,3.3,4v5.6h-1.7v-5.4
		c0-1.5-0.6-2.8-2.2-2.8c-1.1,0-2,0.7-2.3,1.7c-0.1,0.3-0.1,0.5-0.1,0.8v5.6h-1.7V956.8z"/>
	<path class="st9" d="M329.6,963.7c0-0.6,0.1-1.6,0.1-2.4v-11.4h1.7v5.9h0c0.7-1.1,1.9-1.8,3.2-1.7c2.3,0,4,1.9,4,4.8
		c0,3.4-2.1,5-4.2,5c-1.3,0.1-2.5-0.6-3.1-1.8h-0.1l-0.1,1.6L329.6,963.7z M331.4,959.9c0,0.2,0,0.4,0.1,0.6c0.3,1.2,1.3,2,2.6,2
		c1.8,0,2.9-1.5,2.9-3.6c0-1.9-1-3.5-2.8-3.5c-1.2,0-2.3,0.9-2.6,2.1c-0.1,0.2-0.1,0.5-0.1,0.7L331.4,959.9z"/>
	<path class="st9" d="M346,963.7l-0.1-1.2h-0.1c-0.7,0.9-1.7,1.4-2.9,1.4c-1.5,0.1-2.8-1-2.9-2.5c0-0.1,0-0.1,0-0.2
		c0-2.3,2-3.5,5.6-3.5v-0.2c0.1-1.1-0.6-2-1.7-2.2c-0.2,0-0.3,0-0.5,0c-0.9,0-1.7,0.2-2.4,0.7l-0.4-1.1c0.9-0.6,2-0.8,3.1-0.8
		c2.9,0,3.6,2,3.6,3.8v3.5c0,0.8,0,1.5,0.2,2.3L346,963.7z M345.7,958.9c-1.9,0-4,0.3-4,2.1c-0.1,0.8,0.6,1.6,1.4,1.6
		c0.1,0,0.2,0,0.2,0c1,0,1.9-0.6,2.3-1.6c0.1-0.2,0.1-0.4,0.1-0.5L345.7,958.9z"/>
	<path class="st9" d="M349.9,962c0.7,0.4,1.5,0.7,2.3,0.7c1.2,0,1.8-0.6,1.8-1.4c0-0.8-0.5-1.3-1.7-1.7c-1.7-0.6-2.5-1.5-2.5-2.7
		c0-1.5,1.2-2.8,3.2-2.8c0.8,0,1.6,0.2,2.3,0.6l-0.4,1.2c-0.6-0.4-1.2-0.5-1.9-0.5c-1,0-1.6,0.6-1.6,1.3c0,0.8,0.6,1.1,1.8,1.6
		c1.6,0.6,2.5,1.4,2.5,2.8c0,1.6-1.3,2.8-3.5,2.8c-0.9,0-1.8-0.2-2.6-0.6L349.9,962z"/>
	<path class="st9" d="M358.7,959.3c-0.1,1.7,1.1,3.1,2.7,3.3c0.2,0,0.3,0,0.5,0c0.9,0,1.8-0.1,2.6-0.5l0.3,1.2
		c-1,0.4-2.1,0.6-3.1,0.6c-2.4,0.2-4.5-1.7-4.6-4.1c0-0.2,0-0.4,0-0.7c0-2.8,1.7-5.1,4.4-5.1c3.1,0,3.9,2.7,3.9,4.4
		c0,0.3,0,0.5-0.1,0.8L358.7,959.3z M363.8,958.1c0-1.1-0.4-2.8-2.4-2.8c-1.5,0.1-2.6,1.3-2.6,2.8H363.8z"/>
	<path class="st9" d="M382.4,963.7l-0.1-1.2h-0.1c-0.7,0.9-1.7,1.4-2.9,1.4c-1.5,0.1-2.8-1-2.9-2.5c0-0.1,0-0.1,0-0.2
		c0-2.3,2-3.5,5.6-3.5v-0.2c0.1-1.1-0.6-2-1.7-2.2c-0.2,0-0.3,0-0.5,0c-0.9,0-1.7,0.2-2.4,0.7l-0.4-1.1c0.9-0.6,2-0.8,3.1-0.8
		c2.9,0,3.6,2,3.6,3.8v3.5c0,0.8,0,1.5,0.2,2.3L382.4,963.7z M382.2,958.9c-1.9,0-4,0.3-4,2.1c-0.1,0.8,0.6,1.6,1.4,1.6
		c0.1,0,0.2,0,0.2,0c1,0,1.9-0.6,2.3-1.6c0.1-0.2,0.1-0.4,0.1-0.5V958.9z"/>
	<path class="st9" d="M404.4,949.9v11.4c0,0.8,0,1.8,0.1,2.4h-1.5l-0.1-1.6h0c-0.6,1.2-1.9,1.9-3.2,1.8c-2.3,0-4-1.9-4-4.8
		c0-3.1,1.9-5,4.2-5c1.1-0.1,2.2,0.5,2.8,1.4h0v-5.6H404.4z M402.7,958.1c0-0.2,0-0.5-0.1-0.7c-0.3-1.2-1.3-2-2.5-2
		c-1.8,0-2.8,1.6-2.8,3.6c0,1.9,0.9,3.5,2.8,3.5c1.2,0,2.3-0.9,2.5-2c0.1-0.2,0.1-0.5,0.1-0.7L402.7,958.1z"/>
	<path class="st9" d="M412.4,963.7l-0.1-1.2h-0.1c-0.7,0.9-1.7,1.4-2.9,1.4c-1.5,0.1-2.8-1-2.9-2.5c0-0.1,0-0.1,0-0.2
		c0-2.3,2-3.5,5.6-3.5v-0.2c0.1-1.1-0.6-2-1.7-2.2c-0.2,0-0.3,0-0.5,0c-0.9,0-1.7,0.2-2.4,0.7l-0.4-1.1c0.9-0.6,2-0.8,3.1-0.8
		c2.9,0,3.6,2,3.6,3.8v3.5c0,0.8,0,1.5,0.2,2.3L412.4,963.7z M412.2,958.9c-1.9,0-4,0.3-4,2.1c-0.1,0.8,0.6,1.6,1.4,1.6
		c0.1,0,0.2,0,0.2,0c1,0,1.9-0.6,2.3-1.6c0.1-0.2,0.1-0.4,0.1-0.5V958.9z"/>
	<path class="st9" d="M424.7,949.9v11.4c0,0.8,0,1.8,0.1,2.4h-1.5l-0.1-1.6h0c-0.6,1.2-1.9,1.9-3.2,1.8c-2.3,0-4-1.9-4-4.8
		c0-3.1,1.9-5,4.2-5c1.1-0.1,2.2,0.5,2.8,1.4h0v-5.6H424.7z M423,958.1c0-0.2,0-0.5-0.1-0.7c-0.3-1.2-1.3-2-2.5-2
		c-1.8,0-2.8,1.6-2.8,3.6c0,1.9,0.9,3.5,2.8,3.5c1.2,0,2.3-0.9,2.5-2c0.1-0.2,0.1-0.5,0.1-0.7V958.1z"/>
	<path class="st9" d="M428.5,959.3c-0.1,1.7,1.1,3.1,2.7,3.3c0.2,0,0.3,0,0.5,0c0.9,0,1.8-0.1,2.6-0.5l0.3,1.2
		c-1,0.4-2.1,0.6-3.1,0.6c-2.4,0.2-4.5-1.7-4.6-4.1c0-0.2,0-0.4,0-0.7c0-2.8,1.7-5.1,4.4-5.1c3.1,0,3.9,2.7,3.9,4.4
		c0,0.3,0,0.5-0.1,0.8L428.5,959.3z M433.5,958.1c0-1.1-0.4-2.8-2.4-2.8c-1.5,0.1-2.6,1.3-2.6,2.8H433.5z"/>
	<path class="st9" d="M437,962c0.7,0.4,1.5,0.7,2.3,0.7c1.2,0,1.8-0.6,1.8-1.4c0-0.8-0.5-1.3-1.7-1.7c-1.7-0.6-2.5-1.5-2.5-2.7
		c0-1.5,1.2-2.8,3.2-2.8c0.8,0,1.6,0.2,2.3,0.6l-0.4,1.2c-0.6-0.4-1.2-0.5-1.9-0.5c-1,0-1.6,0.6-1.6,1.3c0,0.8,0.6,1.1,1.8,1.6
		c1.6,0.6,2.5,1.4,2.5,2.8c0,1.6-1.3,2.8-3.5,2.8c-0.9,0-1.8-0.2-2.6-0.6L437,962z"/>
	<path class="st9" d="M462.7,949.9v11.4c0,0.8,0,1.8,0.1,2.4h-1.5l-0.1-1.6h0c-0.6,1.2-1.9,1.9-3.2,1.8c-2.3,0-4-1.9-4-4.8
		c0-3.1,1.9-5,4.2-5c1.1-0.1,2.2,0.5,2.8,1.4h0v-5.6H462.7z M461,958.1c0-0.2,0-0.5-0.1-0.7c-0.3-1.2-1.3-2-2.5-2
		c-1.8,0-2.8,1.6-2.8,3.6c0,1.9,0.9,3.5,2.8,3.5c1.2,0,2.3-0.9,2.5-2c0.1-0.2,0.1-0.5,0.1-0.7L461,958.1z"/>
	<path class="st9" d="M466.5,959.3c-0.1,1.7,1.1,3.1,2.7,3.3c0.2,0,0.3,0,0.5,0c0.9,0,1.8-0.1,2.6-0.5l0.3,1.2
		c-1,0.4-2.1,0.6-3.1,0.6c-2.4,0.2-4.5-1.7-4.6-4.1c0-0.2,0-0.4,0-0.7c0-2.8,1.7-5.1,4.4-5.1c3.1,0,3.9,2.7,3.9,4.4
		c0,0.3,0,0.5-0.1,0.8L466.5,959.3z M471.5,958.1c0-1.1-0.4-2.8-2.4-2.8c-1.5,0.1-2.6,1.3-2.6,2.8H471.5z"/>
	<path class="st9" d="M485,949.9h1.7v13.8H485V949.9z"/>
	<path class="st9" d="M490.8,950.4l-0.3,4.7h-1l-0.3-4.7H490.8z"/>
	<path class="st9" d="M500.1,957.6H495v4.7h5.7v1.4h-7.4v-13.1h7.1v1.4H495v4.1h5.1L500.1,957.6z"/>
	<path class="st9" d="M502.8,956.8c0-1,0-1.8-0.1-2.5h1.5l0.1,1.6h0c0.6-1.1,1.8-1.8,3.1-1.8c1.3,0,3.3,0.8,3.3,4v5.6h-1.7v-5.4
		c0-1.5-0.6-2.8-2.2-2.8c-1.1,0-2,0.7-2.3,1.7c-0.1,0.3-0.1,0.5-0.1,0.8v5.6h-1.7L502.8,956.8z"/>
	<path class="st9" d="M519.9,962.2L519.9,962.2c-0.7,1.1-1.9,1.7-3.1,1.7c-2.2,0-4-1.9-4-4.8c0-3.5,2.3-5.1,4.3-5.1
		c1.2-0.1,2.3,0.6,2.9,1.6h0l0.1-1.4h1.6c0,0.8-0.1,1.6-0.1,2.6v10.7h-1.7V962.2z M519.9,958.1c0-0.2,0-0.5-0.1-0.7
		c-0.3-1.1-1.3-1.9-2.4-1.9c-1.8,0-2.8,1.5-2.8,3.6c0,1.9,0.9,3.5,2.8,3.5c1.1,0,2.1-0.8,2.4-1.9c0.1-0.3,0.1-0.5,0.1-0.8V958.1z"/>
	<path class="st9" d="M532.3,961.1c0,1,0,1.8,0.1,2.6h-1.5l-0.1-1.5h0c-0.6,1.1-1.8,1.8-3.1,1.7c-1.5,0-3.2-0.8-3.2-4.1v-5.5h1.7
		v5.2c0,1.8,0.5,3,2.1,3c1,0,1.9-0.6,2.3-1.6c0.1-0.3,0.2-0.6,0.2-0.9v-5.8h1.7L532.3,961.1z"/>
	<path class="st9" d="M536.1,959.3c-0.1,1.7,1.1,3.1,2.7,3.3c0.2,0,0.3,0,0.5,0c0.9,0,1.8-0.1,2.6-0.5l0.3,1.2
		c-1,0.4-2.1,0.6-3.1,0.6c-2.4,0.2-4.5-1.7-4.6-4.1c0-0.2,0-0.4,0-0.7c0-2.8,1.7-5.1,4.4-5.1c3.1,0,3.9,2.7,3.9,4.4
		c0,0.3,0,0.5-0.1,0.8L536.1,959.3z M541.1,958.1c0-1.1-0.4-2.8-2.4-2.8c-1.5,0.1-2.6,1.3-2.6,2.8H541.1z"/>
	<path class="st9" d="M544.6,962c0.7,0.4,1.5,0.7,2.3,0.7c1.2,0,1.8-0.6,1.8-1.4c0-0.8-0.5-1.3-1.7-1.7c-1.7-0.6-2.5-1.5-2.5-2.7
		c0-1.5,1.2-2.8,3.2-2.8c0.8,0,1.6,0.2,2.3,0.6l-0.4,1.2c-0.6-0.4-1.2-0.5-1.9-0.5c-1,0-1.6,0.6-1.6,1.3c0,0.8,0.6,1.1,1.8,1.6
		c1.6,0.6,2.5,1.4,2.5,2.8c0,1.6-1.3,2.8-3.5,2.8c-0.9,0-1.8-0.2-2.6-0.6L544.6,962z"/>
	<path class="st9" d="M554.6,951.6v2.7h2.4v1.3h-2.4v5.1c0,1.2,0.3,1.8,1.3,1.8c0.3,0,0.7,0,1-0.1l0.1,1.3c-0.5,0.2-1,0.2-1.5,0.2
		c-0.7,0-1.4-0.2-1.8-0.7c-0.5-0.7-0.8-1.6-0.7-2.4v-5.1h-1.5v-1.3h1.5v-2.3L554.6,951.6z"/>
	<path class="st9" d="M564.2,963.7l-0.1-1.2H564c-0.7,0.9-1.7,1.4-2.9,1.4c-1.5,0.1-2.8-1-2.9-2.5c0-0.1,0-0.1,0-0.2
		c0-2.3,2-3.5,5.6-3.5v-0.2c0.1-1.1-0.6-2-1.7-2.2c-0.2,0-0.3,0-0.5,0c-0.9,0-1.7,0.2-2.4,0.7l-0.4-1.1c0.9-0.6,2-0.8,3.1-0.8
		c2.9,0,3.6,2,3.6,3.8v3.5c0,0.8,0,1.5,0.2,2.3L564.2,963.7z M563.9,958.9c-1.9,0-4,0.3-4,2.1c-0.1,0.8,0.6,1.6,1.4,1.6
		c0.1,0,0.2,0,0.2,0c1,0,1.9-0.6,2.3-1.6c0.1-0.2,0.1-0.4,0.1-0.5V958.9z"/>
	<path class="st9" d="M586.2,949.9v11.4c0,0.8,0,1.8,0.1,2.4h-1.5l-0.1-1.6h0c-0.6,1.2-1.9,1.9-3.2,1.8c-2.3,0-4-1.9-4-4.8
		c0-3.1,1.9-5,4.2-5c1.1-0.1,2.2,0.5,2.8,1.4h0v-5.6H586.2z M584.4,958.1c0-0.2,0-0.5-0.1-0.7c-0.3-1.2-1.3-2-2.5-2
		c-1.8,0-2.8,1.6-2.8,3.6c0,1.9,0.9,3.5,2.8,3.5c1.2,0,2.3-0.9,2.5-2c0.1-0.2,0.1-0.5,0.1-0.7V958.1z"/>
	<path class="st9" d="M590.3,950.4l-0.3,4.7h-1l-0.3-4.7H590.3z"/>
	<path class="st9" d="M601,958.9c0.2,2.5-1.7,4.8-4.2,5c-0.2,0-0.3,0-0.5,0c-2.5,0-4.5-1.9-4.5-4.8c0-3.1,2.1-5,4.7-5
		C599.2,954.1,601,956.1,601,958.9z M593.5,959c0,2.1,1.2,3.6,2.9,3.6c1.6,0,2.9-1.5,2.9-3.6c0-1.6-0.8-3.6-2.8-3.6
		S593.5,957.2,593.5,959L593.5,959z"/>
	<path class="st9" d="M609.8,963.3c-0.8,0.4-1.8,0.6-2.7,0.5c-2.5,0.1-4.6-1.8-4.7-4.2c0-0.2,0-0.4,0-0.6c-0.1-2.6,1.9-4.9,4.5-5
		c0.2,0,0.3,0,0.5,0c0.8,0,1.6,0.2,2.4,0.5l-0.4,1.3c-0.6-0.3-1.3-0.5-2-0.4c-2,0.1-3.4,1.8-3.3,3.8c0.1,1.8,1.5,3.2,3.3,3.3
		c0.7,0,1.4-0.2,2.1-0.5L609.8,963.3z"/>
	<path class="st9" d="M619.7,961.1c0,1,0,1.8,0.1,2.6h-1.5l-0.1-1.5h0c-0.6,1.1-1.8,1.8-3.1,1.7c-1.5,0-3.2-0.8-3.2-4.1v-5.5h1.7
		v5.2c0,1.8,0.5,3,2.1,3c1,0,1.9-0.6,2.3-1.6c0.1-0.3,0.2-0.6,0.2-0.9v-5.8h1.7L619.7,961.1z"/>
	<path class="st9" d="M622.5,957.4c0-1.2,0-2.2-0.1-3.1h1.5l0.1,1.6h0c0.7-1.2,2-1.9,3.3-1.8c2.3,0,4,1.9,4,4.8c0,3.4-2.1,5-4.3,5
		c-1.2,0.1-2.3-0.5-2.9-1.5h0v5.1h-1.7L622.5,957.4z M624.2,959.9c0,0.2,0,0.5,0.1,0.7c0.3,1.2,1.3,2,2.6,2c1.8,0,2.9-1.5,2.9-3.6
		c0-1.9-1-3.5-2.8-3.5c-1.2,0-2.3,0.9-2.6,2.1c-0.1,0.2-0.1,0.5-0.1,0.7V959.9z"/>
	<path class="st9" d="M638.8,963.7l-0.1-1.2h-0.1c-0.7,0.9-1.7,1.4-2.9,1.4c-1.5,0.1-2.8-1-2.9-2.5c0-0.1,0-0.1,0-0.2
		c0-2.3,2-3.5,5.6-3.5v-0.2c0.1-1.1-0.6-2-1.7-2.2c-0.2,0-0.3,0-0.5,0c-0.9,0-1.7,0.2-2.4,0.7l-0.4-1.1c0.9-0.6,2-0.8,3.1-0.8
		c2.9,0,3.6,2,3.6,3.8v3.5c0,0.8,0,1.5,0.2,2.3L638.8,963.7z M638.5,958.9c-1.9,0-4,0.3-4,2.1c-0.1,0.8,0.6,1.6,1.4,1.6
		c0.1,0,0.2,0,0.2,0c1,0,1.9-0.6,2.3-1.6c0.1-0.2,0.1-0.4,0.1-0.5V958.9z"/>
	<path class="st9" d="M649.6,963.3c-0.8,0.4-1.8,0.6-2.7,0.5c-2.5,0.1-4.6-1.8-4.7-4.2c0-0.2,0-0.4,0-0.6c-0.1-2.6,1.9-4.9,4.5-5
		c0.2,0,0.3,0,0.5,0c0.8,0,1.6,0.2,2.4,0.5l-0.4,1.3c-0.6-0.3-1.3-0.5-2-0.4c-2,0.1-3.4,1.8-3.3,3.8c0.1,1.8,1.5,3.2,3.3,3.3
		c0.7,0,1.4-0.2,2.1-0.5L649.6,963.3z"/>
	<path class="st9" d="M653.5,951.7c0,0.6-0.5,1.1-1.1,1.1s-1.1-0.5-1.1-1.1l0,0c0-0.6,0.4-1.1,1-1.1c0,0,0,0,0.1,0
		C653,950.6,653.5,951,653.5,951.7C653.5,951.6,653.5,951.6,653.5,951.7z M651.6,963.7v-9.4h1.7v9.4H651.6z"/>
	<path class="st9" d="M664.7,958.9c0.2,2.5-1.6,4.8-4.2,5c-0.2,0-0.3,0-0.5,0c-2.5,0-4.5-1.9-4.5-4.8c0-3.1,2.1-5,4.7-5
		C662.8,954.1,664.7,956.1,664.7,958.9z M657.2,959c0,2.1,1.2,3.6,2.9,3.6c1.6,0,2.9-1.5,2.9-3.6c0-1.6-0.8-3.6-2.8-3.6
		C658.1,955.4,657.2,957.2,657.2,959L657.2,959z M662.6,950.2l-2.4,2.8H659l1.7-2.8H662.6z"/>
	<path class="st9" d="M677.5,959.3c-0.1,1.7,1.1,3.1,2.7,3.3c0.2,0,0.3,0,0.5,0c0.9,0,1.8-0.1,2.6-0.5l0.3,1.2
		c-1,0.4-2.1,0.6-3.1,0.6c-2.4,0.2-4.5-1.7-4.6-4.1c0-0.2,0-0.4,0-0.7c0-2.8,1.7-5.1,4.4-5.1c3.1,0,3.9,2.7,3.9,4.4
		c0,0.3,0,0.5-0.1,0.8L677.5,959.3z M682.5,958.1c0-1.1-0.4-2.8-2.4-2.8c-1.5,0.1-2.6,1.3-2.6,2.8H682.5z"/>
	<path class="st9" d="M686.2,956.8c0-1,0-1.8-0.1-2.5h1.5l0.1,1.6h0c0.6-1.1,1.8-1.8,3.1-1.8c1.3,0,3.3,0.8,3.3,4v5.6h-1.7v-5.4
		c0-1.5-0.6-2.8-2.2-2.8c-1.1,0-2,0.7-2.3,1.7c-0.1,0.3-0.1,0.5-0.1,0.8v5.6h-1.7L686.2,956.8z"/>
	<path class="st9" d="M711.9,963.7l-0.1-1.2h-0.1c-0.7,0.9-1.7,1.4-2.9,1.4c-1.5,0.1-2.8-1-2.9-2.5c0-0.1,0-0.2,0-0.2
		c0-2.3,2-3.5,5.6-3.5v-0.2c0.1-1.1-0.6-2-1.7-2.2c-0.2,0-0.3,0-0.5,0c-0.9,0-1.7,0.2-2.4,0.7l-0.4-1.1c0.9-0.6,2-0.8,3.1-0.8
		c2.9,0,3.6,2,3.6,3.8v3.5c0,0.8,0,1.5,0.2,2.3L711.9,963.7z M711.7,958.9c-1.9,0-4,0.3-4,2.1c-0.1,0.8,0.6,1.6,1.4,1.6
		c0.1,0,0.2,0,0.2,0c1,0,1.9-0.6,2.3-1.6c0.1-0.2,0.1-0.4,0.1-0.5L711.7,958.9z"/>
	<path class="st9" d="M716.1,949.9h1.7v13.8h-1.7V949.9z"/>
	<path class="st9" d="M720.6,949.9h1.7v13.8h-1.7V949.9z"/>
	<path class="st9" d="M733.7,958.9c0.2,2.5-1.6,4.8-4.2,5c-0.2,0-0.3,0-0.5,0c-2.5,0-4.5-1.9-4.5-4.8c0-3.1,2.1-5,4.7-5
		C731.9,954.1,733.7,956.1,733.7,958.9z M726.3,959c0,2.1,1.2,3.6,2.9,3.6c1.6,0,2.9-1.5,2.9-3.6c0-1.6-0.8-3.6-2.8-3.6
		C727.1,955.4,726.3,957.2,726.3,959L726.3,959z"/>
	<path class="st9" d="M737.9,951.6v2.7h2.4v1.3h-2.4v5.1c0,1.2,0.3,1.8,1.3,1.8c0.3,0,0.7,0,1-0.1l0.1,1.3c-0.5,0.2-1,0.2-1.5,0.2
		c-0.7,0-1.4-0.2-1.8-0.7c-0.5-0.7-0.8-1.6-0.7-2.4v-5.1h-1.5v-1.3h1.5v-2.3L737.9,951.6z"/>
	<path class="st9" d="M740,966.4c0.7,0,1.4-0.3,1.9-0.7c0.5-0.5,0.6-1.3,0.6-3.5v-7.9h1.7v8.5c0,1.8-0.3,3-1.1,3.9
		c-0.8,0.7-1.8,1.1-2.9,1.1L740,966.4z M744.4,951.7c0,0.6-0.4,1-1,1c0,0-0.1,0-0.1,0c-0.6,0-1-0.4-1-1c0,0,0,0,0-0.1
		c0-0.6,0.4-1.1,1-1.1c0,0,0,0,0.1,0C743.9,950.6,744.4,951,744.4,951.7C744.4,951.6,744.4,951.6,744.4,951.7L744.4,951.7z"/>
	<path class="st9" d="M752.2,963.7l-0.1-1.2H752c-0.7,0.9-1.7,1.4-2.9,1.4c-1.5,0.1-2.8-1-2.9-2.5c0-0.1,0-0.2,0-0.2
		c0-2.3,2-3.5,5.6-3.5v-0.2c0.1-1.1-0.6-2-1.7-2.2c-0.2,0-0.3,0-0.5,0c-0.9,0-1.7,0.2-2.4,0.7l-0.4-1.1c0.9-0.6,2-0.8,3.1-0.8
		c2.9,0,3.6,2,3.6,3.8v3.5c0,0.8,0,1.5,0.2,2.3L752.2,963.7z M752,958.9c-1.9,0-4,0.3-4,2.1c-0.1,0.8,0.6,1.6,1.4,1.6
		c0.1,0,0.2,0,0.2,0c1,0,1.9-0.6,2.3-1.6c0.1-0.2,0.1-0.4,0.1-0.5L752,958.9z"/>
	<path class="st9" d="M756.4,956.8c0-1,0-1.8-0.1-2.5h1.5l0.1,1.5h0.1c0.6-1.1,1.7-1.8,3-1.7c1.2,0,2.3,0.7,2.7,1.9h0
		c0.3-0.5,0.6-0.9,1-1.2c0.6-0.5,1.3-0.7,2.1-0.7c1.2,0,3.1,0.8,3.1,4.1v5.5h-1.7v-5.3c0-1.8-0.7-2.9-2-2.9c-0.9,0-1.7,0.7-2,1.6
		c-0.1,0.3-0.1,0.6-0.1,0.9v5.8h-1.7v-5.6c0-1.5-0.7-2.6-2-2.6c-1,0.1-1.8,0.7-2.1,1.7c-0.1,0.3-0.1,0.6-0.1,0.8v5.7h-1.7
		L756.4,956.8z"/>
	<path class="st9" d="M773.5,959.3c-0.1,1.7,1.1,3.1,2.7,3.3c0.2,0,0.3,0,0.5,0c0.9,0,1.8-0.1,2.6-0.5l0.3,1.2
		c-1,0.4-2.1,0.6-3.1,0.6c-2.4,0.2-4.5-1.7-4.6-4.1c0-0.2,0-0.4,0-0.7c0-2.8,1.7-5.1,4.4-5.1c3.1,0,3.9,2.7,3.9,4.4
		c0,0.3,0,0.5-0.1,0.8L773.5,959.3z M778.5,958.1c0-1.1-0.4-2.8-2.4-2.8c-1.5,0.1-2.6,1.3-2.6,2.8H778.5z"/>
	<path class="st9" d="M782.3,956.8c0-1,0-1.8-0.1-2.5h1.5l0.1,1.6h0c0.6-1.1,1.8-1.8,3.1-1.8c1.3,0,3.3,0.8,3.3,4v5.6h-1.7v-5.4
		c0-1.5-0.6-2.8-2.2-2.8c-1.1,0-2,0.7-2.3,1.7c-0.1,0.3-0.1,0.5-0.1,0.8v5.6h-1.7L782.3,956.8z"/>
	<path class="st9" d="M795,951.6v2.7h2.4v1.3H795v5.1c0,1.2,0.3,1.8,1.3,1.8c0.3,0,0.7,0,1-0.1l0.1,1.3c-0.5,0.2-1,0.2-1.5,0.2
		c-0.7,0-1.4-0.2-1.8-0.7c-0.5-0.7-0.8-1.6-0.7-2.4v-5.1h-1.5v-1.3h1.5v-2.3L795,951.6z"/>
	<path class="st9" d="M799.1,962c0.7,0.4,1.5,0.7,2.3,0.7c1.2,0,1.8-0.6,1.8-1.4c0-0.8-0.5-1.3-1.7-1.7c-1.7-0.6-2.5-1.5-2.5-2.7
		c0-1.5,1.2-2.8,3.2-2.8c0.8,0,1.6,0.2,2.3,0.6l-0.4,1.2c-0.6-0.4-1.2-0.5-1.9-0.5c-1,0-1.6,0.6-1.6,1.3c0,0.8,0.6,1.1,1.8,1.6
		c1.6,0.6,2.5,1.4,2.5,2.8c0,1.6-1.3,2.8-3.5,2.8c-0.9,0-1.8-0.2-2.6-0.6L799.1,962z"/>
	<path class="st9" d="M824.9,949.9v11.4c0,0.8,0,1.8,0.1,2.4h-1.5l-0.1-1.6h0c-0.6,1.2-1.9,1.9-3.2,1.8c-2.3,0-4-1.9-4-4.8
		c0-3.1,1.9-5,4.2-5c1.1-0.1,2.2,0.5,2.8,1.4h0v-5.6H824.9z M823.2,958.1c0-0.2,0-0.5-0.1-0.7c-0.3-1.2-1.3-2-2.5-2
		c-1.8,0-2.8,1.6-2.8,3.6c0,1.9,0.9,3.5,2.8,3.5c1.2,0,2.3-0.9,2.5-2c0.1-0.2,0.1-0.5,0.1-0.7V958.1z"/>
	<path class="st9" d="M828.7,959.3c-0.1,1.7,1.1,3.1,2.7,3.3c0.2,0,0.3,0,0.5,0c0.9,0,1.8-0.1,2.6-0.5l0.3,1.2
		c-1,0.4-2.1,0.6-3.1,0.6c-2.4,0.2-4.5-1.7-4.6-4.1c0-0.2,0-0.4,0-0.7c0-2.8,1.7-5.1,4.4-5.1c3.1,0,3.9,2.7,3.9,4.4
		c0,0.3,0,0.5-0.1,0.8L828.7,959.3z M833.7,958.1c0-1.1-0.4-2.8-2.4-2.8c-1.5,0.1-2.6,1.3-2.6,2.8H833.7z"/>
	<path class="st9" d="M847.1,949.9h1.7v13.8h-1.7V949.9z"/>
	<path class="st9" d="M853,950.4l-0.3,4.7h-1l-0.3-4.7H853z"/>
	<path class="st9" d="M857.1,950.6v13.1h-1.7v-13.1L857.1,950.6z"/>
	<path class="st9" d="M860.1,963.7v-13.1h1.8l4.2,6.6c0.9,1.4,1.7,2.8,2.3,4.3l0,0c-0.2-1.7-0.2-3.3-0.2-5.4v-5.5h1.6v13.1h-1.7
		l-4.2-6.6c-0.9-1.4-1.7-2.9-2.4-4.4l-0.1,0c0.1,1.6,0.1,3.2,0.1,5.4v5.6L860.1,963.7z"/>
	<path class="st9" d="M879.6,957.6h-5.1v4.7h5.7v1.4h-7.4v-13.1h7.1v1.4h-5.4v4.1h5.1V957.6z"/>
	<path class="st9" d="M882.6,962.2c0.4-0.4,1.1-0.4,1.5,0c0.2,0.2,0.3,0.5,0.3,0.7c0,0.3-0.1,0.6-0.3,0.8c-0.4,0.4-1,0.4-1.4,0
		c0,0,0,0,0,0c-0.2-0.2-0.3-0.5-0.3-0.7C882.3,962.6,882.4,962.4,882.6,962.2z"/>
</g>
<text transform="matrix(1 0 0 1 559.8223 557.3719)" class="st10 st11 st12">Estrangers</text>
<text transform="matrix(1 0 0 1 559.8223 593.658)" class="st10 st11 st12">Domèstics</text>
<path class="st13" d="M698.1,575.1h32.3c5.8,0,10.4,4.7,10.4,10.4v0c0,5.8-4.7,10.4-10.4,10.4h-32.3c-5.8,0-10.4-4.7-10.4-10.4v0
	C687.6,579.8,692.3,575.1,698.1,575.1z"/>
<path class="st10" d="M698.1,541.3h32.3c5.8,0,10.4,4.7,10.4,10.4v0c0,5.8-4.7,10.4-10.4,10.4h-32.3c-5.8,0-10.4-4.7-10.4-10.4v0
	C687.6,546,692.3,541.3,698.1,541.3z"/>
<rect x="85.8" y="336.8" class="st14" width="1154" height="110"/>
<text transform="matrix(1 0 0 1 94.8726 381.0428)" class="st2 st15 st16">-74,5%</text>
<text transform="matrix(1 0 0 1 101.1724 411.0428)" class="st2 st15 st17">Viatgers</text>
<text transform="matrix(1 0 0 1 98.7157 453.352)" class="st2 st15 st16">47.937</text>
<text transform="matrix(1 0 0 1 595.4001 381.3518)" class="st2 st15 st16">-69,1%</text>
<text transform="matrix(1 0 0 1 565.2194 411.3518)" class="st2 st15 st17">Pernoctacions</text>
<text transform="matrix(1 0 0 1 586.235 453.352)" class="st2 st15 st16">117.715</text>
<text transform="matrix(1 0 0 1 1089.5281 381.352)" class="st2 st15 st16">-56,9%</text>
<text transform="matrix(1 0 0 1 1089.2302 411.352)" class="st2 st15 st17">Empleats</text>
<text transform="matrix(1 0 0 1 1100.1155 453.352)" class="st2 st15 st16">2.002</text>
<text transform="matrix(1 0 0 1 510.5225 90.0745)" class="st2 st15 st18">Síntesi</text>
<g transform="translate(10,45.7)">
	<path id="point-0-0" class="st13" d="M324.1,541.6c93.8,0,169.8,76,169.8,169.8s-76,169.8-169.8,169.8s-169.8-76-169.8-169.8
		c0-25.7,5.8-51.1,17.1-74.2l99.3,48.3c-14.4,29.5-2,65.1,27.5,79.5s65.1,2,79.5-27.5c14.4-29.5,2-65.1-27.5-79.5
		c-8.1-3.9-17-6-26-6V541.6z"/>
	<path id="point-0-1" class="st2" d="M171.4,637.2c28.4-58.5,87.7-95.6,152.8-95.6V652c-22.8,0-43.5,13-53.5,33.5L171.4,637.2z"/>
	<g pointer-events="none" transform="translate(176.1788330078125, 147.86376953125)">
		<text transform="matrix(1 0 0 1 167.7989 660.7148)" class="st19 st20">82,2%</text>
		<text transform="matrix(1 0 0 1 167.7989 660.7148)" class="st14 st19 st20">82,2%</text>
	</g>
	<g pointer-events="none" transform="translate(108.82115936279297, 40.23622512817383)">
		<text transform="matrix(1 0 0 1 113.5155 573.9771)" class="st19 st20">17,8%</text>
		<text transform="matrix(1 0 0 1 113.5155 573.9771)" class="st14 st19 st20">17,8%</text>
	</g>
</g>
<g transform="translate(519, 45.70000076293945)">
	<path id="point-1-0" class="st13" d="M479,541.6c93.8,0,169.8,76,169.8,169.8s-76,169.8-169.8,169.8s-169.8-76-169.8-169.8
		c0-27.2,6.5-53.9,19-78.1l98,50.7c-15.1,29.2-3.7,65,25.5,80.1s65,3.7,80.1-25.5s3.7-65-25.5-80.1c-8.4-4.4-17.8-6.6-27.3-6.6
		V541.6z"/>
	<path id="point-1-1" class="st2" d="M328.2,633.3c29.2-56.4,87.4-91.8,150.8-91.8V652c-22.2,0-42.6,12.4-52.8,32.1L328.2,633.3z"/>
	<g pointer-events="none" transform="translate(175.4999542236328, 148.28273010253906)">
		<text transform="matrix(1 0 0 1 322.1592 661.0497)" class="st19 st20">82,6%</text>
		<text transform="matrix(1 0 0 1 322.1592 661.0497)" class="st14 st19 st20">82,6%</text>
	</g>
	<g pointer-events="none" transform="translate(109.50004577636719, 39.817264556884766)">
		<text transform="matrix(1 0 0 1 268.9697 573.6392)" class="st19 st20">17,4%</text>
		<text transform="matrix(1 0 0 1 268.9697 573.6392)" class="st14 st19 st20">17,4%</text>
	</g>
</g>
</svg>
