<svg id="Capa_1" data-name="Capa 1" xmlns="http://www.w3.org/2000/svg" width="24.5533cm" height="25.8692cm" viewBox="0 0 696 733.3"><title>LABTurisme-Evolucio-Ocupacio-Turisme-rural-març-2021</title><text transform="translate(290.2436 54.5009)" font-size="19.23" fill="#1c3761" font-family="OpenSans-Bold, Open Sans" font-weight="700" style="isolation:isolate">Turisme Rural</text><text transform="translate(237.1387 79.7308)" font-size="13.74" fill="#1c3761" font-family="OpenSans-SemiBold, Open Sans" font-weight="600" style="isolation:isolate">Ocupació en percentatge per places.</text><path d="M280.9878,96.5732h11.2a2.0059,2.0059,0,0,1,2,2v4a2.0059,2.0059,0,0,1-2,2h-11.2a2.0059,2.0059,0,0,1-2-2v-4A2.0059,2.0059,0,0,1,280.9878,96.5732Z" fill="#1c3761"/><path d="M338.9878,96.5732h11.2a2.0059,2.0059,0,0,1,2,2v4a2.0059,2.0059,0,0,1-2,2h-11.2a2.0059,2.0059,0,0,1-2-2v-4A2.0059,2.0059,0,0,1,338.9878,96.5732Z" fill="#66e0e0"/><text transform="translate(43.8544 614.0111)" font-size="10.3" fill="#878787" font-family="OpenSans-SemiBold, Open Sans" font-weight="600" style="isolation:isolate"><tspan xml:space="preserve">Font: Elaboració pròpia del LABturisme en base a dades de l&apos;Enquesta d&apos;ocupació en allotjaments de l&apos;INE.        </tspan></text><text transform="translate(44.0944 579.861)" font-size="10.3" fill="#878787" font-family="OpenSans-SemiBold, Open Sans" font-weight="600" style="isolation:isolate">* Les dades dels mesos de març i maig de 2020 no estan disponibles, degut al tancament d’establiments per la gestió de la</text><text transform="translate(44.0944 592.221)" font-size="10.3" fill="#878787" font-family="OpenSans-SemiBold, Open Sans" font-weight="600" style="isolation:isolate">crisi sanitària ocasionada per la Covid-19.</text><text transform="translate(357.8816 104.609)" font-size="10.3" fill="#1d1d1b" font-family="OpenSans-SemiBold, Open Sans" font-weight="600" style="isolation:isolate">2020</text><text transform="translate(299.7735 104.6089)" font-size="10.3" fill="#1d1d1b" font-family="OpenSans-SemiBold, Open Sans" font-weight="600" style="isolation:isolate">2021</text><g id="facets"><rect x="68.9293" y="146.9675" width="581.3866" height="376.3211" fill="none"/><line x1="68.9293" y1="523.6359" x2="650.3159" y2="523.6359" fill="none" stroke="#eee" stroke-width="0.7013" stroke-dasharray="0"/><text transform="translate(52.557 530.4913) scale(1.0196 1)" font-size="9.7229" fill="#036" font-family="SourceSansPro-Regular, Source Sans Pro" style="isolation:isolate">0%</text><line x1="68.9293" y1="448.3717" x2="650.3159" y2="448.3717" fill="none" stroke="#eee" stroke-width="0.7013" stroke-dasharray="0"/><text transform="translate(48.7817 451.5806) scale(1.0196 1)" font-size="9.7229" fill="#036" font-family="SourceSansPro-Regular, Source Sans Pro" style="isolation:isolate">20%</text><line x1="68.9293" y1="373.1074" x2="650.3159" y2="373.1074" fill="none" stroke="#eee" stroke-width="0.7013" stroke-dasharray="0"/><text transform="translate(48.7817 376.3159) scale(1.0196 1)" font-size="9.7229" fill="#036" font-family="SourceSansPro-Regular, Source Sans Pro" style="isolation:isolate">40%</text><line x1="68.9293" y1="297.8432" x2="650.3159" y2="297.8432" fill="none" stroke="#eee" stroke-width="0.7013" stroke-dasharray="0"/><text transform="translate(48.7817 301.0513) scale(1.0196 1)" font-size="9.7229" fill="#036" font-family="SourceSansPro-Regular, Source Sans Pro" style="isolation:isolate">60%</text><line x1="68.9293" y1="222.579" x2="650.3159" y2="222.579" fill="none" stroke="#eee" stroke-width="0.7013" stroke-dasharray="0"/><text transform="translate(48.7817 225.7871) scale(1.0196 1)" font-size="9.7229" fill="#036" font-family="SourceSansPro-Regular, Source Sans Pro" style="isolation:isolate">80%</text><line x1="68.9293" y1="147.3148" x2="650.3159" y2="147.3148" fill="none" stroke="#eee" stroke-width="0.7013" stroke-dasharray="0"/><text transform="translate(43.8545 150.5229) scale(1.0196 1)" font-size="9.7229" fill="#036" font-family="SourceSansPro-Regular, Source Sans Pro" style="isolation:isolate">100%</text><path d="M69.2834,523.6359H650.67" fill="none" stroke="#036" stroke-width="0.7013" stroke-dasharray="0"/><line x1="69.2834" y1="523.2886" x2="69.2834" y2="527.4556" fill="none" stroke="#036" stroke-width="0.7013" stroke-dasharray="0"/><text transform="translate(61.5493 542.9177) scale(1.0196 1)" font-size="9.7229" fill="#036" font-family="SourceSansPro-Regular, Source Sans Pro" style="isolation:isolate">Gen.</text><line x1="122.1367" y1="523.2886" x2="122.1367" y2="527.4556" fill="none" stroke="#036" stroke-width="0.7013" stroke-dasharray="0"/><text transform="translate(115.101 542.9177) scale(1.0196 1)" font-size="9.7229" fill="#036" font-family="SourceSansPro-Regular, Source Sans Pro" style="isolation:isolate"><tspan letter-spacing="-0.014em">F</tspan><tspan x="4.6671" y="0">e</tspan><tspan x="9.4893" y="0" letter-spacing="-0.01em">b</tspan><tspan x="14.7689" y="0">.</tspan></text><line x1="174.99" y1="523.2886" x2="174.99" y2="527.4556" fill="none" stroke="#036" stroke-width="0.7013" stroke-dasharray="0"/><text transform="translate(166.5566 542.9177) scale(1.0196 1)" font-size="9.7229" fill="#036" font-family="SourceSansPro-Regular, Source Sans Pro" style="isolation:isolate">Ma<tspan x="11.9689" y="0" letter-spacing="-0.057em">r</tspan><tspan x="14.7885" y="0" letter-spacing="-0.138em">.</tspan><tspan x="15.8674" y="0">*</tspan></text><line x1="227.8434" y1="523.2886" x2="227.8434" y2="527.4556" fill="none" stroke="#036" stroke-width="0.7013" stroke-dasharray="0"/><text transform="translate(221.4619 542.9177) scale(1.0196 1)" font-size="9.7229" fill="#036" font-family="SourceSansPro-Regular, Source Sans Pro" style="isolation:isolate">Ab<tspan x="10.6659" y="0" letter-spacing="-0.057em">r</tspan><tspan x="13.4855" y="0">.</tspan></text><line x1="280.6967" y1="523.2886" x2="280.6967" y2="527.4556" fill="none" stroke="#036" stroke-width="0.7013" stroke-dasharray="0"/><text transform="translate(272.4814 542.9177) scale(1.0196 1)" font-size="9.7229" fill="#036" font-family="SourceSansPro-Regular, Source Sans Pro" style="isolation:isolate">Mai<tspan x="14.3604" y="0" letter-spacing="-0.138em">.</tspan><tspan x="15.4398" y="0">*</tspan></text><line x1="333.55" y1="523.2886" x2="333.55" y2="527.4556" fill="none" stroke="#036" stroke-width="0.7013" stroke-dasharray="0"/><text transform="translate(326.2568 542.9177) scale(1.0196 1)" font-size="9.7229" fill="#036" font-family="SourceSansPro-Regular, Source Sans Pro" style="isolation:isolate">Jun.</text><line x1="386.4034" y1="523.2886" x2="386.4034" y2="527.4556" fill="none" stroke="#036" stroke-width="0.7013" stroke-dasharray="0"/><text transform="translate(380.5581 542.9177) scale(1.0196 1)" font-size="9.7229" fill="#036" font-family="SourceSansPro-Regular, Source Sans Pro" style="isolation:isolate">Jul.</text><line x1="439.2567" y1="523.2886" x2="439.2567" y2="527.4556" fill="none" stroke="#036" stroke-width="0.7013" stroke-dasharray="0"/><text transform="translate(431.9878 542.9177) scale(1.0196 1)" font-size="9.7229" fill="#036" font-family="SourceSansPro-Regular, Source Sans Pro" style="isolation:isolate">A<tspan x="5.2896" y="0" letter-spacing="-0.0141em">g</tspan><tspan x="10.0534" y="0" letter-spacing="-0.0099em">o</tspan><tspan x="15.2262" y="0">.</tspan></text><line x1="492.11" y1="523.2886" x2="492.11" y2="527.4556" fill="none" stroke="#036" stroke-width="0.7013" stroke-dasharray="0"/><text transform="translate(485.8374 542.9177) scale(1.0196 1)" font-size="9.7229" fill="#036" font-family="SourceSansPro-Regular, Source Sans Pro" style="isolation:isolate">S<tspan x="5.1919" y="0" letter-spacing="-0.0099em">e</tspan><tspan x="9.9174" y="0" letter-spacing="0.007em">t</tspan><tspan x="13.2715" y="0">.</tspan></text><line x1="544.9633" y1="523.2886" x2="544.9633" y2="527.4556" fill="none" stroke="#036" stroke-width="0.7013" stroke-dasharray="0"/><text transform="translate(538.2456 542.9177) scale(1.0196 1)" font-size="9.7229" fill="#036" font-family="SourceSansPro-Regular, Source Sans Pro" style="isolation:isolate">O<tspan x="6.4562" y="0" letter-spacing="-0.01em">c</tspan><tspan x="10.7919" y="0" letter-spacing="0.0071em">t</tspan><tspan x="14.1468" y="0" letter-spacing="-0.0001em">.</tspan></text><line x1="597.8166" y1="523.2886" x2="597.8166" y2="527.4556" fill="none" stroke="#036" stroke-width="0.7013" stroke-dasharray="0"/><text transform="translate(590.2954 542.9177) scale(1.0196 1)" font-size="9.7229" fill="#036" font-family="SourceSansPro-Regular, Source Sans Pro" style="isolation:isolate">N<tspan x="6.2905" y="0" letter-spacing="-0.0039em">o</tspan><tspan x="11.5217" y="0" letter-spacing="-0.0351em">v</tspan><tspan x="15.7214" y="0">.</tspan></text><line x1="650.67" y1="523.2886" x2="650.67" y2="527.4556" fill="none" stroke="#036" stroke-width="0.7013" stroke-dasharray="0"/><text transform="translate(643.5796 542.9177) scale(1.0196 1)" font-size="9.7229" fill="#036" font-family="SourceSansPro-Regular, Source Sans Pro" style="isolation:isolate">Des.</text></g><path d="M68.9293,512.3753c17.6178,1.6935,35.2356,3.3869,52.8534,3.3869s35.2355-11.1014,52.8533-22.2029" fill="none" stroke="#036" stroke-width="2.8051"/><path d="M68.9293,492.054c17.6178-7.3069,35.2356-14.6138,52.8534-19.1924s35.2355-4.2649,52.8533-8.279,35.2355-15.8055,52.8533-15.8055,35.2355,10.1606,52.8533,10.1606,35.2356-16.8717,52.8533-25.59,35.2356-10.3488,52.8534-26.7188,35.2355-71.501,52.8533-71.501,35.2356,105.9971,52.8533,115.5306,35.2356,14.3,52.8534,14.3,35.2355-7.2756,52.8533-12.7949,35.2355-12.92,52.8533-20.3214" fill="none" stroke="#ccd6e0" stroke-width="2.8051"/><g id="data-points"><path id="point-0-0" d="M68.2212,512.3753a.7083.7083,0,1,1,.7081.6945A.7013.7013,0,0,1,68.2212,512.3753Z" fill="#036"/><path id="point-0-1" d="M121.0745,515.7622a.7083.7083,0,1,1,.7082.6945A.7015.7015,0,0,1,121.0745,515.7622Z" fill="#036"/><path id="point-0-2" d="M170.3871,493.5593a4.25,4.25,0,1,1,4.2489,4.1669A4.2085,4.2085,0,0,1,170.3871,493.5593Z" fill="#036"/><path id="point-1-0" d="M68.2212,483.7749a.7083.7083,0,1,1,.7081.6945A.7013.7013,0,0,1,68.2212,483.7749Z" fill="#66e0e0"/><path id="point-1-1" d="M121.0745,475.8722a.7083.7083,0,1,1,.7082.6945A.7015.7015,0,0,1,121.0745,475.8722Z" fill="#66e0e0"/><path id="point-1-3" d="M226.7812,523.2886a.7082.7082,0,1,1,.7081.6945A.7013.7013,0,0,1,226.7812,523.2886Z" fill="#66e0e0"/><path id="point-1-6" d="M385.3411,391.2a.7083.7083,0,1,1,.7082.6945A.7014.7014,0,0,1,385.3411,391.2Z" fill="#66e0e0"/><path id="point-1-7" d="M438.1945,322.3332a.7082.7082,0,1,1,.7081.6945A.7014.7014,0,0,1,438.1945,322.3332Z" fill="#66e0e0"/><path id="point-1-10" d="M596.7544,520.2781a.7083.7083,0,1,1,.7082.6945A.7014.7014,0,0,1,596.7544,520.2781Z" fill="#66e0e0"/><path id="point-1-11" d="M646.0671,488.6671a4.25,4.25,0,1,1,4.2488,4.167A4.2084,4.2084,0,0,1,646.0671,488.6671Z" fill="#66e0e0"/><path id="point-2-0" d="M68.2212,492.054a.7083.7083,0,1,1,.7081.6945A.7014.7014,0,0,1,68.2212,492.054Z" fill="#ccd6e0"/><path id="point-2-1" d="M121.0745,472.8616a.7083.7083,0,1,1,.7082.6945A.7015.7015,0,0,1,121.0745,472.8616Z" fill="#ccd6e0"/><path id="point-2-2" d="M173.9278,464.5826a.7083.7083,0,1,1,.7082.6945A.7014.7014,0,0,1,173.9278,464.5826Z" fill="#ccd6e0"/><path id="point-2-3" d="M226.7812,448.7771a.7082.7082,0,1,1,.7081.6945A.7014.7014,0,0,1,226.7812,448.7771Z" fill="#ccd6e0"/><path id="point-2-4" d="M279.6345,458.9377a.7083.7083,0,1,1,.7081.6945A.7013.7013,0,0,1,279.6345,458.9377Z" fill="#ccd6e0"/><path id="point-2-5" d="M332.4878,433.3479a.7083.7083,0,1,1,.7081.6945A.7015.7015,0,0,1,332.4878,433.3479Z" fill="#ccd6e0"/><path id="point-2-6" d="M385.3411,406.6291a.7083.7083,0,1,1,.7082.6945A.7015.7015,0,0,1,385.3411,406.6291Z" fill="#ccd6e0"/><path id="point-2-7" d="M438.1945,335.1281a.7082.7082,0,1,1,.7081.6945A.7014.7014,0,0,1,438.1945,335.1281Z" fill="#ccd6e0"/><path id="point-2-8" d="M491.0478,450.6587a.7082.7082,0,1,1,.7081.6945A.7014.7014,0,0,1,491.0478,450.6587Z" fill="#ccd6e0"/><path id="point-2-9" d="M543.9011,464.9589a.7083.7083,0,1,1,.7082.6945A.7014.7014,0,0,1,543.9011,464.9589Z" fill="#ccd6e0"/><path id="point-2-10" d="M596.7544,452.164a.7083.7083,0,1,1,.7082.6945A.7014.7014,0,0,1,596.7544,452.164Z" fill="#ccd6e0"/><path id="point-2-11" d="M646.0671,431.8426a4.25,4.25,0,1,1,4.2488,4.167A4.2084,4.2084,0,0,1,646.0671,431.8426Z" fill="#ccd6e0"/></g><line x1="68.9293" y1="442.0033" x2="650.3159" y2="442.0033" fill="none" stroke="#036" stroke-width="0.3506" stroke-dasharray="0.7013 0.7013"/><text transform="translate(554.1928 437.8364) scale(1.0196 1)" font-size="8.3339" fill="#036" font-family="ArialMT, Arial" style="isolation:isolate">Mitjana 2019: 21,6%</text><text transform="translate(48.7819 476.5663)" font-size="11.68" fill="#1c3761" font-family="SourceSansPro-Regular, Source Sans Pro" style="isolation:isolate">10,5</text><path id="point-0-0-2" data-name="point-0-0" d="M65.6933,483.5931a4.1183,4.1183,0,0,1,4.1-4.1,4.1853,4.1853,0,0,1,4.1,4.1,4.1,4.1,0,1,1-8.2,0Z" fill="#66e0e0"/><path id="point-0-0-3" data-name="point-0-0" d="M65.1173,492.4605a4.1183,4.1183,0,0,1,4.1-4.1,4.1853,4.1853,0,0,1,4.1,4.1,4.1,4.1,0,0,1-8.2,0Z" fill="#ccd6e0"/><text transform="translate(47.4378 515.0682)" font-size="11.68" fill="#1c3761" font-family="SourceSansPro-Regular, Source Sans Pro" style="isolation:isolate">2,9</text><path id="point-0-1-2" data-name="point-0-1" d="M118.5625,476.1281a2.7951,2.7951,0,0,1,2.8-2.8,2.8,2.8,0,1,1,0,5.6h0A2.86,2.86,0,0,1,118.5625,476.1281Z" fill="#66e0e0"/><path id="point-0-1-3" data-name="point-0-1" d="M225.3314,523.0006a2.795,2.795,0,0,1,2.8-2.8,2.8,2.8,0,1,1,0,5.6h0A2.86,2.86,0,0,1,225.3314,523.0006Z" fill="#66e0e0"/><path id="point-0-1-4" data-name="point-0-1" d="M331.548,452.706a2.7951,2.7951,0,0,1,2.8-2.8,2.8,2.8,0,1,1,0,5.6h0A2.86,2.86,0,0,1,331.548,452.706Z" fill="#66e0e0"/><path id="point-0-1-5" data-name="point-0-1" d="M119.4627,516.4342a2.7951,2.7951,0,0,1,2.8-2.8,2.8,2.8,0,0,1,0,5.6h0A2.86,2.86,0,0,1,119.4627,516.4342Z" fill="#036"/><path id="point-0-1-6" data-name="point-0-1" d="M384.2454,390.5055a2.7951,2.7951,0,0,1,2.8-2.8,2.8,2.8,0,1,1,0,5.6h0A2.86,2.86,0,0,1,384.2454,390.5055Z" fill="#66e0e0"/><path id="point-0-1-7" data-name="point-0-1" d="M435.3945,321.6387a2.7951,2.7951,0,0,1,2.8-2.8,2.8,2.8,0,1,1,0,5.6h0A2.86,2.86,0,0,1,435.3945,321.6387Z" fill="#66e0e0"/><path id="point-0-1-8" data-name="point-0-1" d="M488.9559,458.2433a2.7951,2.7951,0,0,1,2.8-2.8,2.8,2.8,0,1,1,0,5.6h0A2.86,2.86,0,0,1,488.9559,458.2433Z" fill="#66e0e0"/><path id="point-0-1-9" data-name="point-0-1" d="M542.5174,501.7725a2.7951,2.7951,0,0,1,2.8-2.8,2.8,2.8,0,1,1,0,5.6h0A2.86,2.86,0,0,1,542.5174,501.7725Z" fill="#66e0e0"/><path id="point-0-1-10" data-name="point-0-1" d="M595.0166,520.2418a2.7951,2.7951,0,0,1,2.8-2.8,2.8,2.8,0,0,1,0,5.6h0A2.86,2.86,0,0,1,595.0166,520.2418Z" fill="#66e0e0"/><path id="point-0-1-11" data-name="point-0-1" d="M595.3707,452.164a2.7951,2.7951,0,0,1,2.8-2.8,2.8,2.8,0,0,1,0,5.6h0A2.86,2.86,0,0,1,595.3707,452.164Z" fill="#ccd6e0"/><path id="point-0-1-12" data-name="point-0-1" d="M542.4214,465.4389a2.7951,2.7951,0,0,1,2.8-2.8,2.8,2.8,0,0,1,0,5.6h0A2.86,2.86,0,0,1,542.4214,465.4389Z" fill="#ccd6e0"/><path id="point-0-1-13" data-name="point-0-1" d="M489.6641,450.6587a2.7951,2.7951,0,0,1,2.8-2.8,2.8,2.8,0,0,1,0,5.6h0A2.86,2.86,0,0,1,489.6641,450.6587Z" fill="#ccd6e0"/><path id="point-0-1-14" data-name="point-0-1" d="M435.8745,335.6081a2.7951,2.7951,0,0,1,2.8-2.8,2.8,2.8,0,0,1,0,5.6h0A2.86,2.86,0,0,1,435.8745,335.6081Z" fill="#ccd6e0"/><path id="point-0-1-15" data-name="point-0-1" d="M384.2454,405.9346a2.7951,2.7951,0,0,1,2.8-2.8,2.8,2.8,0,0,1,0,5.6h0A2.86,2.86,0,0,1,384.2454,405.9346Z" fill="#ccd6e0"/><path id="point-0-1-16" data-name="point-0-1" d="M331.548,432.6534a2.7951,2.7951,0,0,1,2.8-2.8,2.8,2.8,0,1,1,0,5.6h0A2.86,2.86,0,0,1,331.548,432.6534Z" fill="#ccd6e0"/><path id="point-0-1-17" data-name="point-0-1" d="M279.008,458.9377a2.795,2.795,0,0,1,2.8-2.8,2.8,2.8,0,1,1,0,5.6h0A2.86,2.86,0,0,1,279.008,458.9377Z" fill="#ccd6e0"/><path id="point-0-1-18" data-name="point-0-1" d="M224.9175,449.0651a2.7951,2.7951,0,0,1,2.8-2.8,2.8,2.8,0,1,1,0,5.6h0A2.86,2.86,0,0,1,224.9175,449.0651Z" fill="#ccd6e0"/><path id="point-0-1-19" data-name="point-0-1" d="M172.124,464.7521a2.7951,2.7951,0,0,1,2.8-2.8,2.8,2.8,0,0,1,0,5.6h0A2.86,2.86,0,0,1,172.124,464.7521Z" fill="#ccd6e0"/><path d="M398.118,96.5554h11.2a2.0059,2.0059,0,0,1,2,2v4a2.0059,2.0059,0,0,1-2,2h-11.2a2.0059,2.0059,0,0,1-2-2v-4A2.0059,2.0059,0,0,1,398.118,96.5554Z" fill="#ccd6e0"/><text transform="translate(417.0118 104.5912)" font-size="10.3" fill="#1d1d1b" font-family="OpenSans-SemiBold, Open Sans" font-weight="600" style="isolation:isolate">2019</text><text transform="translate(46.6042 496.5603)" font-size="11.68" fill="#1c3761" font-family="SourceSansPro-Regular, Source Sans Pro" style="isolation:isolate">8,3</text><text transform="translate(221.4618 515.7625)" font-size="11.68" fill="#1c3761" font-family="SourceSansPro-Regular, Source Sans Pro" style="isolation:isolate">0,0</text><text transform="translate(166.5565 484.4697)" font-size="11.68" fill="#1c3761" font-family="SourceSansPro-Regular, Source Sans Pro" style="isolation:isolate">7,9</text><text transform="translate(427.1489 314.1525)" font-size="11.68" fill="#1c3761" font-family="SourceSansPro-Regular, Source Sans Pro" style="isolation:isolate">53,4</text><text transform="translate(427.1488 356.8648)" font-size="11.68" fill="#1c3761" font-family="SourceSansPro-Regular, Source Sans Pro" style="isolation:isolate">50,0</text><text transform="translate(637.8906 481.8567)" font-size="11.68" fill="#1c3761" font-family="SourceSansPro-Regular, Source Sans Pro" style="isolation:isolate">9,2</text><text transform="translate(634.8188 420.7713)" font-size="11.68" fill="#1c3761" font-family="SourceSansPro-Regular, Source Sans Pro" style="isolation:isolate">24,3</text><path id="point-0-2-2" data-name="point-0-2" d="M65.5326,512.2313a4.25,4.25,0,1,1,4.2489,4.167A4.2085,4.2085,0,0,1,65.5326,512.2313Z" fill="#036"/><path d="M333.5307,452.3656C336,450.3,337,447.3,339,445.3c25-26,48-51,65-82,8-16,15-34,32-42,8,0,12,9,16,15,1,3,2.368,4.847,3.368,7.847A51.0077,51.0077,0,0,1,460,357.3c5,26,12,49,19,73,5,16,13,31,25,42,24,22,51,35,79,47,19,3,40.6-.953,54.6-14.953,1-1,2.4-3.047,3.4-4.047,3-4,7-7,9.3159-11.6329" fill="none" stroke="#66e0e0" stroke-width="2.8051"/><path d="M225.4873,523.6058q2.5932-.323,5.1657-.791" fill="none" stroke="#66e0e0" stroke-width="2.8051"/><path d="M68.9293,483.7749c9.4441-2.1186,18.8969-4.2443,28.46-5.766,8.6947-1.3837,16.2919-3.1613,25.102-2.1367" fill="none" stroke="#66e0e0" stroke-width="2.8051"/></svg>