<?xml version="1.0" encoding="utf-8"?>
<!-- Generator: Adobe Illustrator 24.0.1, SVG Export Plug-In . SVG Version: 6.00 Build 0)  -->
<svg version="1.1" id="Capa_1" xmlns="http://www.w3.org/2000/svg" xmlns:xlink="http://www.w3.org/1999/xlink" x="0px" y="0px"
	 viewBox="0 0 697.3 732.5" style="enable-background:new 0 0 697.3 732.5;" xml:space="preserve">
<style type="text/css">
	.st0{fill:none;stroke:#EFEFEF;stroke-dasharray:0;}
	.st1{fill:#1C3761;}
	.st2{font-family:'SourceSansPro-Regular';}
	.st3{font-size:9.62px;}
	.st4{fill:none;stroke:#1C3761;stroke-dasharray:0;}
	.st5{fill:#79C8D1;}
	.st6{fill:#79C9D1;}
	.st7{fill:none;stroke:#1C3761;stroke-dasharray:1,1;}
	.st8{fill:none;stroke:#79C8D1;stroke-width:4;}
	.st9{font-size:11.68px;}
	.st10{fill:none;stroke:#79C8D1;stroke-width:4;stroke-linejoin:round;}
	.st11{fill:#878787;}
	.st12{font-family:'OpenSans-SemiBold';}
	.st13{font-size:10.3px;}
	.st14{font-family:'OpenSans-Bold';}
	.st15{font-size:19.23px;}
	.st16{font-size:13.74px;}
	.st17{fill:#1D1D1B;}
	.st18{font-family:'ArialMT';}
	.st19{font-size:8.24px;}
</style>
<g id="facets">
	<line class="st0" x1="88.5" y1="519.1" x2="652.5" y2="519.1"/>
	<text transform="matrix(1 0 0 1 61.8607 522.2164)" class="st1 st2 st3">0%</text>
	<line class="st0" x1="88.5" y1="444.7" x2="652.5" y2="444.7"/>
	<text transform="matrix(1 0 0 1 57.0807 447.7764)" class="st1 st2 st3">20%</text>
	<line class="st0" x1="88.5" y1="370.2" x2="652.5" y2="370.2"/>
	<text transform="matrix(1 0 0 1 57.0807 373.3365)" class="st1 st2 st3">40%</text>
	<line class="st0" x1="88.5" y1="295.8" x2="652.5" y2="295.8"/>
	<text transform="matrix(1 0 0 1 57.0807 298.8965)" class="st1 st2 st3">60%</text>
	<line class="st0" x1="88.5" y1="221.3" x2="652.5" y2="221.3"/>
	<text transform="matrix(1 0 0 1 57.0807 224.4465)" class="st1 st2 st3">80%</text>
	<path class="st4" d="M88.9,519.1h564"/>
	<line class="st4" x1="88.9" y1="518.8" x2="88.9" y2="522.9"/>
	<line class="st4" x1="140.1" y1="518.8" x2="140.1" y2="522.9"/>
	<line class="st4" x1="191.4" y1="518.8" x2="191.4" y2="522.9"/>
	<line class="st4" x1="242.7" y1="518.8" x2="242.7" y2="522.9"/>
	<line class="st4" x1="294" y1="518.8" x2="294" y2="522.9"/>
	<line class="st4" x1="345.2" y1="518.8" x2="345.2" y2="522.9"/>
	<line class="st4" x1="396.5" y1="518.8" x2="396.5" y2="522.9"/>
	<line class="st4" x1="447.8" y1="518.8" x2="447.8" y2="522.9"/>
	<line class="st4" x1="499" y1="518.8" x2="499" y2="522.9"/>
	<line class="st4" x1="550.3" y1="518.8" x2="550.3" y2="522.9"/>
	<line class="st4" x1="601.6" y1="518.8" x2="601.6" y2="522.9"/>
	<line class="st4" x1="652.8" y1="518.8" x2="652.8" y2="522.9"/>
</g>
<path id="point-0-0" class="st1" d="M87.9,338.2c0-0.4,0.3-0.7,0.7-0.7l0,0l0,0c0.4,0,0.7,0.3,0.7,0.6l0,0l0,0
	c0,0.4-0.3,0.7-0.7,0.7l0,0l0,0C88.1,338.9,87.8,338.6,87.9,338.2C87.8,338.2,87.8,338.2,87.9,338.2L87.9,338.2L87.9,338.2z"/>
<path id="point-0-1" class="st5" d="M137.1,332.3c0-1.5,1.2-2.8,2.8-2.8s2.8,1.2,2.8,2.8s-1.2,2.8-2.8,2.8l0,0l0,0
	C138.3,335,137.1,333.8,137.1,332.3z"/>
<path id="point-0-3" class="st1" d="M241.7,518.8c0-0.4,0.3-0.7,0.7-0.7s0.7,0.3,0.7,0.7s-0.3,0.7-0.7,0.7S241.7,519.1,241.7,518.8
	L241.7,518.8z"/>
<path id="point-0-5" class="st5" d="M342.1,460.3c0-1.5,1.2-2.8,2.8-2.8s2.8,1.2,2.8,2.8s-1.2,2.8-2.8,2.8l0,0l0,0
	C343.3,463.1,342.1,461.8,342.1,460.3z"/>
<path id="point-0-5-2" class="st5" d="M393.5,419.7c0-1.5,1.2-2.8,2.8-2.8s2.8,1.2,2.8,2.8s-1.2,2.8-2.8,2.8l0,0l0,0
	C394.7,422.5,393.5,421.2,393.5,419.7z"/>
<path id="point-0-5-2-2" class="st5" d="M446.1,414.3c0-1.5,1.2-2.8,2.8-2.8s2.8,1.2,2.8,2.8s-1.2,2.8-2.8,2.8l0,0l0,0
	C447.3,417,446.1,415.8,446.1,414.3z"/>
<path id="point-0-5-2-2-2" class="st5" d="M497,450.3c0-1.5,1.2-2.8,2.8-2.8s2.8,1.2,2.8,2.8s-1.2,2.8-2.8,2.8l0,0
	C498.3,453,497,451.8,497,450.3L497,450.3z"/>
<path id="point-1-0" class="st6" d="M87.9,339c0-0.4,0.3-0.7,0.6-0.7l0,0l0,0c0.4,0,0.7,0.3,0.7,0.7l0,0l0,0c0,0.4-0.3,0.7-0.7,0.7
	l0,0l0,0C88.2,339.7,87.9,339.4,87.9,339L87.9,339L87.9,339L87.9,339z"/>
<line class="st7" x1="88.5" y1="401.7" x2="652.5" y2="401.7"/>
<text transform="matrix(1 0 0 1 80.6907 536.4964)" class="st1 st2 st3">Gen.</text>
<text transform="matrix(1 0 0 1 132.6407 536.4964)" class="st1 st2 st3">F</text>
<text transform="matrix(1 0 0 1 137.2607 536.4964)" class="st1 st2 st3">e</text>
<text transform="matrix(1 0 0 1 142.0307 536.4964)" class="st1 st2 st3">b</text>
<text transform="matrix(1 0 0 1 147.2507 536.4964)" class="st1 st2 st3">.</text>
<text transform="matrix(1 0 0 1 182.5507 536.4964)" class="st1 st2 st3">Ma</text>
<text transform="matrix(1 0 0 1 194.3907 536.4964)" class="st1 st2 st3">r</text>
<text transform="matrix(1 0 0 1 197.1807 536.4964)" class="st1 st2 st3">.</text>
<text transform="matrix(1 0 0 1 198.2407 536.4964)" class="st1 st2 st3">*</text>
<text transform="matrix(1 0 0 1 235.8107 536.4964)" class="st1 st2 st3">Ab</text>
<text transform="matrix(1 0 0 1 246.3607 536.4964)" class="st1 st2 st3">r</text>
<text transform="matrix(1 0 0 1 249.1507 536.4964)" class="st1 st2 st3">.</text>
<text transform="matrix(1 0 0 1 285.3007 536.4964)" class="st1 st2 st3">Mai</text>
<text transform="matrix(1 0 0 1 299.5007 536.4964)" class="st1 st2 st3">.</text>
<text transform="matrix(1 0 0 1 300.5707 536.4964)" class="st1 st2 st3">*</text>
<text transform="matrix(1 0 0 1 337.4607 536.4964)" class="st1 st2 st3">Jun.</text>
<text transform="matrix(1 0 0 1 390.1407 536.4964)" class="st1 st2 st3">Jul.</text>
<text transform="matrix(1 0 0 1 440.0307 536.4964)" class="st1 st2 st3">A</text>
<text transform="matrix(1 0 0 1 445.2607 536.4964)" class="st1 st2 st3">g</text>
<text transform="matrix(1 0 0 1 449.9707 536.4964)" class="st1 st2 st3">o</text>
<text transform="matrix(1 0 0 1 455.0907 536.4964)" class="st1 st2 st3">.</text>
<text transform="matrix(1 0 0 1 492.2607 536.4964)" class="st1 st2 st3">S</text>
<text transform="matrix(1 0 0 1 497.4007 536.4964)" class="st1 st2 st3">e</text>
<text transform="matrix(1 0 0 1 502.0707 536.4964)" class="st1 st2 st3">t</text>
<text transform="matrix(1 0 0 1 505.3907 536.4964)" class="st1 st2 st3">.</text>
<text transform="matrix(1 0 0 1 543.1007 536.4964)" class="st1 st2 st3">O</text>
<text transform="matrix(1 0 0 1 549.4908 536.4964)" class="st1 st2 st3">c</text>
<text transform="matrix(1 0 0 1 553.7708 536.4964)" class="st1 st2 st3">t</text>
<text transform="matrix(1 0 0 1 557.0908 536.4964)" class="st1 st2 st3">.</text>
<text transform="matrix(1 0 0 1 593.5807 536.4964)" class="st1 st2 st3">N</text>
<text transform="matrix(1 0 0 1 599.8007 536.4964)" class="st1 st2 st3">o</text>
<text transform="matrix(1 0 0 1 604.9807 536.4964)" class="st1 st2 st3">v</text>
<text transform="matrix(1 0 0 1 609.1307 536.4964)" class="st1 st2 st3">.</text>
<text transform="matrix(1 0 0 1 645.2708 536.4964)" class="st1 st2 st3">Des.</text>
<path class="st8" d="M88.5,338.2c17.1-3,34.2-6,51.3-6h0.7"/>
<path id="point-0-6-2" class="st5" d="M84.4,338.8c0-2.3,1.8-4.1,4.1-4.1s4.1,1.8,4.1,4.1c0,2.3-1.8,4.1-4.1,4.1l0,0l0,0
	C86.2,342.9,84.4,341.1,84.4,338.8L84.4,338.8L84.4,338.8L84.4,338.8z"/>
<text transform="matrix(1 0 0 1 63.3107 330.3365)" class="st1 st2 st9">48,6</text>
<text transform="matrix(1 0 0 1 142.6007 342.3564)" class="st1 st2 st9">50,1</text>
<text transform="matrix(1 0 0 1 347.1207 471.1364)" class="st1 st2 st9">15,7</text>
<text transform="matrix(1 0 0 1 388.0007 411.3565)" class="st1 st2 st9">26,8</text>
<path id="point-0-6-3" class="st5" d="M239.2,518.9c0-2.3,1.8-4.1,4.1-4.1s4.1,1.8,4.1,4.1c0,2.3-1.8,4.1-4.1,4.1l0,0l0,0
	C241.1,523.1,239.2,521.2,239.2,518.9L239.2,518.9z"/>
<text transform="matrix(1 0 0 1 235.8907 508.0564)" class="st1 st2 st9">0,0</text>
<path class="st8" d="M343.7,461c17.6-12.5,35.1-38,52.7-41.5"/>
<path id="point-0-7" class="st5" d="M648.6,457.5c0-2.4,1.8-4.3,4.2-4.3s4.3,1.8,4.3,4.2c0,2.4-1.8,4.3-4.2,4.3h-0.1
	C650.6,461.8,648.6,459.9,648.6,457.5z"/>
<text transform="matrix(1 0 0 1 440.2487 430.6198)" class="st1 st2 st9">28,2</text>
<text transform="matrix(1 0 0 1 501.5604 443.0708)" class="st1 st2 st9">18,5</text>
<text transform="matrix(1 0 0 1 553.7706 460.936)" class="st1 st2 st9">15,1</text>
<path class="st10" d="M602.4,476.5c-9.3-1-22.7-2.6-39-5.5c-5.5-1-9.3-1.8-13.2-2.6c-31.5-6.3-41.5-10.1-50.5-18.1
	c-6.9-6.2-6.7-8.7-14.5-16.2c-12.3-11.8-26.4-17.1-36.7-19.8c0.3,0,0.4,0,0.4,0c-17.6,1.7-35.1,3.5-52.7,5.2"/>
<path id="point-0-5-2-2-2_1_" class="st5" d="M546.7,468.4c0-1.5,1.2-2.8,2.8-2.8s2.8,1.2,2.8,2.8s-1.2,2.8-2.8,2.8
	S546.7,469.9,546.7,468.4z"/>
<text transform="matrix(1 0 0 1 599.8011 467.03)" class="st1 st2 st9">12,8</text>
<g>
	<text transform="matrix(1 0 0 1 63.5693 613.871)" class="st11 st12 st13">Font: Elaboració pròpia del LABturisme en base a dades de l&apos;Enquesta d&apos;ocupació en allotjaments de l&apos;INE.        </text>
</g>
<text transform="matrix(1 0 0 1 63.8093 579.7211)" class="st11 st12 st13">* Les dades dels mesos de març i maig de 2020 no estan disponibles, degut al tancament d’establiments per la gestió de la</text>
<text transform="matrix(1 0 0 1 63.8093 592.0809)" class="st11 st12 st13">crisi sanitària ocasionada per la Covid-19.</text>
<g>
	<text transform="matrix(1 0 0 1 250.0913 51.2619)" class="st1 st14 st15">Establiments hotelers</text>
	<text transform="matrix(1 0 0 1 234.5313 76.4918)" class="st1 st12 st16">Ocupació en percentatge per places.</text>
	<path class="st1" d="M308.4,93.5h11.2c1.1,0,2,0.9,2,2v4c0,1.1-0.9,2-2,2h-11.2c-1.1,0-2-0.9-2-2v-4
		C306.4,94.4,307.3,93.5,308.4,93.5z"/>
	<path class="st5" d="M364.1,93.5h11.2c1.1,0,2,0.9,2,2v4c0,1.1-0.9,2-2,2h-11.2c-1.1,0-2-0.9-2-2v-4
		C362.1,94.4,363,93.5,364.1,93.5z"/>
	<text transform="matrix(1 0 0 1 380.0314 100.4019)" class="st17 st12 st13">2020</text>
	<text transform="matrix(1 0 0 1 326.5313 100.4019)" class="st17 st12 st13">2021</text>
</g>
<path class="st10" d="M602.4,476.5c6.2-0.5,11.3-1.2,15-1.9c9.6-1.8,15.4-2.7,21.9-6.1c3.2-1.6,7.8-4.5,12.7-9.6"/>
<path id="point-0-5-2-2-2_2_" class="st5" d="M598.8,476.5c0-1.5,1.2-2.8,2.8-2.8s2.8,1.2,2.8,2.8s-1.2,2.8-2.8,2.8
	S598.8,478,598.8,476.5z"/>
<text transform="matrix(1 0 0 1 637.2073 447.4467)" class="st1 st2 st9">16,6</text>
<g>
	<text transform="matrix(1 0 0 1 93.8037 397.7017)" class="st1 st18 st19">Mitjana 2020: 31,0%</text>
</g>
<path id="point-0-6-2_1_" class="st1" d="M85.2,464.6c0-2.3,1.8-4.1,4.1-4.1s4.1,1.8,4.1,4.1c0,2.3-1.8,4.1-4.1,4.1l0,0l0,0
	C87,468.7,85.2,466.9,85.2,464.6L85.2,464.6L85.2,464.6L85.2,464.6z"/>
<text transform="matrix(1 0 0 1 80.6905 481.7513)" class="st1 st2 st9">15,5</text>
<line class="st0" x1="88.5" y1="145.6" x2="652.5" y2="145.6"/>
<text transform="matrix(1 0 0 1 53.6245 148.6842)" class="st1 st2 st3">100%</text>
</svg>
