<svg xmlns="http://www.w3.org/2000/svg" xmlns:xlink="http://www.w3.org/1999/xlink" viewBox="0 0 429.14 251.17"><defs><style>.cls-1,.cls-10,.cls-11,.cls-8{fill:none;}.cls-2{isolation:isolate;}.cls-3{clip-path:url(#clip-path);}.cls-4{clip-path:url(#clip-path-2);}.cls-5{mix-blend-mode:multiply;}.cls-6{clip-path:url(#clip-path-3);}.cls-7{fill:#fcf2e8;}.cls-10,.cls-11,.cls-8{stroke:#fff;}.cls-10,.cls-8{stroke-linecap:round;}.cls-8{stroke-width:2.31px;}.cls-9{fill:#f0eae8;}.cls-10,.cls-11{stroke-width:26px;}</style><clipPath id="clip-path" transform="translate(-55.4 141.26)"><rect class="cls-1" width="383.25" height="115.71"/></clipPath><clipPath id="clip-path-2" transform="translate(-55.4 141.26)"><rect class="cls-1" x="108.98" y="-90.93" width="385.56" height="229.56"/></clipPath><clipPath id="clip-path-3" transform="translate(-55.4 141.26)"><rect class="cls-1" x="91.13" y="-132.34" width="395.3" height="244.77"/></clipPath></defs><g class="cls-2"><g id="Capa_2" data-name="Capa 2"><g id="Tipo"><g class="cls-3"><g class="cls-4"><g class="cls-5"><g class="cls-6"><polyline class="cls-7" points="38.78 12.59 38.78 174.33 148.97 250.01 427.98 250.01 427.98 13.87"/><polyline class="cls-8" points="38.78 12.59 38.78 174.33 148.97 250.01 427.98 250.01 427.98 13.87"/></g></g></g><polygon class="cls-9" points="53.57 50.33 53.57 189.19 70.97 212.75 217.74 212.75 217.74 50.33 53.57 50.33"/><polyline class="cls-10" points="13 13.18 13 134.25 70.97 212.75 217.75 212.75 217.75 13"/><polyline class="cls-11" points="80.98 13.22 80.98 21.92 152.07 129.11 332.06 129.11 332.06 13.56"/></g></g></g></g></svg>