<svg xmlns="http://www.w3.org/2000/svg" viewBox="0 0 15.17 15.17"><defs><style>.cls-1{fill:#a52030;}.cls-2{fill:#fff;}</style></defs><g id="Capa_2" data-name="Capa 2"><g id="Capa_1-2" data-name="Capa 1"><rect class="cls-1" width="15.17" height="15.17" rx="1.38"/><path class="cls-2" d="M12.93,9.64a1.12,1.12,0,0,1-.4.06,4.64,4.64,0,0,1-1.65-.5l.76,0a2.81,2.81,0,0,1,.95.11C13,9.38,13,9.59,12.93,9.64ZM5.68,9.7l.5-.9A16.82,16.82,0,0,0,7,6.9,6.33,6.33,0,0,0,8.48,8.68l.22.18a18.34,18.34,0,0,0-3,.84ZM7,2.32c.23,0,.36.58.37,1.12a2.27,2.27,0,0,1-.27,1.2,5.88,5.88,0,0,1-.19-1.5S6.92,2.32,7,2.32ZM2.52,12.68A5.06,5.06,0,0,1,3.93,11l.27-.25A5.08,5.08,0,0,1,2.52,12.68ZM13.15,8.89a2.33,2.33,0,0,0-1.52-.36,12.56,12.56,0,0,0-1.82.14A4.67,4.67,0,0,1,9,8.08,6.11,6.11,0,0,1,7.44,5.71l.06-.24A15.86,15.86,0,0,0,7.77,2.7a1.93,1.93,0,0,0,0-.2l0-.08A.66.66,0,0,0,7.09,2H6.9a.68.68,0,0,0-.69.44A8.12,8.12,0,0,0,6.63,6l-.1.25c-.3.73-.67,1.46-1,2.1l0,.08c-.35.68-.66,1.25-.94,1.74l-.3.15-.64.35a3.54,3.54,0,0,0-1.77,1.81A.45.45,0,0,0,2,13l.28.14a.94.94,0,0,0,.39.1c.71,0,1.54-.89,2.67-2.88a28.09,28.09,0,0,1,4.13-1,6.94,6.94,0,0,0,3,1,1.2,1.2,0,0,0,.35,0,.6.6,0,0,0,.35-.24,1.29,1.29,0,0,0,.14-.86.59.59,0,0,0-.17-.29Z"/></g></g></svg>