<svg xmlns="http://www.w3.org/2000/svg" viewBox="0 0 22.51 22.51"><defs><style>.cls-1{fill:#fff;}</style></defs><g id="Capa_2" data-name="Capa 2"><g id="Capa_2-2" data-name="Capa 2"><path class="cls-1" d="M7.5,11.25A3.76,3.76,0,1,1,11.25,15,3.75,3.75,0,0,1,7.5,11.25m-2,0a5.78,5.78,0,1,0,5.77-5.77,5.77,5.77,0,0,0-5.77,5.77m10.43-6A1.35,1.35,0,1,0,17.26,3.9a1.36,1.36,0,0,0-1.35,1.35M6.71,20.41A6.34,6.34,0,0,1,4.62,20a3.64,3.64,0,0,1-1.3-.84,3.51,3.51,0,0,1-.84-1.3,6.26,6.26,0,0,1-.39-2.09C2,14.62,2,14.26,2,11.25s0-3.36.06-4.54a6.26,6.26,0,0,1,.39-2.09,3.64,3.64,0,0,1,.84-1.3,3.51,3.51,0,0,1,1.3-.84,6.26,6.26,0,0,1,2.09-.39C7.89,2,8.25,2,11.25,2s3.36,0,4.55.06a6.32,6.32,0,0,1,2.09.39,3.51,3.51,0,0,1,1.3.84A3.64,3.64,0,0,1,20,4.62a6.26,6.26,0,0,1,.39,2.09c0,1.18.06,1.54.06,4.54s0,3.36-.06,4.55A6.26,6.26,0,0,1,20,17.89,3.68,3.68,0,0,1,17.89,20a6.34,6.34,0,0,1-2.09.38c-1.18.06-1.54.07-4.55.07s-3.36,0-4.54-.07M6.61.07A8.16,8.16,0,0,0,3.88.59a5.52,5.52,0,0,0-2,1.3,5.44,5.44,0,0,0-1.3,2A8.16,8.16,0,0,0,.07,6.61C0,7.81,0,8.2,0,11.25s0,3.44.07,4.64a8.17,8.17,0,0,0,.52,2.74,5.52,5.52,0,0,0,1.3,2,5.57,5.57,0,0,0,2,1.3,8.16,8.16,0,0,0,2.73.52c1.21,0,1.59.07,4.64.07s3.44,0,4.64-.07a8.17,8.17,0,0,0,2.74-.52,5.79,5.79,0,0,0,3.29-3.29,8.17,8.17,0,0,0,.52-2.74c0-1.2.07-1.58.07-4.64s0-3.44-.07-4.64a8.16,8.16,0,0,0-.52-2.73,5.66,5.66,0,0,0-1.3-2,5.52,5.52,0,0,0-2-1.3A8.17,8.17,0,0,0,15.89.07C14.69,0,14.31,0,11.25,0S7.82,0,6.61.07"/></g></g></svg>