<svg xmlns="http://www.w3.org/2000/svg" viewBox="0 0 14.73 14.07"><defs><style>.cls-1{fill:#a52030;}</style></defs><g id="Capa_2" data-name="Capa 2"><g id="Capa_1-2" data-name="Capa 1"><path class="cls-1" d="M0,1.63A1.54,1.54,0,0,1,.5.46,1.8,1.8,0,0,1,1.79,0,1.81,1.81,0,0,1,3.06.45a1.62,1.62,0,0,1,.49,1.23,1.49,1.49,0,0,1-.48,1.13,1.8,1.8,0,0,1-1.31.47h0A1.74,1.74,0,0,1,.48,2.81,1.57,1.57,0,0,1,0,1.63ZM.18,14.07V4.58H3.34v9.49Zm4.91,0H8.24V8.77A2,2,0,0,1,8.36,8,2,2,0,0,1,9,7.19a1.51,1.51,0,0,1,1-.34c1.06,0,1.59.72,1.59,2.15v5.07h3.16V8.63a4.58,4.58,0,0,0-1-3.19A3.37,3.37,0,0,0,11.1,4.35,3.25,3.25,0,0,0,8.24,5.93V6h0V4.58H5.09c0,.3,0,1.24,0,2.83S5.11,11.21,5.09,14.07Z"/></g></g></svg>