<svg xmlns="http://www.w3.org/2000/svg" viewBox="0 0 21.88 22.01"><defs><style>.cls-1{fill:#fff;}.cls-2{fill:#a52030;}</style></defs><g id="Capa_2" data-name="Capa 2"><g id="Capa_2-2" data-name="Capa 2"><path class="cls-1" d="M0,1.58A1.6,1.6,0,0,1,1.62,0H20.26a1.61,1.61,0,0,1,1.62,1.58V20.44A1.6,1.6,0,0,1,20.26,22H1.62A1.59,1.59,0,0,1,0,20.44V1.58Z"/><path class="cls-2" d="M6.63,18.43V8.49H3.33v9.94ZM5,7.13A1.72,1.72,0,1,0,5,3.7,1.72,1.72,0,1,0,5,7.13Zm3.48,11.3h3.3V12.88a2.44,2.44,0,0,1,.11-.81,1.81,1.81,0,0,1,1.7-1.21c1.19,0,1.67.91,1.67,2.25v5.32h3.31v-5.7c0-3.05-1.63-4.48-3.81-4.48a3.3,3.3,0,0,0-3,1.68h0V8.49H8.46c0,.93,0,9.94,0,9.94Z"/></g></g></svg>