<svg xmlns="http://www.w3.org/2000/svg" viewBox="0 0 170.19 115.91"><defs><style>.cls-1{fill:#ad0e17;}.cls-2{fill:#fff;}</style></defs><g id="Capa_2" data-name="Capa 2"><g id="Capa_2-2" data-name="Capa 2"><polygon class="cls-1" points="0 0 121.83 0 170.19 25.94 170.19 115.91 48.76 115.91 0 89.73 0 0"/><polygon class="cls-2" points="8.7 55.58 75.2 55.58 122.32 10.51 161.39 31.44 161.46 107.21 50.83 107.21 8.7 84.89 8.7 55.58"/><path class="cls-1" d="M133.65,85.5a.31.31,0,0,0,.33.33h14.15a.31.31,0,0,0,.32-.33V82a.3.3,0,0,0-.32-.32h-9.51c-.13,0-.19-.07-.19-.2V76.94c0-.13.06-.2.19-.2h7.92a.3.3,0,0,0,.32-.32V73a.31.31,0,0,0-.32-.33h-7.92a.17.17,0,0,1-.19-.19V68.08c0-.13.06-.2.19-.2h9.51a.3.3,0,0,0,.32-.32V64.08a.3.3,0,0,0-.32-.32H134a.31.31,0,0,0-.33.32Zm-24.43,0a.31.31,0,0,0,.32.33h3.67a.31.31,0,0,0,.32-.33V73.07h.13l4.09,9.32a.63.63,0,0,0,.62.42h2.24a.61.61,0,0,0,.61-.42l4.09-9.32h.13V85.5a.31.31,0,0,0,.33.33h3.67a.31.31,0,0,0,.32-.33V64.08a.3.3,0,0,0-.32-.32h-3.8a.51.51,0,0,0-.52.32l-5.49,12.6h-.12l-5.59-12.6a.5.5,0,0,0-.52-.32h-3.86a.3.3,0,0,0-.32.32Zm-11.56.68c5.72,0,8.67-3,8.67-6.94s-2.4-6.07-7-6.69l-1.16-.16C95.68,72,94.77,71.22,94.77,70s1-2.4,3-2.4a9.14,9.14,0,0,1,5.13,1.68.32.32,0,0,0,.45-.09l2-3c.16-.22.13-.35-.07-.48a12.43,12.43,0,0,0-7.49-2.31c-4.77,0-7.82,2.7-7.82,6.75,0,3.9,2.5,6,7,6.62l1.17.17c2.63.35,3.41,1.16,3.41,2.46,0,1.56-1.3,2.63-3.6,2.63a9.36,9.36,0,0,1-5.78-2.27.33.33,0,0,0-.49,0l-2.46,2.82a.4.4,0,0,0,0,.56,13,13,0,0,0,8.5,3M81.57,85.5a.31.31,0,0,0,.32.33H86a.31.31,0,0,0,.33-.33V64.08a.31.31,0,0,0-.33-.32H81.89a.3.3,0,0,0-.32.32ZM70.5,73.36H66.6a.17.17,0,0,1-.19-.19V68.08c0-.13.06-.2.19-.2h3.9a2.75,2.75,0,1,1,0,5.48m8,12.47a.25.25,0,0,0,.23-.39l-4.35-8.7a6.47,6.47,0,0,0,3.93-6.13c0-4-3-6.85-7.5-6.85H62a.3.3,0,0,0-.32.32V85.5a.31.31,0,0,0,.32.33h4.13a.31.31,0,0,0,.32-.33V77.62c0-.13.06-.2.19-.2h3l3.79,8.08a.45.45,0,0,0,.49.33Zm-29.05.35c4.94,0,8.44-3,8.44-8.47V64.08a.3.3,0,0,0-.32-.32H53.4a.31.31,0,0,0-.33.32V77.84c0,2.63-1.46,4.13-3.67,4.13s-3.7-1.5-3.7-4.13V64.08a.3.3,0,0,0-.32-.32H41.26a.31.31,0,0,0-.33.32V77.71c0,5.49,3.51,8.47,8.47,8.47m-17.13-.35a.31.31,0,0,0,.32-.33V68.2a.18.18,0,0,1,.2-.19h5.58a.3.3,0,0,0,.32-.32V64.08a.3.3,0,0,0-.32-.32H22.05a.31.31,0,0,0-.33.32v3.61a.31.31,0,0,0,.33.32h5.58a.17.17,0,0,1,.19.19V85.5a.31.31,0,0,0,.33.33Z"/><path class="cls-2" d="M67.37,40.51V35.09a.18.18,0,0,1,.2-.21h3.85c2.06,0,3.16,1.13,3.16,2.92s-1.1,2.92-3.16,2.92H67.57a.18.18,0,0,1-.2-.21m.2-9.51a.18.18,0,0,1-.2-.2V25.75a.18.18,0,0,1,.2-.2h3.57c1.93,0,3.06,1,3.06,2.71S73.07,31,71.14,31ZM62.32,44.46a.33.33,0,0,0,.35.34h8.85c5,0,8.1-2.2,8.1-6.8a5.51,5.51,0,0,0-3.12-5.28v-.07a5.33,5.33,0,0,0,2.71-5c0-3.7-2.37-6.21-7.45-6.21H62.67a.33.33,0,0,0-.35.34ZM46.71,36.08l2.64-8.17h.1l2.65,8.17Zm-7.9,8.38c-.07.2,0,.34.24.34h4.5a.42.42,0,0,0,.45-.34l1.3-4.09h8.17l1.34,4.09a.41.41,0,0,0,.44.34h4.47c.24,0,.3-.14.24-.34L52.06,21.8a.44.44,0,0,0-.44-.34H47.29a.45.45,0,0,0-.45.34ZM22,44.46a.33.33,0,0,0,.34.34H37.58a.33.33,0,0,0,.34-.34V40.65a.33.33,0,0,0-.34-.35H27.28c-.14,0-.2-.06-.2-.2V21.8a.33.33,0,0,0-.35-.34H22.37a.33.33,0,0,0-.34.34Z"/></g></g></svg>