<?xml version="1.0" encoding="utf-8"?>
<!-- Generator: Adobe Illustrator 24.2.1, SVG Export Plug-In . SVG Version: 6.00 Build 0)  -->
<svg version="1.1" id="Capa_1" xmlns="http://www.w3.org/2000/svg" xmlns:xlink="http://www.w3.org/1999/xlink" x="0px" y="0px"
	 viewBox="0 0 83.6 83.6" style="enable-background:new 0 0 83.6 83.6;" xml:space="preserve">
<style type="text/css">
	.st0{fill:none;stroke:#A52030;stroke-width:3.92;stroke-linecap:round;stroke-linejoin:round;stroke-miterlimit:10;}
	.st1{fill:#FCFCFC;stroke:#A52030;stroke-width:3.92;stroke-linecap:round;stroke-linejoin:round;stroke-miterlimit:10;}
	.st2{fill:none;stroke:#A52030;stroke-width:3.92;stroke-linejoin:round;stroke-miterlimit:10;}
</style>
<g>
	<path class="st0" d="M46.6,2.5h-8.6c-1.9,0-3.5,1.5-3.5,3.5v16.6c0,1.9,1.5,3.5,3.5,3.5h8.6c1.9,0,3.5-1.5,3.5-3.5V6
		C50,4.1,48.5,2.5,46.6,2.5z"/>
	<path class="st1" d="M59,24.9H26.2c-2.8,0-5.1,2.3-5.1,5.1v41.7c0,2.8,2.3,5.1,5.1,5.1H59c2.8,0,5.1-2.3,5.1-5.1V30
		C64.1,27.2,61.8,24.9,59,24.9z"/>
	<line class="st2" x1="35.1" y1="10.8" x2="50" y2="10.8"/>
	<path class="st0" d="M64.1,37.2c-6,2.7-13.4,4.3-21.5,4.3s-15.5-1.6-21.5-4.3"/>
	<line class="st0" x1="31.8" y1="53.4" x2="54" y2="53.4"/>
	<line class="st0" x1="31.8" y1="65" x2="54" y2="65"/>
	<g>
		<line class="st0" x1="31.6" y1="81.1" x2="31.6" y2="77.3"/>
		<line class="st0" x1="53.6" y1="81.1" x2="53.6" y2="77.3"/>
	</g>
</g>
</svg>
