<svg id="Capa_1" data-name="Capa 1" xmlns="http://www.w3.org/2000/svg" xmlns:xlink="http://www.w3.org/1999/xlink" viewBox="0 0 296.95 60.8"><defs><style>.cls-1{fill:none;}.cls-2{fill:#fff;}.cls-3{stroke:#fff;stroke-miterlimit:10;}.cls-4{clip-path:url(#clip-path);}</style><clipPath id="clip-path"><path class="cls-1" d="M.25,30.36A29.08,29.08,0,1,0,29.32,1.28,29.07,29.07,0,0,0,.25,30.36"/></clipPath></defs><path class="cls-2" d="M227.34,18.11H232c2.79,0,4.88,1.7,4.88,5.16,0,3-1.59,5.29-4.88,5.29h-4.64Zm2.36,8.52h2.12c1.36,0,2.68-.83,2.68-3.14,0-2.1-.76-3.45-3.11-3.45H229.7Z"/><path class="cls-2" d="M240.68,19.82h-2.14V18.11h2.14ZM238.54,21h2.14v7.57h-2.14Z"/><path class="cls-2" d="M242.63,21h2v1h0A2.6,2.6,0,0,1,247,20.79c2.44,0,3.55,1.92,3.55,4.07s-1.15,3.9-3.42,3.9a2.78,2.78,0,0,1-2.34-1.14h0v3.6h-2.15Zm5.8,3.81c0-1.2-.5-2.45-1.87-2.45s-1.86,1.22-1.86,2.45.48,2.4,1.87,2.4S248.43,26,248.43,24.8Z"/><path class="cls-2" d="M259.36,28.56h-2V27.5h-.05a2.79,2.79,0,0,1-2.38,1.26c-2.28,0-2.84-1.24-2.84-3.12V21h2.13v4.27c0,1.25.38,1.87,1.38,1.87,1.16,0,1.65-.63,1.65-2.17V21h2.15Z"/><path class="cls-2" d="M264,21h1.57v1.39H264v3.75c0,.7.18.88.9.88a3.79,3.79,0,0,0,.67-.06v1.62a8.35,8.35,0,0,1-1.26.08c-1.31,0-2.45-.3-2.45-1.8V22.38h-1.29V21h1.29V18.72H264Z"/><path class="cls-2" d="M267.26,23.32c.12-1.95,1.91-2.53,3.66-2.53,1.55,0,3.42.33,3.42,2.15v3.94a3.88,3.88,0,0,0,.27,1.68h-2.17a3.06,3.06,0,0,1-.15-.73,3.66,3.66,0,0,1-2.62.93c-1.48,0-2.65-.71-2.65-2.26,0-1.72,1.32-2.13,2.65-2.3s2.53-.15,2.53-1-.63-1-1.38-1-1.34.32-1.42,1.14Zm4.94,1.54a4.38,4.38,0,0,1-1.77.43c-.67.14-1.28.35-1.28,1.12s.62,1,1.32,1a1.56,1.56,0,0,0,1.73-1.74Z"/><path class="cls-2" d="M281.36,23.66a1.46,1.46,0,0,0-1.59-1.31c-1.37,0-1.82,1.35-1.82,2.46s.43,2.39,1.78,2.39a1.63,1.63,0,0,0,1.7-1.54h2.06a3.44,3.44,0,0,1-3.74,3.1,3.73,3.73,0,0,1-3.94-3.88,3.79,3.79,0,0,1,4-4.09c1.84,0,3.52.93,3.66,2.87Z"/><path class="cls-2" d="M287.32,19.82h-2.14V18.11h2.14ZM285.18,21h2.14v7.57h-2.14Z"/><path class="cls-2" d="M292.91,20.79a3.76,3.76,0,0,1,4,4,4,4,0,0,1-8.06,0A3.76,3.76,0,0,1,292.91,20.79Zm0,6.41c1.47,0,1.9-1.22,1.9-2.42s-.43-2.43-1.9-2.43S291,23.57,291,24.78,291.46,27.2,292.91,27.2Zm.36-7.14h-1.48L293.23,18h2.37Z"/><path class="cls-2" d="M227.31,33.5h4.91c2,0,3.34.64,3.34,2.59a2.28,2.28,0,0,1-1.42,2.18,2.56,2.56,0,0,1,1.92,2.65c0,2.13-1.8,3-3.69,3h-5.06Zm2.3,4.23h2.32c.81,0,1.41-.36,1.41-1.25s-.76-1.2-1.58-1.2h-2.15Zm0,4.44h2.45c.91,0,1.7-.3,1.7-1.38s-.67-1.49-1.65-1.49h-2.5Z"/><path class="cls-2" d="M237.33,38.71c.12-1.94,1.86-2.53,3.56-2.53,1.5,0,3.32.33,3.32,2.15v3.94a3.9,3.9,0,0,0,.26,1.68h-2.1a2.56,2.56,0,0,1-.15-.73,3.46,3.46,0,0,1-2.54.93c-1.44,0-2.58-.71-2.58-2.26,0-1.72,1.29-2.12,2.58-2.3s2.45-.15,2.45-1-.62-1-1.34-1-1.31.32-1.38,1.14Zm4.8,1.54a4.27,4.27,0,0,1-1.72.44c-.65.13-1.24.35-1.24,1.11s.6,1,1.28,1A1.54,1.54,0,0,0,242.13,41Z"/><path class="cls-2" d="M245.85,36.39h2v1.4h0a2.7,2.7,0,0,1,2.42-1.61,1.38,1.38,0,0,1,.45.08v1.92a4.14,4.14,0,0,0-.74-.07c-1.53,0-2,1.1-2,2.43V44h-2.08Z"/><path class="cls-2" d="M256.46,39.05a1.43,1.43,0,0,0-1.54-1.31c-1.33,0-1.77,1.35-1.77,2.46s.42,2.39,1.73,2.39a1.59,1.59,0,0,0,1.65-1.54h2a3.39,3.39,0,0,1-3.65,3.1,3.66,3.66,0,0,1-3.81-3.87c0-2.36,1.39-4.1,3.86-4.1,1.78,0,3.42.94,3.55,2.87Z"/><path class="cls-2" d="M261.45,40.67c.06,1.32.7,1.92,1.86,1.92a1.7,1.7,0,0,0,1.63-1h1.84a3.41,3.41,0,0,1-3.55,2.54,3.69,3.69,0,0,1-3.86-4,3.79,3.79,0,0,1,3.86-4c2.58,0,3.83,2.17,3.68,4.49Zm3.38-1.32c-.2-1.05-.64-1.61-1.66-1.61a1.64,1.64,0,0,0-1.72,1.61Z"/><path class="cls-2" d="M268.22,33.5h2.08V44h-2.08Z"/><path class="cls-2" d="M275.64,36.18a3.71,3.71,0,0,1,3.92,4,3.91,3.91,0,1,1-7.82,0A3.71,3.71,0,0,1,275.64,36.18Zm0,6.41c1.43,0,1.85-1.21,1.85-2.42s-.42-2.43-1.85-2.43-1.83,1.22-1.83,2.43S274.24,42.59,275.64,42.59Z"/><path class="cls-2" d="M280.94,36.39h2v1h0a2.7,2.7,0,0,1,2.31-1.26c2.21,0,2.77,1.24,2.77,3.12V44H286V39.68c0-1.25-.36-1.86-1.34-1.86S283,38.45,283,40v4h-2.08Z"/><path class="cls-2" d="M289.56,38.71c.11-1.94,1.85-2.53,3.55-2.53,1.51,0,3.33.33,3.33,2.15v3.94A3.9,3.9,0,0,0,296.7,44h-2.11a3.5,3.5,0,0,1-.15-.73,3.43,3.43,0,0,1-2.54.93c-1.44,0-2.58-.71-2.58-2.26,0-1.72,1.29-2.12,2.58-2.3s2.46-.15,2.46-1-.62-1-1.34-1-1.31.32-1.39,1.14Zm4.8,1.54a4.32,4.32,0,0,1-1.73.44c-.64.13-1.23.35-1.23,1.11s.6,1,1.28,1A1.54,1.54,0,0,0,294.36,41Z"/><path class="cls-2" d="M200.66,26.71l-1.23,1.23v4.72h-4.69l-1.24,1.23,1.24,1.24h4.69v4.71l1.23,1.23,1.24-1.23V35.13h4.7l1.24-1.24-1.24-1.23h-4.7V27.94Zm0-15.1a19,19,0,1,0,19,19,19,19,0,0,0-19-18.95m6.92,7.21a.75.75,0,1,1,0,1.49.75.75,0,0,1,0-1.49M193.5,22.77h14.29v.5H193.5Zm11.62,1.49v4.43l-2.22-2.23v-2.2Zm-6.68,0v2.21l-2.23,2.22V24.26Zm-3.95,0v6.16l-2.23,2.23V24.26Zm-1-3.22h14.33v1H193.5Zm13.35,3.22h2.22v8.38l-2.22-2.22Zm-.5-4.7a.74.74,0,1,1-.74-.74.74.74,0,0,1,.74.74m-1.72-2.47a.75.75,0,1,1-.74.75.75.75,0,0,1,.74-.75m-1,1.73a.75.75,0,1,1-.75.74.74.74,0,0,1,.75-.74m-1.24.74a.75.75,0,0,1-.75.75.75.75,0,0,1,0-1.49.75.75,0,0,1,.75.74m-1.74-2.47a.75.75,0,1,1-.74.75.75.75,0,0,1,.74-.75m-1,1.73a.75.75,0,0,1,0,1.49.75.75,0,0,1,0-1.49m-1.24.74a.74.74,0,0,1-.74.75.75.75,0,1,1,.74-.75m-1.73-2.47a.75.75,0,1,1-.74.75.75.75,0,0,1,.74-.75m-1,1.73a.75.75,0,1,1-.74.74.74.74,0,0,1,.74-.74m-1.23.74a.75.75,0,0,1-.75.75.75.75,0,0,1,0-1.49.75.75,0,0,1,.75.74m-1.74-2.47a.75.75,0,0,1,0,1.49.75.75,0,0,1,0-1.49M194.49,44h-2.23V35.14l2.23,2.22Zm3.95,0h-2.23V39.09l2.23,2.23Zm6.68,0H202.9V41.32l2.22-2.22Zm3.95,0h-2.22V37.37l2.22-2.23Zm-8.4-1.58-8.56-8.56,8.56-8.56,8.56,8.56Zm7.91-23.87a.75.75,0,1,1,.74-.74.74.74,0,0,1-.74.74"/><line class="cls-3" x1="168.46" y1="60.8" x2="168.46"/><g class="cls-4"><path class="cls-2" d="M29.32,54.69C14.14,54.69,1.46,44,.15,30.3c-.07.79.1,1.58.1,2.38,0,14.78,13,26.76,29.07,26.76s29.09-12,29.09-26.76a22.25,22.25,0,0,0,.12-2.29c-1.3,13.67-14,24.3-29.21,24.3"/><path class="cls-2" d="M29.3,6C44.61,6,57.17,16.76,58.49,30.43a23.41,23.41,0,0,0,.12-2.38c0-14.78-13.13-26.77-29.31-26.77S0,13.27,0,28.05c0,.8,0,1.6.11,2.38C1.42,16.76,14,6,29.3,6"/></g><path class="cls-2" d="M55,31.1c-.1-.13-.26,0-.34.15l.27.13-.13.13.1.19-.21,0,.05-.16-.3-.07c.07-.47-.36-.54-.29-.06h-.06v-.25c-.25,0-.41,0-.36.38h.48s.06.38.21.26v.06h-.26L54,31.7c-.11,0-.29.13-.38,0-.21.32-.64,0-.91.32-.07-.25-.45.22-.45-.25l.13-.17c-.13,0-.34-.05-.37-.22.24-.22.51-.13.8-.09l.16,0c-.38-.12,0-.51-.16-.8-.11-.06-.37-.19-.45,0l.16.12c0,.14,0,.43.11.46-.11.1-.35.25-.49,0l0-.26-.21.51c.08.13-.08.17-.15.19l.18.16-.08.17h.29V32c-.24.06-.51-.1-.74.13-.16-.39-.52.22-.58-.13l-.25.16-.13-.32h-.19l0-.06-.09.25-.24-.13c0,.26-.29.1-.42,0-.17.16-.46,0-.51.33l.08.11c-.32.55-1-.15-1.2.55l-.21-.09,0,.06c.08.32.32,0,.48.13.1-.35.24-.22.47-.19l0,.09c.14.19.43,0,.48.19l-.31.1.13.25-.16-.09c-.09,0,0-.16,0-.13a.61.61,0,0,1-.35-.06c0,.19-.24-.22-.37.06.11.07.29.13.18.29H48l-.21-.1c0,.13.24-.06.24-.09-.22-.1-.67,0-.67-.32l.32-.1-.08-.39.4-.34a.26.26,0,0,0-.32-.07c-.1-.35-.46-.32-.69-.28-.22.22-.49-.07-.65.22l-.16-.29-.23.07-.19-.07v.16l-.11-.16c-.21.19-.48,0-.63.16l.05-.09c-.19-.1-.54.25-.56-.17-.08.13-.33,0-.35.17l0-.1c-.27.1-.61,0-.9.19-.49-.31-.51-.09-1-.61h-.06c-.13-.28.49-.35.19-.64,0-.31.48-.7.17-.92.18-.35.48-.07.72-.25.29.12.58.44.87.18h.13l0,.13c.38-.19,1.21-.16,1.18-.31.1.25.48,0,.48.41,0-.12-.1-.36,0-.36.21.24.53-.31.69.1.24-.32.37.45.56-.1.16.1-.08.77.27.49l.21.12.11-.37-.08,0a.26.26,0,0,1,.32-.1c.26-.1.42-.44.72-.57l0-.1-.14-.13c.22-.15-.1-.5.25-.48l.05-.31c-.56-.68.48-.71.27-1.12v-.16h0c-.1-.16.08-.45.13-.54l.12.18.12-.16c0-.19-.29-.34-.07-.56l.24.12c.16-.26-.35-1,.35-1.16L50,24.35c.64-.1-.24-.71.34-.82,0-.33.52-.49.43-.13h0c.14.38.5-.07.64.28l.15,0c.16.14-.23.3,0,.39,0-.13.17-.35.27-.25-.24.31-.3.54.08.73-.38,0-.38.8-.22,1.13l-.16.15c-.1-.42-.21-.35-.53-.42l-.06.13c.73-.16.3.86.49,1.06-.24-.2-.49.9-.64.29l0-.13-.35.16,0,.28-.1.07c.1.16-.29.29,0,.41l.08-.12.13.06c-.21-.38.27-.38.45-.47l.14.21c-.17-.09-.37.17-.37.32-.33.13-.67.29-.94,0-.45.17.56.36.56.54l-.34.29.37.17c-.26.09-.35.7-.66.63a.49.49,0,0,0-.06.42l.27-.07.13.29c.34.07.06-.35.34-.18l-.12.12c.07.25.34-.1.45.15h.2l0,.2.07.06c.16-.28.33-.38.49,0-.08,0-.22.28,0,.32l.23-.38-.1-.2.29,0v.22c.22-.1.51-.2.62-.47l.15.12-.15.13c0,.15.15.32.28.15.22.13.54-.15.54.26.19,0,.14-.41.3-.29,0-.1.1-.37.24-.25l.1.15c-.29,0,0,.33,0,.54-.19.14-.05-.56-.32-.24.13.12.08.38.08.54l-.1.13c.19-.07.51-.13.52-.36.32.1.57-.7.76-.16-.3-.15-.41.16-.51.39l.18.16c0-.16.17-.39.28-.32l.28.29Zm-8.43-1.25V30l.16,0Zm1,7v-.22c-.28-.1,0,.22-.22.12l.08-.12-.08-.1h-.14L47,36.39c-.16.17.16.27,0,.33a.15.15,0,0,1-.22-.13l.11-.06,0-.33.19.07c0,.1.08.26.21.17l.14-.24.21.46Zm-.81.36c0-.17.22-.24.3-.24-.14,0-.14.29-.3.24m.16.57h-.1a.63.63,0,0,1,.16-.38l.27.18c-.06.14-.38,0-.33.2m.16-2.3-.24,0,.14-.29.18.09Zm-.16-.36v-.09a.09.09,0,0,1,.08.09ZM47,36l0,0,0-.09.06.09Zm.16,1.41h-.08v-.1l.11,0ZM48.25,35l-.08-.09L48,35c.11.1.24.29.37.16l.08,0c0,.26-.32.07-.45.26l.18.13-.1.29.1.12-.23.1-.09-.29h0l.24-.38c-.22-.1,0-.42-.24-.42l0-.42-.15.26v0h-.19l-.16-.19-.14.16c.28.07-.13.32.14.42l.24-.16c-.08.22.24.48,0,.7l.1.16c-.21-.29-.29.16-.51.06a.43.43,0,0,1,.3-.35c-.13-.07-.43-.25-.27-.48-.13-.23-.26-.32-.11-.61v-.19c.2,0,.46.1.54-.12l.24.12a.86.86,0,0,0,.53-.22l0-.16c-.13.26-.34-.16-.5,0-.21-.22-.35.32-.56,0l-.11.16,0,0c.17-.16-.21-.71.28-.54.07,0,.13.19.21.28h0v-.25c.24.25.51-.16.69.22l.25-.1c0,.46-.46.58-.46,1.25m-.71-5.21-.22-.06c0-.2.24-.13.32,0Zm-.06,1.15-.08.2.27.19a.38.38,0,0,0-.19-.39m-.08,6.68,0-.09,0,0Zm0-5.28,0-.11c.06,0,.06.05.06.11Zm.24-1.62s-.06.06,0,.13l.13-.1Zm0,6.61v0l.11-.26,0,.24Zm.24-.34-.13-.07c0-.1.13-.22.21-.16ZM48,34.1v.13c-.22,0-.09-.1,0-.13m-.11-4,.08.1c.08-.07.29-.16.29-.32s-.29.1-.37.22m.4,6,0-.1c.08,0,.11,0,.16.07Zm.08-2.52,0-.1h.13v.1Zm.51-.8h0V32.6l.08.13Zm0-4.45c0,.29.24.25.21.42h0c0-.17,0-.38-.24-.42m.07,5.56c-.07-.21.14-.28.14-.06Zm.27-1.33v-.1c.08,0,.11,0,.11,0v.08Zm.21-5.82.24-.13c-.08,0-.24-.1-.24.13m.16,1.75s0,.09.06.13l.06-.09ZM50.26,31c-.09.13-.27.35-.38.26v.09c.11.06.29-.06.4-.13l0,0,0,.15c.19.07.21-.19.4-.15Zm-.33-4.85H50l0,0c0-.07,0,0-.11,0m.06.6.14.26,0-.29.11,0c-.05-.32-.18.19-.29,0m0,2.66c-.08-.17.25-.17.32-.17,0,.17-.23.17-.32.17m.22-4,.13.17c0-.17-.1-.14-.13-.17m.13.71v.15c.13-.15.27-.06.4,0-.08-.26-.27,0-.4-.15m.17,2,0-.09c0-.22.22-.19.36-.09s-.25,0-.32.18m0-1.11.07-.1,0,.1Zm0,1.66s0-.13,0-.13l0,.13Zm0-.29,0-.15.08.06Zm.34-5.21,0-.13.08.13ZM51.5,31l.06.06-.27.26.37-.13Zm1.21.89c.13,0,.13-.16,0-.31-.09.05-.09.22,0,.31M52.89,30l.08-.25c.08,0,.24.15.16.27Zm.16.73a1,1,0,0,0,.43,0c-.16-.14-.48-.38-.43,0m.38.39-.38.06c.24.09.16.39.08.61.08-.22.16-.26.33-.26Zm.72-.84,0-.16c.14,0,.19,0,.14.2Zm.93.35L55,30.52c-.07-.16.11-.16.14,0Zm.27.55.08.22h-.22c-.24-.32.19-.22.19-.45l.19.17v.12Z"/><path class="cls-2" d="M6.52,24.4h5.7c2.1,0,4.42.51,4.42,3.05A2.74,2.74,0,0,1,15,29.91a2.9,2.9,0,0,1,2.09,2.89c0,2.91-2.13,3.8-4.75,3.8H6.52Zm3.17,4.8h2.47A1.19,1.19,0,0,0,13.46,28c0-.89-.64-1.17-1.3-1.17H9.69Zm0,4.85h2.55c1,0,1.71-.36,1.71-1.36s-.75-1.45-1.71-1.45H9.69Z"/><path class="cls-2" d="M26.35,28.75a2.21,2.21,0,0,0-2.46-1.88c-2.05,0-2.83,1.81-2.83,3.62s.78,3.62,2.83,3.62a2.25,2.25,0,0,0,2.46-2.25h3.18c-.17,3.15-2.48,5-5.57,5a6,6,0,0,1-6.09-6.36A6,6,0,0,1,24,24.13c2.64,0,5.49,1.69,5.57,4.62Z"/><polygon class="cls-2" points="30.59 24.4 33.85 24.4 38.09 31.91 38.13 31.91 38.13 24.4 41.12 24.4 41.12 36.6 37.85 36.6 33.62 28.99 33.59 28.99 33.59 36.6 30.59 36.6 30.59 24.4"/><path class="cls-2" d="M66.89,40.78a6.84,6.84,0,0,0-.06.76,2.12,2.12,0,0,0,2.26,2.11A2.49,2.49,0,0,0,71.6,42H73a3.79,3.79,0,0,1-3.94,2.91,3.33,3.33,0,0,1-3.69-3.48c0-3.33,2.09-5.6,4.47-5.6,2.57,0,3.69,1.39,3.69,3.84a6.27,6.27,0,0,1-.13,1.12Zm5.25-1.25a2,2,0,0,0-2-2.46,3.08,3.08,0,0,0-3,2.46Zm-.8-7.11h1.9L71,34.82H69.77Z"/><path class="cls-2" d="M80.23,38.57c.08-1-.81-1.5-1.79-1.5s-1.85.23-1.85,1.11,1.14,1.13,2.28,1.6,2.31,1.08,2.31,2.44c0,1.93-1.87,2.68-3.55,2.68-2,0-3.53-.71-3.52-2.94h1.44c-.07,1.3,1,1.69,2.21,1.69.93,0,2-.34,2-1.33s-1.15-1.18-2.29-1.64-2.3-1-2.3-2.36c0-1.62,1.61-2.51,3.23-2.51s3.28.73,3.28,2.76Z"/><path class="cls-2" d="M88.79,36h1.34L89.8,37.3l0,.05a4,4,0,0,1,3-1.54,2,2,0,0,1,2.2,1.57,3.78,3.78,0,0,1,3-1.57c1.23,0,2.42.54,2.42,1.95a8.3,8.3,0,0,1-.25,1.73l-1.1,5.22H97.68l1.2-5.51a4.75,4.75,0,0,0,.14-1,1.23,1.23,0,0,0-1.32-1.18,3.06,3.06,0,0,0-2.19,1.2,4,4,0,0,0-.81,1.95l-1,4.49H92.31l1-5a9.89,9.89,0,0,0,.27-1.54,1.07,1.07,0,0,0-1.2-1.14,3.13,3.13,0,0,0-2.14,1.11,3.29,3.29,0,0,0-.93,2l-1,4.56H87Z"/><path class="cls-2" d="M106.51,35.81a3.26,3.26,0,0,1,3.62,3.6c0,2.84-1.78,5.49-4.82,5.49a3.44,3.44,0,0,1-3.67-3.62c0-2.84,1.83-5.47,4.87-5.47m-1,7.84c2.07,0,3.23-2.41,3.23-4.12a2.21,2.21,0,0,0-2.3-2.46c-2.18,0-3.32,2.39-3.32,4.19a2.19,2.19,0,0,0,2.39,2.39"/><polygon class="cls-2" points="113.46 32.7 114.89 32.7 112.36 44.71 110.93 44.71 113.46 32.7"/><path class="cls-2" d="M118.46,36h1.74l-.27,1.25h-1.74l-1.07,5.12a5.48,5.48,0,0,0-.05.57c0,.45.42.59.86.59a2.89,2.89,0,0,0,.82-.15l-.25,1.31a4.94,4.94,0,0,1-1,.1c-1.06,0-1.95-.3-1.95-1.41a3.61,3.61,0,0,1,.08-.72l1.15-5.41H115.3l.27-1.25H117l.54-2.58H119Z"/><path class="cls-2" d="M126.49,36h1.32l-.32,1.28,0,.05a4,4,0,0,1,3-1.54,2,2,0,0,1,2.19,1.57,3.76,3.76,0,0,1,3-1.57c1.23,0,2.42.54,2.42,1.95a8.3,8.3,0,0,1-.25,1.73l-1.09,5.22h-1.43l1.21-5.51a4.7,4.7,0,0,0,.13-1,1.23,1.23,0,0,0-1.32-1.18,3.1,3.1,0,0,0-2.2,1.2,4.09,4.09,0,0,0-.81,1.95l-.95,4.49H130l1-5a13.22,13.22,0,0,0,.27-1.54,1.08,1.08,0,0,0-1.22-1.14A3.13,3.13,0,0,0,128,38.18a3.29,3.29,0,0,0-.93,2l-1,4.56h-1.42Z"/><path class="cls-2" d="M140.69,40.78a6.68,6.68,0,0,0,0,.76,2.12,2.12,0,0,0,2.25,2.11A2.46,2.46,0,0,0,145.4,42h1.43a3.77,3.77,0,0,1-3.93,2.91,3.32,3.32,0,0,1-3.68-3.48c0-3.33,2.08-5.6,4.47-5.6,2.55,0,3.68,1.39,3.68,3.84a6.45,6.45,0,0,1-.12,1.12ZM146,39.53a2,2,0,0,0-2-2.46,3.07,3.07,0,0,0-3,2.46Zm-.8-7.11h1.91l-2.29,2.4h-1.18Z"/><path class="cls-2" d="M154.05,38.57c.07-1-.8-1.5-1.8-1.5s-1.85.23-1.85,1.11,1.14,1.13,2.28,1.6S155,40.86,155,42.22c0,1.93-1.88,2.68-3.55,2.68-2,0-3.53-.71-3.52-2.94h1.43c-.07,1.3,1,1.69,2.21,1.69.93,0,2-.34,2-1.33s-1.14-1.18-2.28-1.64-2.31-1-2.31-2.36c0-1.62,1.62-2.51,3.23-2.51s3.29.73,3.29,2.76Z"/><path class="cls-2" d="M66.19,15.71h5.87c2.38,0,4,.76,4,3.08a2.73,2.73,0,0,1-1.68,2.61,3.05,3.05,0,0,1,2.29,3.16c0,2.53-2.16,3.62-4.4,3.62h-6Zm2.75,5h2.77c1,0,1.67-.43,1.67-1.48s-.89-1.43-1.88-1.43H68.94Zm0,5.3h2.93c1.08,0,2-.35,2-1.64s-.8-1.79-2-1.79h-3Z"/><path class="cls-2" d="M78,21.92c.13-2.32,2.21-3,4.24-3,1.8,0,4,.39,4,2.56v4.7a4.61,4.61,0,0,0,.31,2H84a3.71,3.71,0,0,1-.17-.88,4.11,4.11,0,0,1-3,1.12c-1.71,0-3.07-.86-3.07-2.71,0-2,1.54-2.52,3.07-2.73s2.94-.18,2.94-1.19-.74-1.23-1.62-1.23-1.55.39-1.64,1.36Zm5.73,1.83a4.87,4.87,0,0,1-2.06.54c-.78.15-1.47.41-1.47,1.32s.71,1.15,1.52,1.15a1.84,1.84,0,0,0,2-2.07Z"/><path class="cls-2" d="M88,19.14h2.35v1.68h0a3.21,3.21,0,0,1,2.89-1.91,2,2,0,0,1,.54.08v2.3a5.65,5.65,0,0,0-.89-.08c-1.82,0-2.45,1.31-2.45,2.9v4.07H88Z"/><path class="cls-2" d="M100.51,22.32a1.69,1.69,0,0,0-1.83-1.55c-1.59,0-2.12,1.61-2.12,2.93s.51,2.86,2.06,2.86a1.91,1.91,0,0,0,2-1.84H103a4,4,0,0,1-4.35,3.7,4.38,4.38,0,0,1-4.56-4.62c0-2.82,1.68-4.89,4.62-4.89,2.12,0,4.09,1.11,4.24,3.41Z"/><path class="cls-2" d="M106.32,24.27c.05,1.57.83,2.29,2.2,2.29a2,2,0,0,0,2-1.18h2.19a4.07,4.07,0,0,1-4.23,3,4.41,4.41,0,0,1-4.61-4.75,4.52,4.52,0,0,1,4.61-4.76c3.08,0,4.56,2.57,4.39,5.36Zm4-1.57c-.23-1.26-.76-1.92-2-1.92a1.93,1.93,0,0,0-2.05,1.92Z"/><rect class="cls-2" x="114.23" y="15.71" width="2.48" height="12.47"/><path class="cls-2" d="M122.93,18.91a4.43,4.43,0,0,1,4.69,4.76,4.67,4.67,0,1,1-9.34,0,4.41,4.41,0,0,1,4.65-4.76m0,7.65c1.7,0,2.2-1.46,2.2-2.89s-.5-2.9-2.2-2.9-2.18,1.45-2.18,2.9.51,2.89,2.18,2.89"/><path class="cls-2" d="M129.09,19.14h2.37v1.27h0a3.2,3.2,0,0,1,2.76-1.5c2.63,0,3.3,1.48,3.3,3.71v5.56h-2.48V23.07c0-1.48-.44-2.21-1.59-2.21-1.35,0-1.92.75-1.92,2.59v4.73h-2.49Z"/><path class="cls-2" d="M139.23,21.92c.14-2.32,2.22-3,4.24-3,1.8,0,4,.39,4,2.56v4.7a4.61,4.61,0,0,0,.31,2h-2.51a4.29,4.29,0,0,1-.18-.88,4.11,4.11,0,0,1-3,1.12c-1.7,0-3.07-.86-3.07-2.71,0-2,1.54-2.52,3.07-2.73S145,22.8,145,21.79s-.73-1.23-1.6-1.23-1.55.39-1.64,1.36ZM145,23.75c-.41.38-1.29.39-2,.54s-1.47.41-1.47,1.32.71,1.15,1.52,1.15a1.83,1.83,0,0,0,2-2.07Z"/></svg>