<svg xmlns="http://www.w3.org/2000/svg" viewBox="0 0 21.63 21.63"><defs><style>.cls-1{fill:#fff;}</style></defs><g id="Capa_2" data-name="Capa 2"><g id="Capa_2-2" data-name="Capa 2"><path class="cls-1" d="M0,10.82a10.8,10.8,0,0,0,6.47,9.9,9.67,9.67,0,0,1,.19-2.48l1.4-5.89a4.11,4.11,0,0,1-.35-1.71c0-1.61.93-2.81,2.09-2.81a1.45,1.45,0,0,1,1.45,1.63,23.65,23.65,0,0,1-.95,3.84A1.67,1.67,0,0,0,12,15.38c2.05,0,3.43-2.63,3.43-5.75,0-2.37-1.6-4.15-4.5-4.15a5.12,5.12,0,0,0-5.33,5.19,3.16,3.16,0,0,0,.71,2.12.52.52,0,0,1,.16.6l-.22.87a.37.37,0,0,1-.54.27C4.21,13.91,3.5,12.26,3.5,10.4c0-3.08,2.59-6.76,7.73-6.76,4.13,0,6.85,3,6.85,6.2,0,4.24-2.36,7.41-5.84,7.41A3.11,3.11,0,0,1,9.6,15.9s-.63,2.49-.76,3a9,9,0,0,1-1.09,2.32,10.7,10.7,0,0,0,3.07.44A10.82,10.82,0,1,0,0,10.82Z"/></g></g></svg>