<?xml version="1.0" encoding="utf-8"?>
<!-- Generator: Adobe Illustrator 24.3.0, SVG Export Plug-In . SVG Version: 6.00 Build 0)  -->
<svg version="1.1" id="Capa_1" xmlns:serif="http://www.serif.com/"
	 xmlns="http://www.w3.org/2000/svg" xmlns:xlink="http://www.w3.org/1999/xlink" x="0px" y="0px" viewBox="0 0 595.3 841.9"
	 style="enable-background:new 0 0 595.3 841.9;" xml:space="preserve">
<style type="text/css">
	.st0{fill:none;}
	.st1{fill:#FFFFFF;}
</style>
<g>
	<path class="st0" d="M430.9,154.8H164.8c-73.4,0-133.2,59.5-133.2,132.9v266.1c0,73.4,59.8,132.9,133.2,132.9h266.1
		c73.4,0,132.9-59.5,132.9-132.9V287.8C563.9,214.3,504.3,154.8,430.9,154.8z M413.6,466.4c-21.9,28.2-52.9,43.8-87.5,43.8
		c-18.3,0-37.2-7.6-48.9-18.9c-3.8,15.1-10.1,39.7-11.9,46.2c-2.2,8-23.9,78.8-48.1,72.3c-21.6-5.8-8.5-78.5-6.4-87.7
		c3.7-15.8,23.5-99.3,26.8-113.4c-2-4.8-6.5-17.3-6.5-34.1c0-34.1,20.6-60.9,47-60.9c20.7,0,34.7,15.2,34.7,37.9
		c0,13.2-5.1,29.8-10.6,47.4c-3,9.6-6,19.6-8.3,29.1c-2,8.4-0.4,16.5,4.6,22.8c5.3,6.6,13.6,10.4,22.8,10.4
		c21.4,0,35.4-16.5,43.3-30.3c11.4-19.9,17.7-46.9,17.7-76.1c0-46.3-31.4-75-82-75c-63.7,0-98.1,49.1-98.1,95.3
		c0,15.5,4,27.5,12.5,37.6c4.7,5.5,6.4,9.3,4.3,17.3c-1,4-3.3,13.3-4.3,17c-1.7,6.5-6.6,10.6-12.9,10.6c-2,0-3.9-0.4-5.9-1.2
		c-29.5-12-47.1-44.4-47.1-86.5c0-33.6,14.5-67.5,39.7-93c20.5-20.7,57.5-45.4,117.7-45.4c39.4,0,75.5,13.8,101.6,38.8
		c24.5,23.5,38.6,55.8,38.6,88.6C446.5,400.8,434.8,439,413.6,466.4z"/>
	<path class="st1" d="M407.9,270.3c-26.1-25-62.1-38.8-101.6-38.8c-60.2,0-97.3,24.7-117.7,45.4c-25.2,25.5-39.7,59.4-39.7,93
		c0,42.1,17.6,74.5,47.1,86.5c2,0.8,4,1.2,5.9,1.2c6.2,0,11.2-4.1,12.9-10.6c1-3.7,3.3-13,4.3-17c2.1-7.9,0.4-11.7-4.3-17.3
		c-8.5-10.1-12.5-22-12.5-37.6c0-46.2,34.4-95.3,98.1-95.3c50.6,0,82,28.7,82,75c0,29.2-6.3,56.2-17.7,76.1
		c-7.9,13.8-21.9,30.3-43.3,30.3c-9.3,0-17.6-3.8-22.8-10.4c-5-6.3-6.6-14.4-4.6-22.8c2.3-9.5,5.3-19.5,8.3-29.1
		c5.4-17.6,10.6-34.2,10.6-47.4c0-22.7-13.9-37.9-34.7-37.9c-26.3,0-47,26.8-47,60.9c0,16.7,4.5,29.3,6.5,34.1
		c-3.3,14.1-23,97.6-26.8,113.4c-2.2,9.2-15.2,81.9,6.4,87.7c24.2,6.5,45.9-64.3,48.1-72.3c1.8-6.5,8-31.1,11.9-46.2
		c11.7,11.3,30.5,18.9,48.9,18.9c34.5,0,65.6-15.5,87.5-43.8c21.2-27.4,32.9-65.5,32.9-107.4C446.5,326.2,432.4,293.9,407.9,270.3z"
		/>
</g>
</svg>
