<svg xmlns="http://www.w3.org/2000/svg" xmlns:xlink="http://www.w3.org/1999/xlink" viewBox="0 0 270.98 55.48"><defs><style>.cls-1,.cls-4{fill:none;}.cls-2{clip-path:url(#clip-path);}.cls-3{fill:#fcfcfc;}.cls-4{stroke:#fcfcfc;stroke-miterlimit:10;}.cls-5{clip-path:url(#clip-path-2);}.cls-6{fill:#ffcccd;}.cls-7{fill:#fe999f;}.cls-8{fill:#a52030;}</style><clipPath id="clip-path" transform="translate(0.23 0)"><rect class="cls-1" width="270.76" height="55.48"/></clipPath><clipPath id="clip-path-2" transform="translate(0.23 0)"><path class="cls-1" d="M0,27.71A26.54,26.54,0,1,0,26.53,1.17,26.53,26.53,0,0,0,0,27.71"/></clipPath></defs><g id="Capa_2" data-name="Capa 2"><g id="Capa_1-2" data-name="Capa 1"><g class="cls-2"><path class="cls-3" d="M207.23,16.53h4.23c2.55,0,4.46,1.55,4.46,4.71,0,2.77-1.46,4.82-4.46,4.82h-4.23Zm2.16,7.77h1.92c1.25,0,2.45-.75,2.45-2.86,0-1.92-.69-3.15-2.83-3.15h-1.54Z" transform="translate(0.23 0)"/><path class="cls-3" d="M219.4,18.09h-2V16.53h2Zm-2,1.07h2v6.9h-2Z" transform="translate(0.23 0)"/><path class="cls-3" d="M221.19,19.16h1.86V20h0A2.35,2.35,0,0,1,225.19,19c2.23,0,3.24,1.75,3.24,3.71s-1.05,3.57-3.13,3.57a2.55,2.55,0,0,1-2.13-1h0v3.28h-1.95Zm5.28,3.47c0-1.1-.45-2.23-1.7-2.23s-1.69,1.11-1.69,2.23.43,2.19,1.7,2.19,1.69-1.07,1.69-2.19" transform="translate(0.23 0)"/><path class="cls-3" d="M236.45,26.06h-1.86v-1h0a2.58,2.58,0,0,1-2.18,1.15c-2.07,0-2.59-1.14-2.59-2.85V19.16h1.94v3.89c0,1.14.35,1.7,1.26,1.7,1.06,0,1.51-.57,1.51-2V19.16h2Z" transform="translate(0.23 0)"/><path class="cls-3" d="M240.72,19.16h1.43v1.27h-1.43v3.41c0,.65.17.81.82.81a3.08,3.08,0,0,0,.61-.06v1.48a6.84,6.84,0,0,1-1.14.07c-1.2,0-2.24-.27-2.24-1.64V20.43h-1.18V19.16h1.18V17.09h1.95Z" transform="translate(0.23 0)"/><path class="cls-3" d="M243.66,21.28C243.77,19.51,245.4,19,247,19c1.42,0,3.12.31,3.12,2v3.59a3.44,3.44,0,0,0,.25,1.54h-2a2.5,2.5,0,0,1-.14-.67,3.3,3.3,0,0,1-2.39.86c-1.35,0-2.42-.66-2.42-2.07,0-1.57,1.21-1.94,2.42-2.1s2.31-.13,2.31-.91-.58-.93-1.27-.93-1.22.29-1.29,1Zm4.51,1.4a4,4,0,0,1-1.62.4c-.61.12-1.16.32-1.16,1s.56.88,1.2.88a1.43,1.43,0,0,0,1.58-1.59Z" transform="translate(0.23 0)"/><path class="cls-3" d="M256.52,21.59a1.32,1.32,0,0,0-1.45-1.19c-1.25,0-1.66,1.23-1.66,2.24s.4,2.18,1.63,2.18a1.48,1.48,0,0,0,1.55-1.4h1.88a3.14,3.14,0,0,1-3.42,2.83,3.4,3.4,0,0,1-3.59-3.55A3.46,3.46,0,0,1,255.09,19c1.68,0,3.22.86,3.34,2.62Z" transform="translate(0.23 0)"/><path class="cls-3" d="M262,18.09H260V16.53H262ZM260,19.16H262v6.9H260Z" transform="translate(0.23 0)"/><path class="cls-3" d="M267.07,19a3.44,3.44,0,0,1,3.69,3.64,3.68,3.68,0,0,1-7.36,0A3.43,3.43,0,0,1,267.07,19m0,5.85c1.33,0,1.73-1.11,1.73-2.21s-.4-2.21-1.73-2.21-1.72,1.11-1.72,2.21.4,2.21,1.72,2.21m.33-6.52H266l1.32-1.89h2.16Z" transform="translate(0.23 0)"/><path class="cls-3" d="M207.2,30.57h4.49c1.81,0,3,.59,3,2.36a2.11,2.11,0,0,1-1.29,2,2.33,2.33,0,0,1,1.75,2.41c0,1.94-1.65,2.76-3.37,2.76H207.2Zm2.1,3.86h2.12c.74,0,1.28-.33,1.28-1.14s-.69-1.09-1.44-1.09h-2Zm0,4h2.24c.83,0,1.55-.27,1.55-1.26s-.61-1.36-1.51-1.36H209.3Z" transform="translate(0.23 0)"/><path class="cls-3" d="M216.35,35.33c.11-1.78,1.7-2.32,3.25-2.32,1.37,0,3,.31,3,2v3.59a3.38,3.38,0,0,0,.24,1.53h-1.93a2.34,2.34,0,0,1-.13-.66,3.16,3.16,0,0,1-2.32.85c-1.31,0-2.35-.65-2.35-2.06,0-1.57,1.17-1.94,2.35-2.1s2.24-.14,2.24-.91-.57-.94-1.23-.94-1.19.3-1.25,1Zm4.38,1.4a3.84,3.84,0,0,1-1.58.4c-.59.12-1.12.32-1.12,1s.55.88,1.16.88a1.41,1.41,0,0,0,1.54-1.59Z" transform="translate(0.23 0)"/><path class="cls-3" d="M224.12,33.2h1.8v1.28h0a2.45,2.45,0,0,1,2.2-1.46,1.16,1.16,0,0,1,.42.07v1.75a3.58,3.58,0,0,0-.68-.06c-1.39,0-1.87,1-1.87,2.22v3.1h-1.9Z" transform="translate(0.23 0)"/><path class="cls-3" d="M233.8,35.63a1.29,1.29,0,0,0-1.4-1.19c-1.21,0-1.62,1.23-1.62,2.25s.39,2.18,1.58,2.18a1.46,1.46,0,0,0,1.51-1.41h1.83a3.09,3.09,0,0,1-3.33,2.83,3.34,3.34,0,0,1-3.48-3.53A3.41,3.41,0,0,1,232.42,33c1.62,0,3.12.85,3.24,2.61Z" transform="translate(0.23 0)"/><path class="cls-3" d="M238.36,37.12c0,1.2.64,1.75,1.69,1.75a1.57,1.57,0,0,0,1.5-.9h1.67A3.11,3.11,0,0,1,240,40.29a3.37,3.37,0,0,1-3.52-3.63A3.46,3.46,0,0,1,240,33c2.36,0,3.49,2,3.36,4.1Zm3.08-1.21c-.18-1-.59-1.47-1.51-1.47a1.49,1.49,0,0,0-1.57,1.47Z" transform="translate(0.23 0)"/><rect class="cls-3" x="244.76" y="30.57" width="1.9" height="9.53"/><path class="cls-3" d="M251.3,33a3.39,3.39,0,0,1,3.58,3.65,3.57,3.57,0,1,1-7.14,0A3.39,3.39,0,0,1,251.3,33m0,5.86c1.31,0,1.69-1.11,1.69-2.21s-.38-2.22-1.69-2.22-1.66,1.11-1.66,2.22.39,2.21,1.66,2.21" transform="translate(0.23 0)"/><path class="cls-3" d="M256.14,33.2H258v1h0A2.48,2.48,0,0,1,260.09,33c2,0,2.53,1.13,2.53,2.84V40.1h-1.9V36.21c0-1.14-.33-1.7-1.21-1.7s-1.47.58-1.47,2V40.1h-1.9Z" transform="translate(0.23 0)"/><path class="cls-3" d="M264,35.33c.1-1.78,1.69-2.32,3.24-2.32,1.38,0,3,.31,3,2v3.59a3.38,3.38,0,0,0,.24,1.53H268.6a2.34,2.34,0,0,1-.13-.66,3.15,3.15,0,0,1-2.33.85c-1.31,0-2.35-.65-2.35-2.06,0-1.57,1.18-1.94,2.35-2.1s2.25-.14,2.25-.91-.56-.94-1.23-.94-1.19.3-1.26,1Zm4.38,1.4a3.84,3.84,0,0,1-1.58.4c-.58.12-1.12.32-1.12,1s.55.88,1.16.88a1.41,1.41,0,0,0,1.54-1.59Z" transform="translate(0.23 0)"/><path class="cls-3" d="M182.89,24.37l-1.13,1.13v4.3h-4.28l-1.13,1.13,1.13,1.13h4.28v4.29l1.13,1.13L184,36.35V32.06h4.28l1.14-1.13L188.3,29.8H184V25.5Zm0-13.78a17.3,17.3,0,1,0,17.3,17.3,17.29,17.29,0,0,0-17.3-17.3m6.32,6.59a.68.68,0,1,1-.68.67.68.68,0,0,1,.68-.67m-12.86,3.6h13v.45h-13ZM187,22.14v4l-2-2v-2Zm-6.09,0v2l-2,2v-4Zm-3.61,0v5.62l-2,2V22.14Zm-.9-2.94h13.08v.9H176.35Zm12.18,2.94h2v7.64l-2-2Zm-.45-4.29a.68.68,0,1,1-.68-.67.68.68,0,0,1,.68.67M186.5,15.6a.68.68,0,1,1,0,1.36.68.68,0,0,1,0-1.36m-.89,1.58a.68.68,0,1,1-.68.67.67.67,0,0,1,.68-.67m-1.13.67a.68.68,0,0,1-.68.68.68.68,0,0,1,0-1.35.68.68,0,0,1,.68.67m-1.59-2.25a.68.68,0,1,1-.67.68.68.68,0,0,1,.67-.68m-.9,1.58a.68.68,0,1,1-.68.67.68.68,0,0,1,.68-.67m-1.14.67a.67.67,0,0,1-.67.68.68.68,0,1,1,0-1.35.67.67,0,0,1,.67.67m-1.57-2.25a.68.68,0,1,1,0,1.36.68.68,0,0,1,0-1.36m-.9,1.58a.68.68,0,1,1-.67.67.67.67,0,0,1,.67-.67m-1.12.67a.68.68,0,0,1-.69.68.68.68,0,0,1,0-1.35.68.68,0,0,1,.69.67m-1.59-2.25a.68.68,0,1,1-.67.68.67.67,0,0,1,.67-.68m1.58,24.58h-2V32.07l2,2Zm3.61,0h-2v-4.5l2,2Zm6.09,0h-2V37.71l2-2Zm3.61,0h-2V34.1l2-2Zm-7.67-1.44-7.81-7.81,7.81-7.81,7.82,7.81ZM190.11,17a.68.68,0,1,1,.68-.68.68.68,0,0,1-.68.68" transform="translate(0.23 0)"/><line class="cls-4" x1="153.72" y1="55.48" x2="153.72"/><path class="cls-3" d="M26.53,1.17A26.54,26.54,0,1,1,0,27.71,26.54,26.54,0,0,1,26.53,1.17" transform="translate(0.23 0)"/></g><g class="cls-5"><path class="cls-6" d="M26.53,49.91c-13.86,0-25.42-9.78-26.62-22.26-.07.72.09,1.44.09,2.17C0,43.31,11.87,54.24,26.53,54.24S53.07,43.31,53.07,29.82a18.41,18.41,0,0,0,.11-2.09C52,40.21,40.4,49.91,26.53,49.91" transform="translate(0.23 0)"/><path class="cls-7" d="M26.51,5.51c14,0,25.43,9.78,26.64,22.26.07-.71.11-1.44.11-2.17,0-13.49-12-24.43-26.75-24.43S-.23,12.11-.23,25.6c0,.73,0,1.46.11,2.17C1.07,15.29,12.54,5.51,26.51,5.51" transform="translate(0.23 0)"/></g><g class="cls-2"><path class="cls-8" d="M49.94,28.38c-.1-.12-.24,0-.31.14l.24.11-.12.12.09.18-.19,0,.05-.15-.27-.06c0-.43-.34-.49-.27-.06h0l0-.22c-.22,0-.37,0-.32.34h.44s0,.35.19.24v.06h-.24l-.09-.12c-.1,0-.27.12-.35,0-.19.29-.58,0-.83.29-.07-.23-.41.2-.41-.23l.12-.15c-.12,0-.31-.05-.34-.21.22-.19.46-.11.73-.08l.15,0c-.34-.11,0-.47-.15-.73-.1-.06-.34-.18-.41,0l.14.11c0,.12,0,.39.1.42-.1.09-.31.23-.44,0l0-.24-.2.47c.08.11-.07.15-.14.17l.17.15-.08.15h.27v.2c-.22.06-.46-.09-.68.12-.14-.36-.47.2-.52-.12l-.23.15-.12-.29h-.17l0-.06-.08.23-.22-.12c0,.24-.27.09-.39,0-.15.15-.41,0-.46.3l.07.11c-.29.5-.87-.14-1.1.5l-.19-.08,0,.05c.07.29.29,0,.44.12.09-.32.21-.21.42-.17V30c.12.17.39,0,.44.17l-.29.09.12.23-.15-.08c-.08,0,0-.15.05-.12a.51.51,0,0,1-.32-.06c-.05.18-.22-.2-.33.06.09.06.26.12.16.26h-.24l-.19-.09c0,.12.22-.05.22-.08-.21-.09-.61,0-.61-.29l.29-.09-.08-.36.37-.31a.23.23,0,0,0-.29-.06c-.1-.32-.42-.3-.64-.26-.19.2-.44-.06-.59.2l-.14-.26-.21.06-.18-.06v.14l-.1-.14c-.18.17-.43,0-.57.14l0-.08c-.17-.09-.49.23-.5-.15-.08.11-.3,0-.33.15l0-.09c-.25.09-.56,0-.83.17-.44-.28-.46-.08-.93-.55h0c-.12-.26.44-.32.18-.59,0-.28.43-.63.15-.84.16-.32.43-.06.65-.23.27.11.53.41.8.17h.12l0,.11c.34-.17,1.1-.14,1.08-.28.09.23.43.05.43.38,0-.11-.09-.33,0-.33.19.22.49-.28.63.09.21-.29.34.41.51-.09.15.09-.07.7.24.45l.2.11.1-.34-.08,0a.24.24,0,0,1,.3-.09c.23-.09.38-.4.65-.52l.05-.09-.13-.11c.2-.15-.09-.47.23-.44l0-.29c-.51-.62.44-.65.25-1v-.14h0c-.09-.15.08-.41.12-.49l.1.17.12-.15c-.05-.17-.26-.31-.07-.51l.22.11c.15-.24-.32-.88.32-1.06l-.1-.23c.58-.09-.22-.64.31-.75,0-.3.48-.44.39-.12h0c.13.35.46-.06.58.26l.14,0c.15.12-.21.27,0,.35,0-.12.15-.32.24-.23-.22.29-.27.49.07.66-.34,0-.34.74-.19,1l-.15.14c-.09-.39-.19-.33-.48-.39l-.06.12c.67-.14.28.79.45,1-.22-.17-.45.83-.59.27l0-.12-.32.14,0,.27-.09.06c.09.14-.27.26,0,.37l.07-.11.12.06c-.19-.35.24-.35.41-.43l.13.19c-.16-.08-.34.15-.34.29-.3.12-.61.27-.86,0-.41.16.51.33.51.5l-.31.26.34.15c-.24.08-.32.64-.61.58a.47.47,0,0,0,0,.38l.25-.06.12.27c.31.06.05-.33.31-.17l-.11.11c.06.23.31-.1.41.14h.18l0,.18.07.05c.15-.25.3-.34.44,0-.07,0-.19.26,0,.3l.22-.35-.1-.18.27,0v.2c.2-.09.46-.18.56-.43l.15.11-.15.12c0,.14.15.29.26.14.21.11.5-.14.5.23.16,0,.12-.37.26-.26,0-.09.1-.34.22-.23l.1.14c-.27,0,0,.3,0,.49-.18.12-.06-.51-.3-.22.12.11.07.34.07.49l-.09.12c.17-.06.46-.12.48-.33.29.09.52-.63.69-.14-.28-.14-.37.14-.47.35l.17.15c0-.15.15-.36.25-.3l.26.27Zm-7.7-1.14v.12l.15,0Zm.91,6.41v-.2c-.25-.09,0,.2-.19.12l.07-.12L43,33.36h-.13l-.19-.15c-.15.15.14.24,0,.3a.13.13,0,0,1-.19-.12l.09,0,.05-.3.18.06c0,.09.07.24.19.15l.12-.21.2.41Zm-.73.33c0-.15.19-.21.27-.21-.13,0-.13.26-.27.21m.14.52h-.09a.65.65,0,0,1,.14-.35l.25.17c0,.13-.35,0-.3.18m.15-2.1-.22,0,.12-.26.17.08Zm-.15-.32V32s.08.06.08.09Zm.08.73,0,0,0-.09,0,.09Zm.14,1.28h-.07V34l.1,0Zm1-2.18-.07-.09-.11.09c.09.08.21.26.33.14l.07,0c0,.23-.29.06-.4.23l.16.12-.09.26.09.12-.21.09-.08-.26h0l.23-.36c-.2-.09,0-.37-.23-.37l0-.39-.14.24v0h-.18L43,31.61l-.13.15c.25.06-.12.29.13.38l.22-.15c-.08.2.21.44,0,.65l.09.14c-.19-.27-.26.15-.46.06a.39.39,0,0,1,.27-.33c-.12-.06-.39-.23-.24-.43-.12-.21-.24-.29-.1-.56v-.17c.18,0,.42.09.49-.12l.22.12a.76.76,0,0,0,.48-.2L44,31c-.12.23-.31-.14-.46,0-.19-.21-.32.29-.51,0l-.1.15,0,0c.15-.15-.19-.65.25-.5.07,0,.12.17.2.26h0v-.23c.23.23.47-.15.64.21l.22-.09c.05.41-.42.52-.42,1.14m-.65-4.77L43,27.09c0-.18.21-.12.29,0Zm0,1.06-.07.18.24.17c0-.14,0-.29-.17-.35M43,34.29l0-.08.05,0Zm0-4.81.05-.11s0,.05,0,.11ZM43.27,28s-.05.06,0,.13l.11-.1Zm0,6v0l.1-.23V34Zm.21-.31-.11-.07c0-.08.11-.2.19-.14Zm.11-2.6v.11c-.21,0-.08-.08,0-.11m-.11-3.65.08.09c.08-.06.26-.15.26-.29s-.26.09-.34.2m.37,5.46,0-.09c.08,0,.1,0,.15.06Zm.07-2.31,0-.09H44v.09Zm.47-.72h0v-.15l.07.11Zm0-4.06c0,.26.22.23.19.37h0c0-.14,0-.34-.22-.37m.07,5.07c-.07-.19.12-.26.12-.05Zm.24-1.22v-.08c.08,0,.1,0,.1,0v.07Zm.19-5.31.22-.12c-.07,0-.22-.09-.22.12M45,26c-.05,0,0,.09,0,.12l0-.09Zm.62,2.34c-.08.12-.25.31-.34.23v.08c.09.06.26-.05.36-.11l0,0,0,.14c.17.06.19-.17.36-.14Zm-.3-4.43h.07l0,0c0-.07,0,0-.1,0m0,.55.13.24,0-.27.1,0c0-.29-.17.17-.27,0m0,2.42c-.07-.15.23-.15.29-.15s-.21.15-.29.15m.2-3.62.12.16c0-.16-.09-.13-.12-.16m.12.65V24c.12-.14.24-.06.36,0-.07-.24-.24,0-.36-.14m.15,1.83,0-.09c0-.2.2-.17.33-.08s-.23,0-.3.17m0-1,.07-.09,0,.09Zm0,1.51s0-.11,0-.11l0,.11ZM46,26l0-.14.08.06Zm.31-4.75,0-.12.07.12Zm.51,7.06,0,.06-.24.23.34-.11Zm1.1.81c.12,0,.12-.14,0-.28a.21.21,0,0,0,0,.28M48,27.36l.08-.23c.07,0,.22.14.14.25Zm.15.66a.81.81,0,0,0,.38,0c-.14-.12-.43-.34-.38,0m.34.36-.34.06c.22.08.15.35.07.55.08-.2.15-.24.29-.24Zm.66-.77,0-.14c.12,0,.17,0,.12.18Zm.85.32-.1-.08c-.07-.14.1-.14.13,0Zm.24.51.07.19h-.19c-.22-.29.17-.19.17-.4l.17.15v.11Z" transform="translate(0.23 0)"/><path class="cls-8" d="M5.72,22.27h5.21c1.91,0,4,.46,4,2.78a2.51,2.51,0,0,1-1.47,2.25,2.65,2.65,0,0,1,1.91,2.64c0,2.65-2,3.46-4.33,3.46H5.72Zm2.9,4.38h2.25a1.09,1.09,0,0,0,1.19-1.07c0-.81-.59-1.07-1.19-1.07H8.62Zm0,4.42h2.32c.92,0,1.56-.32,1.56-1.24s-.68-1.32-1.56-1.32H8.62Z" transform="translate(0.23 0)"/><path class="cls-8" d="M23.82,26.24a2,2,0,0,0-2.25-1.72c-1.87,0-2.58,1.66-2.58,3.31s.71,3.3,2.58,3.3a2.06,2.06,0,0,0,2.25-2.06h2.9c-.16,2.88-2.26,4.56-5.08,4.56a5.48,5.48,0,0,1-5.56-5.8A5.49,5.49,0,0,1,21.64,22c2.4,0,5,1.54,5.08,4.22Z" transform="translate(0.23 0)"/><polygon class="cls-8" points="27.92 22.27 30.89 22.27 34.76 29.12 34.79 29.12 34.79 22.27 37.52 22.27 37.52 33.4 34.54 33.4 30.68 26.45 30.65 26.45 30.65 33.4 27.92 33.4 27.92 22.27"/></g><path class="cls-3" d="M60.81,37.22a5.47,5.47,0,0,0-.05.69,1.93,1.93,0,0,0,2.06,1.92,2.25,2.25,0,0,0,2.29-1.52h1.3A3.46,3.46,0,0,1,62.82,41a3,3,0,0,1-3.37-3.18c0-3,1.91-5.11,4.09-5.11,2.34,0,3.36,1.27,3.36,3.51a5.47,5.47,0,0,1-.12,1Zm4.79-1.14a1.85,1.85,0,0,0-1.86-2.25A2.81,2.81,0,0,0,61,36.08Zm-.73-6.5h1.74l-2.09,2.19H63.44Z" transform="translate(0.23 0)"/><path class="cls-3" d="M73,35.2c.06-.9-.74-1.37-1.64-1.37s-1.69.21-1.69,1,1,1,2.09,1.45,2.11,1,2.11,2.23c0,1.76-1.71,2.45-3.24,2.45-1.82,0-3.23-.66-3.21-2.69h1.3c-.06,1.18.94,1.54,2,1.54.85,0,1.81-.31,1.81-1.21s-1-1.08-2.08-1.5-2.1-1-2.1-2.15c0-1.48,1.47-2.29,3-2.29s3,.66,3,2.52Z" transform="translate(0.23 0)"/><path class="cls-3" d="M80.8,32.87H82L81.72,34l0,0a3.64,3.64,0,0,1,2.77-1.4,1.82,1.82,0,0,1,2,1.43,3.43,3.43,0,0,1,2.71-1.43c1.13,0,2.21.49,2.21,1.78A7.63,7.63,0,0,1,91.21,36l-1,4.76h-1.3l1.1-5a4.47,4.47,0,0,0,.13-.87,1.12,1.12,0,0,0-1.21-1.07,2.81,2.81,0,0,0-2,1.09,3.67,3.67,0,0,0-.74,1.78l-.88,4.1H84L85,36.27a8.66,8.66,0,0,0,.25-1.4,1,1,0,0,0-1.1-1,2.81,2.81,0,0,0-2,1,2.93,2.93,0,0,0-.85,1.79l-.89,4.16h-1.3Z" transform="translate(0.23 0)"/><path class="cls-3" d="M97,32.68a3,3,0,0,1,3.3,3.28c0,2.6-1.62,5-4.4,5a3.14,3.14,0,0,1-3.34-3.31c0-2.59,1.66-5,4.44-5m-1,7.16c1.89,0,2.94-2.2,2.94-3.76a2,2,0,0,0-2.09-2.26c-2,0-3,2.19-3,3.84A2,2,0,0,0,96,39.84" transform="translate(0.23 0)"/><polygon class="cls-3" points="103.54 29.84 104.84 29.84 102.53 40.8 101.23 40.8 103.54 29.84"/><path class="cls-3" d="M107.87,32.87h1.59L109.21,34h-1.59l-1,4.67c0,.19-.05.34-.05.53,0,.4.39.53.79.53a2.43,2.43,0,0,0,.75-.14l-.23,1.2a4.78,4.78,0,0,1-.92.09c-1,0-1.78-.27-1.78-1.29a3,3,0,0,1,.08-.65l1-4.94H105l.25-1.14h1.33l.49-2.36h1.3Z" transform="translate(0.23 0)"/><path class="cls-3" d="M115.2,32.87h1.21l-.3,1.17,0,0a3.63,3.63,0,0,1,2.77-1.4,1.81,1.81,0,0,1,2,1.43,3.43,3.43,0,0,1,2.71-1.43c1.12,0,2.21.49,2.21,1.78a8.35,8.35,0,0,1-.22,1.58l-1,4.76H123.3l1.11-5a4.41,4.41,0,0,0,.11-.87,1.12,1.12,0,0,0-1.2-1.07,2.81,2.81,0,0,0-2,1.09,3.77,3.77,0,0,0-.74,1.78l-.87,4.1h-1.3l1-4.53a11.8,11.8,0,0,0,.25-1.4,1,1,0,0,0-1.11-1,2.83,2.83,0,0,0-2,1,3,3,0,0,0-.85,1.79l-.89,4.16h-1.29Z" transform="translate(0.23 0)"/><path class="cls-3" d="M128.16,37.22c0,.23,0,.47,0,.69a1.93,1.93,0,0,0,2,1.92,2.23,2.23,0,0,0,2.28-1.52h1.32a3.47,3.47,0,0,1-3.6,2.67,3,3,0,0,1-3.36-3.18c0-3,1.9-5.11,4.09-5.11s3.35,1.27,3.35,3.51a5.63,5.63,0,0,1-.11,1Zm4.8-1.14a1.85,1.85,0,0,0-1.86-2.25,2.82,2.82,0,0,0-2.75,2.25Zm-.73-6.5H134l-2.09,2.19H130.8Z" transform="translate(0.23 0)"/><path class="cls-3" d="M140.35,35.2c.06-.9-.73-1.37-1.64-1.37s-1.69.21-1.69,1,1,1,2.09,1.45,2.1,1,2.1,2.23c0,1.76-1.71,2.45-3.23,2.45-1.82,0-3.23-.66-3.22-2.69h1.31c-.06,1.18.94,1.54,2,1.54.85,0,1.82-.31,1.82-1.21s-1-1.08-2.09-1.5-2.11-1-2.11-2.15c0-1.48,1.48-2.29,2.95-2.29s3,.66,3,2.52Z" transform="translate(0.23 0)"/><path class="cls-3" d="M60.18,14.33h5.35c2.17,0,3.63.7,3.63,2.82a2.49,2.49,0,0,1-1.54,2.38,2.79,2.79,0,0,1,2.09,2.88c0,2.31-2,3.3-4,3.3H60.18Zm2.5,4.61h2.53c.87,0,1.53-.4,1.53-1.35s-.82-1.31-1.72-1.31H62.68Zm0,4.83h2.68c1,0,1.84-.32,1.84-1.5s-.73-1.63-1.8-1.63H62.68Z" transform="translate(0.23 0)"/><path class="cls-3" d="M71,20c.12-2.11,2-2.75,3.87-2.75,1.64,0,3.62.36,3.62,2.35v4.28a4.14,4.14,0,0,0,.29,1.83h-2.3a3.46,3.46,0,0,1-.16-.79,3.78,3.78,0,0,1-2.77,1c-1.56,0-2.81-.79-2.81-2.47,0-1.87,1.41-2.31,2.81-2.5s2.68-.16,2.68-1.09-.67-1.11-1.47-1.11-1.42.35-1.5,1.23Zm5.23,1.68a4.45,4.45,0,0,1-1.88.48c-.71.14-1.34.38-1.34,1.21s.65,1.05,1.38,1.05a1.68,1.68,0,0,0,1.84-1.89Z" transform="translate(0.23 0)"/><path class="cls-3" d="M80.08,17.47h2.15V19h0a2.91,2.91,0,0,1,2.63-1.74,2.08,2.08,0,0,1,.5.07v2.1a4.82,4.82,0,0,0-.82-.07c-1.65,0-2.23,1.19-2.23,2.64v3.71H80.08Z" transform="translate(0.23 0)"/><path class="cls-3" d="M91.49,20.37A1.53,1.53,0,0,0,89.82,19c-1.45,0-1.93,1.47-1.93,2.67s.46,2.6,1.88,2.6a1.74,1.74,0,0,0,1.8-1.68h2.18a3.67,3.67,0,0,1-4,3.39,4,4,0,0,1-4.16-4.23c0-2.56,1.53-4.45,4.21-4.45,1.94,0,3.73,1,3.87,3.11Z" transform="translate(0.23 0)"/><path class="cls-3" d="M96.79,22.14c.06,1.44.76,2.09,2,2.09a1.85,1.85,0,0,0,1.78-1.07h2a3.72,3.72,0,0,1-3.86,2.78,4,4,0,0,1-4.21-4.34,4.12,4.12,0,0,1,4.21-4.34c2.81,0,4.16,2.35,4,4.88Zm3.68-1.43c-.22-1.14-.7-1.75-1.8-1.75a1.77,1.77,0,0,0-1.88,1.75Z" transform="translate(0.23 0)"/><rect class="cls-3" x="104.24" y="14.33" width="2.26" height="11.38"/><path class="cls-3" d="M112,17.26a4,4,0,0,1,4.27,4.34,4.26,4.26,0,1,1-8.52,0A4,4,0,0,1,112,17.26m0,7c1.54,0,2-1.32,2-2.63S113.5,19,112,19s-2,1.31-2,2.64.47,2.63,2,2.63" transform="translate(0.23 0)"/><path class="cls-3" d="M117.58,17.47h2.15v1.15h0a2.93,2.93,0,0,1,2.52-1.36c2.41,0,3,1.34,3,3.38v5.07h-2.26V21.06c0-1.35-.4-2-1.45-2-1.23,0-1.75.68-1.75,2.36v4.31h-2.27Z" transform="translate(0.23 0)"/><path class="cls-3" d="M126.83,20c.12-2.11,2-2.75,3.87-2.75,1.64,0,3.62.36,3.62,2.35v4.28a4,4,0,0,0,.29,1.83h-2.3a3.46,3.46,0,0,1-.16-.79,3.78,3.78,0,0,1-2.77,1c-1.56,0-2.81-.79-2.81-2.47,0-1.87,1.41-2.31,2.81-2.5s2.67-.16,2.67-1.09-.67-1.11-1.46-1.11-1.42.35-1.5,1.23Zm5.22,1.68c-.37.34-1.17.35-1.88.48s-1.34.38-1.34,1.21.66,1.05,1.39,1.05a1.68,1.68,0,0,0,1.83-1.89Z" transform="translate(0.23 0)"/></g></g></svg>