<svg xmlns="http://www.w3.org/2000/svg" viewBox="0 0 16.07 16.07"><defs><style>.cls-1{fill:#a52030;}.cls-2{fill:#fff;}</style></defs><g id="Capa_2" data-name="Capa 2"><g id="Capa_1-2" data-name="Capa 1"><path class="cls-1" d="M8,16.07A8,8,0,1,0,0,8,8,8,0,0,0,8,16.07Z"/><path class="cls-2" d="M3.34,8,8.76,5.74c.53-.24,2.34-1,2.34-1s.84-.32.77.47c0,.32-.21,1.46-.4,2.69-.28,1.74-.58,3.65-.58,3.65s0,.53-.44.62-1-.32-1.16-.42-1.74-1.11-2.35-1.62a.44.44,0,0,1,0-.74C7.8,8.64,8.8,7.69,9.41,7.08c.27-.28.55-.93-.61-.14C7.15,8.08,5.53,9.15,5.53,9.15a1.37,1.37,0,0,1-1.07,0C3.76,9,3,8.69,3,8.69s-.56-.35.39-.72Z"/></g></g></svg>