<?xml version="1.0" encoding="utf-8"?>
<!-- Generator: Adobe Illustrator 28.0.0, SVG Export Plug-In . SVG Version: 6.00 Build 0)  -->
<svg version="1.1" id="Capa_1" xmlns="http://www.w3.org/2000/svg" xmlns:xlink="http://www.w3.org/1999/xlink" x="0px" y="0px"
	 viewBox="0 0 12.6 12.7" style="enable-background:new 0 0 12.6 12.7;" xml:space="preserve">
<style type="text/css">
	.st0{fill:#A52030;}
	.st1{fill:#FFFFFF;}
</style>
<g>
	<path class="st0" d="M5.9,0c0.2,0,0.5,0,0.7,0c0.1,0,0.1,0,0.2,0c2.6,0.2,4.9,2.1,5.6,4.7c0,0.5,0.1,0.9,0.2,1.3c0,0.2,0,0.4,0,0.7
		c0,0.1,0,0.1,0,0.2c-0.3,3.7-3.7,6.3-7.3,5.7c-3-0.5-5.2-3-5.3-6c-0.2-3,1.8-5.6,4.7-6.3C5.1,0.2,5.5,0.1,5.9,0z M10.1,10
		c-1-1.4-2-2.7-3-4c1-1.1,2-2.2,3-3.3c-0.2,0-0.2,0-0.3,0C9.5,2.7,9.4,2.8,9.2,3C8.5,3.8,7.7,4.6,6.9,5.4c0,0.1,0,0.1-0.1,0.2
		C6.7,5.5,6.7,5.4,6.7,5.4C6,4.5,5.4,3.7,4.8,2.9C4.7,2.7,4.6,2.7,4.5,2.7c-0.5,0-1,0-1.5,0c-0.2,0-0.4,0-0.7,0
		C3.4,4.2,4.5,5.6,5.5,7c-0.9,1-1.9,2-2.8,3c0.2,0,0.3,0,0.4,0c0.2,0,0.4-0.1,0.5-0.2C4.3,9,5,8.3,5.7,7.6c0.1-0.1,0.1-0.1,0.1-0.2
		C5.9,7.5,5.9,7.6,6,7.6C6.5,8.3,7,9,7.5,9.7c0.2,0.3,0.4,0.4,0.8,0.4C8.9,10,9.5,10,10.1,10z"/>
	<path class="st1" d="M12.6,6c-0.1-0.4-0.1-0.8-0.2-1.2c-0.7-2.6-3-4.5-5.6-4.7c-0.1,0-0.1,0-0.2,0c2,0,4,0,6,0
		C12.6,2,12.6,4,12.6,6z"/>
	<path class="st1" d="M10.1,10c-0.7,0-1.2,0-1.8,0c-0.4,0-0.6-0.1-0.8-0.4C7,8.9,6.5,8.2,6,7.5c0-0.1-0.1-0.1-0.2-0.2
		c0,0.1-0.1,0.2-0.1,0.2C5,8.3,4.3,9,3.6,9.8C3.4,10,3.3,10.1,3.1,10c-0.1,0-0.2,0-0.4,0c1-1,1.9-2,2.8-3.1c-1-1.3-2.1-2.7-3.2-4.2
		c0.3,0,0.5,0,0.7,0c0.5,0,1,0,1.5,0c0.1,0,0.2,0,0.3,0.2C5.4,3.7,6,4.5,6.7,5.4c0,0.1,0.1,0.1,0.2,0.2C7,5.5,7,5.5,7,5.4
		C7.8,4.6,8.5,3.8,9.3,3c0.2-0.2,0.3-0.3,0.6-0.3c0.1,0,0.2,0,0.3,0c-1,1.1-2,2.2-3,3.3C8.1,7.3,9.1,8.7,10.1,10z M9.1,9.5
		C9.1,9.4,9,9.4,9,9.4c-1.5-2-3-4-4.5-6.1L4.4,3.2c-0.3,0-0.7,0-1,0v0.1c1.5,2,3.1,4.1,4.6,6.1c0,0,0.1,0.1,0.2,0.1
		C8.5,9.5,8.8,9.5,9.1,9.5z"/>
	<path class="st0" d="M9.1,9.5c-0.3,0-0.6,0-0.9,0c-0.1,0-0.1,0-0.2-0.1c-1.5-2-3.1-4.1-4.6-6.1c0,0,0,0,0-0.1c0.3,0,0.7,0,1,0
		l0.1,0.1c1.5,2,3,4,4.5,6.1L9.1,9.5z"/>
</g>
</svg>
