<?xml version="1.0" encoding="utf-8"?>
<!-- Generator: Adobe Illustrator 28.0.0, SVG Export Plug-In . SVG Version: 6.00 Build 0)  -->
<svg version="1.1" id="Capa_1" xmlns="http://www.w3.org/2000/svg" xmlns:xlink="http://www.w3.org/1999/xlink" x="0px" y="0px"
	 viewBox="0 0 21.4 17.4" style="enable-background:new 0 0 21.4 17.4;" xml:space="preserve">
<style type="text/css">
	.st0{fill:#A52030;}
	.st1{fill:#FFFFFF;}
</style>
<g>
	<path class="st0" d="M18.9,16.8c-2.2-3.1-4.4-5.9-6.6-8.8c2.2-2.4,4.4-4.8,6.6-7.2c-0.4,0-0.4,0-0.7,0c-0.7,0-0.9,0.2-1.3,0.7
		c-1.5,1.8-3.3,3.5-5.1,5.3c0,0.2,0,0.2-0.2,0.4c-0.2-0.2-0.2-0.4-0.2-0.4c-1.5-2-2.9-3.7-4.2-5.5C7.1,0.7,6.9,0.7,6.6,0.7
		c-1.1,0-2.2,0-3.3,0c-0.4,0-0.9,0-1.5,0c2.4,3.3,4.8,6.4,7,9.4c-2,2.2-4.2,4.4-6.1,6.6c0.4,0,0.7,0,0.9,0c0.4,0,0.9-0.2,1.1-0.4
		c1.5-1.8,3.1-3.3,4.6-4.8c0.2-0.2,0.2-0.2,0.2-0.4c0.2,0.2,0.2,0.4,0.4,0.4c1.1,1.5,2.2,3.1,3.3,4.6c0.4,0.7,0.9,0.9,1.8,0.9
		C16.3,16.8,17.6,16.8,18.9,16.8z"/>
	<path class="st1" d="M18.9,16.8c-1.5,0-2.6,0-4,0c-0.9,0-1.3-0.2-1.8-0.9c-1.1-1.5-2.2-3.1-3.3-4.6c0-0.2-0.2-0.2-0.4-0.4
		c0,0.2-0.2,0.4-0.2,0.4c-1.5,1.8-3.1,3.3-4.6,5.1C4.2,16.8,4,17,3.6,16.8c-0.2,0-0.4,0-0.9,0c2.2-2.2,4.2-4.4,6.1-6.8
		C6.6,7.1,4.2,4,1.8,0.7c0.7,0,1.1,0,1.5,0c1.1,0,2.2,0,3.3,0c0.2,0,0.4,0,0.7,0.4c1.3,1.8,2.6,3.5,4.2,5.5c0,0.2,0.2,0.2,0.4,0.4
		c0.2-0.2,0.2-0.2,0.2-0.4c1.8-1.8,3.3-3.5,5.1-5.3c0.4-0.4,0.7-0.7,1.3-0.7c0.2,0,0.4,0,0.7,0C17,3.2,14.8,5.6,12.6,8
		C14.6,10.8,16.7,13.9,18.9,16.8z M16.7,15.7c0-0.2-0.2-0.2-0.2-0.2c-3.3-4.4-6.6-8.8-9.9-13.4L6.4,1.8c-0.7,0-1.5,0-2.2,0v0.2
		c3.3,4.4,6.8,9,10.1,13.4c0,0,0.2,0.2,0.4,0.2C15.4,15.7,16.1,15.7,16.7,15.7z"/>
</g>
</svg>
