<svg xmlns="http://www.w3.org/2000/svg" viewBox="0 0 16.08 16.07"><defs><style>.cls-1{fill:#a52030;}.cls-2{fill:#fff;}</style></defs><g id="Capa_2" data-name="Capa 2"><g id="Capa_1-2" data-name="Capa 1"><path class="cls-1" d="M8,0A8,8,0,0,0,1.53,12.75l-1,3,3.09-1A8,8,0,1,0,8,0Z"/><path class="cls-2" d="M5.79,4.08c-.15-.37-.27-.39-.51-.4H5A1.18,1.18,0,0,0,4.19,4a2.57,2.57,0,0,0-.82,2,4.6,4.6,0,0,0,1,2.42,10.06,10.06,0,0,0,4,3.54c1.85.76,2.4.69,2.82.6a2.3,2.3,0,0,0,1.58-1.13,2,2,0,0,0,.13-1.12c0-.1-.21-.15-.45-.27S11,9.27,10.8,9.2a.45.45,0,0,0-.57.17,9.26,9.26,0,0,1-.63.83.51.51,0,0,1-.57.09A5.81,5.81,0,0,1,7.15,9.13,7.22,7.22,0,0,1,5.84,7.51c-.13-.23,0-.37.1-.5s.23-.25.35-.39a1.23,1.23,0,0,0,.26-.37.46.46,0,0,0,0-.43c0-.12-.52-1.27-.72-1.74Z"/></g></g></svg>