<svg xmlns="http://www.w3.org/2000/svg" viewBox="0 0 25.51 17.64"><defs><style>.cls-1{fill:#fff;}</style></defs><g id="Capa_2" data-name="Capa 2"><g id="Capa_2-2" data-name="Capa 2"><path class="cls-1" d="M13.32,17.62l-5.23-.1A26.68,26.68,0,0,1,3,17.21C.5,16.7.33,14.16.14,12a36,36,0,0,1,.33-9A3.07,3.07,0,0,1,3.5.3a165.66,165.66,0,0,1,17-.16,10.68,10.68,0,0,1,1.78.21c2.9.51,3,3.37,3.16,5.79a33.1,33.1,0,0,1-.25,7.31c-.29,2-.84,3.69-3.16,3.85-2.9.22-5.74.39-8.66.33Zm-3.08-5.08L16.76,8.8,10.24,5.06Z"/></g></g></svg>