<svg id="Capa_1" data-name="Capa 1" xmlns="http://www.w3.org/2000/svg" viewBox="0 0 445.13 303.16"><defs><style>.cls-1{fill:#cd1719;}.cls-2{fill:#fff;}</style></defs><path class="cls-1" d="M317.36,0H0V235.3l127.76,67.86H445.13V67.87ZM426.29,284.33H132.45L18.83,224V145.36H196.61l126.46-121L426.29,79.19Z"/><path class="cls-1" d="M349,223.63a.8.8,0,0,0,.85.85h37a.8.8,0,0,0,.84-.85v-9.08a.8.8,0,0,0-.84-.85H362a.45.45,0,0,1-.51-.51v-12a.45.45,0,0,1,.51-.51h20.72a.81.81,0,0,0,.85-.85v-9a.81.81,0,0,0-.85-.85H362a.45.45,0,0,1-.51-.51V178.05a.45.45,0,0,1,.51-.51h24.88a.8.8,0,0,0,.84-.85v-9.08a.8.8,0,0,0-.84-.85h-37a.8.8,0,0,0-.85.85Zm-63.92,0a.8.8,0,0,0,.85.85h9.59a.8.8,0,0,0,.85-.85V191.12h.34l10.7,24.36a1.63,1.63,0,0,0,1.61,1.11h5.86a1.64,1.64,0,0,0,1.61-1.11l10.7-24.36h.33v32.51a.81.81,0,0,0,.85.85H338a.81.81,0,0,0,.86-.85v-56a.81.81,0,0,0-.86-.85h-9.93a1.3,1.3,0,0,0-1.35.85l-14.35,32.93H312l-14.6-32.93a1.3,1.3,0,0,0-1.36-.85H286a.8.8,0,0,0-.85.85Zm-30.22,1.78c14.95,0,22.67-7.72,22.67-18.16s-6.28-15.88-18.17-17.48l-3.05-.43c-6.62-.93-9-3.06-9-6.37,0-3.65,2.63-6.28,7.73-6.28,4.75,0,9,1.53,13.41,4.41a.85.85,0,0,0,1.19-.25l5.17-7.72c.43-.6.34-.94-.17-1.27-4.83-3.74-12-6-19.6-6-12.49,0-20.46,7.05-20.46,17.66,0,10.19,6.53,15.7,18.25,17.32l3,.42c6.88.93,8.92,3.06,8.92,6.46,0,4.07-3.4,6.87-9.43,6.87s-11.28-2.89-15.1-6a.87.87,0,0,0-1.28.09l-6.45,7.39a1,1,0,0,0,.09,1.44c4.5,4.33,13.24,7.89,22.23,7.89m-42.09-1.78a.8.8,0,0,0,.84.85h10.78a.8.8,0,0,0,.85-.85v-56a.8.8,0,0,0-.85-.85H213.64a.8.8,0,0,0-.84.85Zm-29-31.75H173.66a.45.45,0,0,1-.51-.51V178.05a.45.45,0,0,1,.51-.51h10.19c4.76,0,7.81,2.8,7.81,7.13s-3,7.21-7.81,7.21m20.8,32.6a.66.66,0,0,0,.59-1l-11.37-22.75a16.91,16.91,0,0,0,10.27-16c0-10.53-7.81-17.91-19.61-17.91h-23a.8.8,0,0,0-.84.85v56a.8.8,0,0,0,.84.85H172.3a.8.8,0,0,0,.85-.85V203a.45.45,0,0,1,.51-.5h7.73l9.93,21.13a1.14,1.14,0,0,0,1.27.85Zm-76,.93c12.9,0,22.07-7.81,22.07-22.15V167.61a.8.8,0,0,0-.85-.85H139.11a.8.8,0,0,0-.84.85v36c0,6.87-3.82,10.78-9.59,10.78S119,210.47,119,203.6v-36a.8.8,0,0,0-.85-.85H107.37a.8.8,0,0,0-.85.85v35.65c0,14.34,9.17,22.15,22.16,22.15m-44.82-.93a.8.8,0,0,0,.85-.85V178.39a.45.45,0,0,1,.51-.51h14.6a.8.8,0,0,0,.84-.85v-9.42a.8.8,0,0,0-.84-.85H57.12a.8.8,0,0,0-.85.85V177a.8.8,0,0,0,.85.85h14.6a.45.45,0,0,1,.51.51v45.24a.8.8,0,0,0,.85.85Z"/><path class="cls-2" d="M176.2,106V91.77a.48.48,0,0,1,.54-.54h10c5.39,0,8.26,3,8.26,7.64s-2.87,7.62-8.26,7.62h-10a.47.47,0,0,1-.54-.53m.54-24.87a.48.48,0,0,1-.54-.54V67.36a.48.48,0,0,1,.54-.55h9.33c5,0,8,2.61,8,7.1s-3,7.18-8,7.18ZM163,116.28a.85.85,0,0,0,.9.89h23.16c13.2,0,21.19-5.74,21.19-17.77,0-7.27-4.13-12.3-8.17-13.82V85.4c4-2.24,7.09-6.37,7.09-13,0-9.69-6.19-16.24-19.48-16.24H163.9a.84.84,0,0,0-.9.89Zm-40.84-21.9L129.07,73h.27l6.91,21.37Zm-20.64,21.9c-.19.53,0,.89.62.89H113.9a1.08,1.08,0,0,0,1.17-.89l3.41-10.68h21.37l3.49,10.68a1.09,1.09,0,0,0,1.17.89h11.67c.63,0,.81-.36.63-.89L136.16,57a1.14,1.14,0,0,0-1.16-.89H123.69a1.16,1.16,0,0,0-1.17.89Zm-43.9,0a.85.85,0,0,0,.89.89H98.28a.85.85,0,0,0,.9-.89v-10a.84.84,0,0,0-.9-.89H71.36a.48.48,0,0,1-.55-.54V57a.84.84,0,0,0-.89-.89H58.51a.84.84,0,0,0-.89.89Z"/></svg>